G04 #@! TF.GenerationSoftware,KiCad,Pcbnew,5.1.2-f72e74a~84~ubuntu18.04.1*
G04 #@! TF.CreationDate,2019-06-18T11:56:32+09:00*
G04 #@! TF.ProjectId,left-top-mirror,6c656674-2d74-46f7-902d-6d6972726f72,rev?*
G04 #@! TF.SameCoordinates,Original*
G04 #@! TF.FileFunction,Legend,Top*
G04 #@! TF.FilePolarity,Positive*
%FSLAX46Y46*%
G04 Gerber Fmt 4.6, Leading zero omitted, Abs format (unit mm)*
G04 Created by KiCad (PCBNEW 5.1.2-f72e74a~84~ubuntu18.04.1) date 2019-06-18 11:56:32*
%MOMM*%
%LPD*%
G04 APERTURE LIST*
%ADD10C,0.300000*%
%ADD11C,3.802000*%
G04 APERTURE END LIST*
D10*
X198268571Y-91442857D02*
X197268571Y-91442857D01*
X197554285Y-91442857D02*
X197411428Y-91371428D01*
X197340000Y-91300000D01*
X197268571Y-91157142D01*
X197268571Y-91014285D01*
X198197142Y-89942857D02*
X198268571Y-90085714D01*
X198268571Y-90371428D01*
X198197142Y-90514285D01*
X198054285Y-90585714D01*
X197482857Y-90585714D01*
X197340000Y-90514285D01*
X197268571Y-90371428D01*
X197268571Y-90085714D01*
X197340000Y-89942857D01*
X197482857Y-89871428D01*
X197625714Y-89871428D01*
X197768571Y-90585714D01*
X197268571Y-89371428D02*
X198268571Y-89014285D01*
X197268571Y-88657142D01*
X198125714Y-88085714D02*
X198197142Y-88014285D01*
X198268571Y-88085714D01*
X198197142Y-88157142D01*
X198125714Y-88085714D01*
X198268571Y-88085714D01*
X198268571Y-86585714D02*
X198268571Y-87442857D01*
X198268571Y-87014285D02*
X196768571Y-87014285D01*
X196982857Y-87157142D01*
X197125714Y-87300000D01*
X197197142Y-87442857D01*
%LPC*%
D11*
X181660000Y-60910000D03*
X115160000Y-117910000D03*
X196875000Y-117910000D03*
X157910000Y-117910000D03*
X96160000Y-117910000D03*
X96160000Y-60910000D03*
X81910000Y-98910000D03*
M02*
