G04 #@! TF.GenerationSoftware,KiCad,Pcbnew,5.1.2-f72e74a~84~ubuntu18.04.1*
G04 #@! TF.CreationDate,2019-06-17T18:23:15+09:00*
G04 #@! TF.ProjectId,right-bottom,72696768-742d-4626-9f74-746f6d2e6b69,rev?*
G04 #@! TF.SameCoordinates,Original*
G04 #@! TF.FileFunction,Legend,Top*
G04 #@! TF.FilePolarity,Positive*
%FSLAX46Y46*%
G04 Gerber Fmt 4.6, Leading zero omitted, Abs format (unit mm)*
G04 Created by KiCad (PCBNEW 5.1.2-f72e74a~84~ubuntu18.04.1) date 2019-06-17 18:23:15*
%MOMM*%
%LPD*%
G04 APERTURE LIST*
%ADD10C,0.300000*%
%ADD11C,0.150000*%
%ADD12C,2.302000*%
G04 APERTURE END LIST*
D10*
X163770714Y-137172142D02*
X163985000Y-137243571D01*
X164342142Y-137243571D01*
X164485000Y-137172142D01*
X164556428Y-137100714D01*
X164627857Y-136957857D01*
X164627857Y-136815000D01*
X164556428Y-136672142D01*
X164485000Y-136600714D01*
X164342142Y-136529285D01*
X164056428Y-136457857D01*
X163913571Y-136386428D01*
X163842142Y-136315000D01*
X163770714Y-136172142D01*
X163770714Y-136029285D01*
X163842142Y-135886428D01*
X163913571Y-135815000D01*
X164056428Y-135743571D01*
X164413571Y-135743571D01*
X164627857Y-135815000D01*
X165913571Y-137243571D02*
X165913571Y-136457857D01*
X165842142Y-136315000D01*
X165699285Y-136243571D01*
X165413571Y-136243571D01*
X165270714Y-136315000D01*
X165913571Y-137172142D02*
X165770714Y-137243571D01*
X165413571Y-137243571D01*
X165270714Y-137172142D01*
X165199285Y-137029285D01*
X165199285Y-136886428D01*
X165270714Y-136743571D01*
X165413571Y-136672142D01*
X165770714Y-136672142D01*
X165913571Y-136600714D01*
X166413571Y-136243571D02*
X166985000Y-136243571D01*
X166627857Y-135743571D02*
X166627857Y-137029285D01*
X166699285Y-137172142D01*
X166842142Y-137243571D01*
X166985000Y-137243571D01*
X167413571Y-137172142D02*
X167556428Y-137243571D01*
X167842142Y-137243571D01*
X167985000Y-137172142D01*
X168056428Y-137029285D01*
X168056428Y-136957857D01*
X167985000Y-136815000D01*
X167842142Y-136743571D01*
X167627857Y-136743571D01*
X167485000Y-136672142D01*
X167413571Y-136529285D01*
X167413571Y-136457857D01*
X167485000Y-136315000D01*
X167627857Y-136243571D01*
X167842142Y-136243571D01*
X167985000Y-136315000D01*
X169342142Y-136243571D02*
X169342142Y-137243571D01*
X168699285Y-136243571D02*
X168699285Y-137029285D01*
X168770714Y-137172142D01*
X168913571Y-137243571D01*
X169127857Y-137243571D01*
X169270714Y-137172142D01*
X169342142Y-137100714D01*
X170056428Y-137243571D02*
X170056428Y-136243571D01*
X170056428Y-136386428D02*
X170127857Y-136315000D01*
X170270714Y-136243571D01*
X170485000Y-136243571D01*
X170627857Y-136315000D01*
X170699285Y-136457857D01*
X170699285Y-137243571D01*
X170699285Y-136457857D02*
X170770714Y-136315000D01*
X170913571Y-136243571D01*
X171127857Y-136243571D01*
X171270714Y-136315000D01*
X171342142Y-136457857D01*
X171342142Y-137243571D01*
X172699285Y-137243571D02*
X172699285Y-136457857D01*
X172627857Y-136315000D01*
X172485000Y-136243571D01*
X172199285Y-136243571D01*
X172056428Y-136315000D01*
X172699285Y-137172142D02*
X172556428Y-137243571D01*
X172199285Y-137243571D01*
X172056428Y-137172142D01*
X171985000Y-137029285D01*
X171985000Y-136886428D01*
X172056428Y-136743571D01*
X172199285Y-136672142D01*
X172556428Y-136672142D01*
X172699285Y-136600714D01*
X174985000Y-135743571D02*
X174985000Y-136815000D01*
X174913571Y-137029285D01*
X174770714Y-137172142D01*
X174556428Y-137243571D01*
X174413571Y-137243571D01*
X175699285Y-137243571D02*
X175699285Y-135743571D01*
X176270714Y-135743571D01*
X176413571Y-135815000D01*
X176485000Y-135886428D01*
X176556428Y-136029285D01*
X176556428Y-136243571D01*
X176485000Y-136386428D01*
X176413571Y-136457857D01*
X176270714Y-136529285D01*
X175699285Y-136529285D01*
X178270714Y-137172142D02*
X178485000Y-137243571D01*
X178842142Y-137243571D01*
X178985000Y-137172142D01*
X179056428Y-137100714D01*
X179127857Y-136957857D01*
X179127857Y-136815000D01*
X179056428Y-136672142D01*
X178985000Y-136600714D01*
X178842142Y-136529285D01*
X178556428Y-136457857D01*
X178413571Y-136386428D01*
X178342142Y-136315000D01*
X178270714Y-136172142D01*
X178270714Y-136029285D01*
X178342142Y-135886428D01*
X178413571Y-135815000D01*
X178556428Y-135743571D01*
X178913571Y-135743571D01*
X179127857Y-135815000D01*
X179770714Y-137243571D02*
X179770714Y-135743571D01*
X180270714Y-136815000D01*
X180770714Y-135743571D01*
X180770714Y-137243571D01*
X181485000Y-137243571D02*
X181485000Y-135743571D01*
X181842142Y-135743571D01*
X182056428Y-135815000D01*
X182199285Y-135957857D01*
X182270714Y-136100714D01*
X182342142Y-136386428D01*
X182342142Y-136600714D01*
X182270714Y-136886428D01*
X182199285Y-137029285D01*
X182056428Y-137172142D01*
X181842142Y-137243571D01*
X181485000Y-137243571D01*
X184127857Y-137243571D02*
X184127857Y-135743571D01*
X184127857Y-136315000D02*
X184270714Y-136243571D01*
X184556428Y-136243571D01*
X184699285Y-136315000D01*
X184770714Y-136386428D01*
X184842142Y-136529285D01*
X184842142Y-136957857D01*
X184770714Y-137100714D01*
X184699285Y-137172142D01*
X184556428Y-137243571D01*
X184270714Y-137243571D01*
X184127857Y-137172142D01*
X185699285Y-137243571D02*
X185556428Y-137172142D01*
X185485000Y-137100714D01*
X185413571Y-136957857D01*
X185413571Y-136529285D01*
X185485000Y-136386428D01*
X185556428Y-136315000D01*
X185699285Y-136243571D01*
X185913571Y-136243571D01*
X186056428Y-136315000D01*
X186127857Y-136386428D01*
X186199285Y-136529285D01*
X186199285Y-136957857D01*
X186127857Y-137100714D01*
X186056428Y-137172142D01*
X185913571Y-137243571D01*
X185699285Y-137243571D01*
X186627857Y-136243571D02*
X187199285Y-136243571D01*
X186842142Y-135743571D02*
X186842142Y-137029285D01*
X186913571Y-137172142D01*
X187056428Y-137243571D01*
X187199285Y-137243571D01*
X187485000Y-136243571D02*
X188056428Y-136243571D01*
X187699285Y-135743571D02*
X187699285Y-137029285D01*
X187770714Y-137172142D01*
X187913571Y-137243571D01*
X188056428Y-137243571D01*
X188770714Y-137243571D02*
X188627857Y-137172142D01*
X188556428Y-137100714D01*
X188485000Y-136957857D01*
X188485000Y-136529285D01*
X188556428Y-136386428D01*
X188627857Y-136315000D01*
X188770714Y-136243571D01*
X188985000Y-136243571D01*
X189127857Y-136315000D01*
X189199285Y-136386428D01*
X189270714Y-136529285D01*
X189270714Y-136957857D01*
X189199285Y-137100714D01*
X189127857Y-137172142D01*
X188985000Y-137243571D01*
X188770714Y-137243571D01*
X189913571Y-137243571D02*
X189913571Y-136243571D01*
X189913571Y-136386428D02*
X189985000Y-136315000D01*
X190127857Y-136243571D01*
X190342142Y-136243571D01*
X190485000Y-136315000D01*
X190556428Y-136457857D01*
X190556428Y-137243571D01*
X190556428Y-136457857D02*
X190627857Y-136315000D01*
X190770714Y-136243571D01*
X190985000Y-136243571D01*
X191127857Y-136315000D01*
X191199285Y-136457857D01*
X191199285Y-137243571D01*
X193056428Y-136243571D02*
X193056428Y-137743571D01*
X193056428Y-136315000D02*
X193199285Y-136243571D01*
X193485000Y-136243571D01*
X193627857Y-136315000D01*
X193699285Y-136386428D01*
X193770714Y-136529285D01*
X193770714Y-136957857D01*
X193699285Y-137100714D01*
X193627857Y-137172142D01*
X193485000Y-137243571D01*
X193199285Y-137243571D01*
X193056428Y-137172142D01*
X194627857Y-137243571D02*
X194485000Y-137172142D01*
X194413571Y-137029285D01*
X194413571Y-135743571D01*
X195842142Y-137243571D02*
X195842142Y-136457857D01*
X195770714Y-136315000D01*
X195627857Y-136243571D01*
X195342142Y-136243571D01*
X195199285Y-136315000D01*
X195842142Y-137172142D02*
X195699285Y-137243571D01*
X195342142Y-137243571D01*
X195199285Y-137172142D01*
X195127857Y-137029285D01*
X195127857Y-136886428D01*
X195199285Y-136743571D01*
X195342142Y-136672142D01*
X195699285Y-136672142D01*
X195842142Y-136600714D01*
X196342142Y-136243571D02*
X196913571Y-136243571D01*
X196556428Y-135743571D02*
X196556428Y-137029285D01*
X196627857Y-137172142D01*
X196770714Y-137243571D01*
X196913571Y-137243571D01*
X197985000Y-137172142D02*
X197842142Y-137243571D01*
X197556428Y-137243571D01*
X197413571Y-137172142D01*
X197342142Y-137029285D01*
X197342142Y-136457857D01*
X197413571Y-136315000D01*
X197556428Y-136243571D01*
X197842142Y-136243571D01*
X197985000Y-136315000D01*
X198056428Y-136457857D01*
X198056428Y-136600714D01*
X197342142Y-136743571D01*
X199842142Y-137243571D02*
X199842142Y-136243571D01*
X199842142Y-136529285D02*
X199913571Y-136386428D01*
X199985000Y-136315000D01*
X200127857Y-136243571D01*
X200270714Y-136243571D01*
X201342142Y-137172142D02*
X201199285Y-137243571D01*
X200913571Y-137243571D01*
X200770714Y-137172142D01*
X200699285Y-137029285D01*
X200699285Y-136457857D01*
X200770714Y-136315000D01*
X200913571Y-136243571D01*
X201199285Y-136243571D01*
X201342142Y-136315000D01*
X201413571Y-136457857D01*
X201413571Y-136600714D01*
X200699285Y-136743571D01*
X201913571Y-136243571D02*
X202270714Y-137243571D01*
X202627857Y-136243571D01*
X203199285Y-137100714D02*
X203270714Y-137172142D01*
X203199285Y-137243571D01*
X203127857Y-137172142D01*
X203199285Y-137100714D01*
X203199285Y-137243571D01*
X204699285Y-137243571D02*
X203842142Y-137243571D01*
X204270714Y-137243571D02*
X204270714Y-135743571D01*
X204127857Y-135957857D01*
X203985000Y-136100714D01*
X203842142Y-136172142D01*
D11*
%LPC*%
D12*
X118750000Y-121125000D03*
X190000000Y-64125000D03*
X123500000Y-64125000D03*
X185250000Y-121125000D03*
X76000000Y-121125000D03*
X57000000Y-64125000D03*
M02*
