G04 #@! TF.GenerationSoftware,KiCad,Pcbnew,5.1.2-f72e74a~84~ubuntu18.04.1*
G04 #@! TF.CreationDate,2019-06-17T18:23:15+09:00*
G04 #@! TF.ProjectId,right-bottom,72696768-742d-4626-9f74-746f6d2e6b69,rev?*
G04 #@! TF.SameCoordinates,Original*
G04 #@! TF.FileFunction,Soldermask,Top*
G04 #@! TF.FilePolarity,Negative*
%FSLAX46Y46*%
G04 Gerber Fmt 4.6, Leading zero omitted, Abs format (unit mm)*
G04 Created by KiCad (PCBNEW 5.1.2-f72e74a~84~ubuntu18.04.1) date 2019-06-17 18:23:15*
%MOMM*%
%LPD*%
G04 APERTURE LIST*
%ADD10C,0.100000*%
G04 APERTURE END LIST*
D10*
G36*
X185474549Y-119996116D02*
G01*
X185585734Y-120018232D01*
X185795203Y-120104997D01*
X185983720Y-120230960D01*
X186144040Y-120391280D01*
X186270003Y-120579797D01*
X186356768Y-120789266D01*
X186401000Y-121011636D01*
X186401000Y-121238364D01*
X186356768Y-121460734D01*
X186270003Y-121670203D01*
X186144040Y-121858720D01*
X185983720Y-122019040D01*
X185795203Y-122145003D01*
X185585734Y-122231768D01*
X185474549Y-122253884D01*
X185363365Y-122276000D01*
X185136635Y-122276000D01*
X185025451Y-122253884D01*
X184914266Y-122231768D01*
X184704797Y-122145003D01*
X184516280Y-122019040D01*
X184355960Y-121858720D01*
X184229997Y-121670203D01*
X184143232Y-121460734D01*
X184099000Y-121238364D01*
X184099000Y-121011636D01*
X184143232Y-120789266D01*
X184229997Y-120579797D01*
X184355960Y-120391280D01*
X184516280Y-120230960D01*
X184704797Y-120104997D01*
X184914266Y-120018232D01*
X185025451Y-119996116D01*
X185136635Y-119974000D01*
X185363365Y-119974000D01*
X185474549Y-119996116D01*
X185474549Y-119996116D01*
G37*
G36*
X118974549Y-119996116D02*
G01*
X119085734Y-120018232D01*
X119295203Y-120104997D01*
X119483720Y-120230960D01*
X119644040Y-120391280D01*
X119770003Y-120579797D01*
X119856768Y-120789266D01*
X119901000Y-121011636D01*
X119901000Y-121238364D01*
X119856768Y-121460734D01*
X119770003Y-121670203D01*
X119644040Y-121858720D01*
X119483720Y-122019040D01*
X119295203Y-122145003D01*
X119085734Y-122231768D01*
X118974549Y-122253884D01*
X118863365Y-122276000D01*
X118636635Y-122276000D01*
X118525451Y-122253884D01*
X118414266Y-122231768D01*
X118204797Y-122145003D01*
X118016280Y-122019040D01*
X117855960Y-121858720D01*
X117729997Y-121670203D01*
X117643232Y-121460734D01*
X117599000Y-121238364D01*
X117599000Y-121011636D01*
X117643232Y-120789266D01*
X117729997Y-120579797D01*
X117855960Y-120391280D01*
X118016280Y-120230960D01*
X118204797Y-120104997D01*
X118414266Y-120018232D01*
X118525451Y-119996116D01*
X118636635Y-119974000D01*
X118863365Y-119974000D01*
X118974549Y-119996116D01*
X118974549Y-119996116D01*
G37*
G36*
X76224549Y-119996116D02*
G01*
X76335734Y-120018232D01*
X76545203Y-120104997D01*
X76733720Y-120230960D01*
X76894040Y-120391280D01*
X77020003Y-120579797D01*
X77106768Y-120789266D01*
X77151000Y-121011636D01*
X77151000Y-121238364D01*
X77106768Y-121460734D01*
X77020003Y-121670203D01*
X76894040Y-121858720D01*
X76733720Y-122019040D01*
X76545203Y-122145003D01*
X76335734Y-122231768D01*
X76224549Y-122253884D01*
X76113365Y-122276000D01*
X75886635Y-122276000D01*
X75775451Y-122253884D01*
X75664266Y-122231768D01*
X75454797Y-122145003D01*
X75266280Y-122019040D01*
X75105960Y-121858720D01*
X74979997Y-121670203D01*
X74893232Y-121460734D01*
X74849000Y-121238364D01*
X74849000Y-121011636D01*
X74893232Y-120789266D01*
X74979997Y-120579797D01*
X75105960Y-120391280D01*
X75266280Y-120230960D01*
X75454797Y-120104997D01*
X75664266Y-120018232D01*
X75775451Y-119996116D01*
X75886635Y-119974000D01*
X76113365Y-119974000D01*
X76224549Y-119996116D01*
X76224549Y-119996116D01*
G37*
G36*
X190224549Y-62996116D02*
G01*
X190335734Y-63018232D01*
X190545203Y-63104997D01*
X190733720Y-63230960D01*
X190894040Y-63391280D01*
X191020003Y-63579797D01*
X191106768Y-63789266D01*
X191151000Y-64011636D01*
X191151000Y-64238364D01*
X191106768Y-64460734D01*
X191020003Y-64670203D01*
X190894040Y-64858720D01*
X190733720Y-65019040D01*
X190545203Y-65145003D01*
X190335734Y-65231768D01*
X190224549Y-65253884D01*
X190113365Y-65276000D01*
X189886635Y-65276000D01*
X189775451Y-65253884D01*
X189664266Y-65231768D01*
X189454797Y-65145003D01*
X189266280Y-65019040D01*
X189105960Y-64858720D01*
X188979997Y-64670203D01*
X188893232Y-64460734D01*
X188849000Y-64238364D01*
X188849000Y-64011636D01*
X188893232Y-63789266D01*
X188979997Y-63579797D01*
X189105960Y-63391280D01*
X189266280Y-63230960D01*
X189454797Y-63104997D01*
X189664266Y-63018232D01*
X189775451Y-62996116D01*
X189886635Y-62974000D01*
X190113365Y-62974000D01*
X190224549Y-62996116D01*
X190224549Y-62996116D01*
G37*
G36*
X123724549Y-62996116D02*
G01*
X123835734Y-63018232D01*
X124045203Y-63104997D01*
X124233720Y-63230960D01*
X124394040Y-63391280D01*
X124520003Y-63579797D01*
X124606768Y-63789266D01*
X124651000Y-64011636D01*
X124651000Y-64238364D01*
X124606768Y-64460734D01*
X124520003Y-64670203D01*
X124394040Y-64858720D01*
X124233720Y-65019040D01*
X124045203Y-65145003D01*
X123835734Y-65231768D01*
X123724549Y-65253884D01*
X123613365Y-65276000D01*
X123386635Y-65276000D01*
X123275451Y-65253884D01*
X123164266Y-65231768D01*
X122954797Y-65145003D01*
X122766280Y-65019040D01*
X122605960Y-64858720D01*
X122479997Y-64670203D01*
X122393232Y-64460734D01*
X122349000Y-64238364D01*
X122349000Y-64011636D01*
X122393232Y-63789266D01*
X122479997Y-63579797D01*
X122605960Y-63391280D01*
X122766280Y-63230960D01*
X122954797Y-63104997D01*
X123164266Y-63018232D01*
X123275451Y-62996116D01*
X123386635Y-62974000D01*
X123613365Y-62974000D01*
X123724549Y-62996116D01*
X123724549Y-62996116D01*
G37*
G36*
X57224549Y-62996116D02*
G01*
X57335734Y-63018232D01*
X57545203Y-63104997D01*
X57733720Y-63230960D01*
X57894040Y-63391280D01*
X58020003Y-63579797D01*
X58106768Y-63789266D01*
X58151000Y-64011636D01*
X58151000Y-64238364D01*
X58106768Y-64460734D01*
X58020003Y-64670203D01*
X57894040Y-64858720D01*
X57733720Y-65019040D01*
X57545203Y-65145003D01*
X57335734Y-65231768D01*
X57224549Y-65253884D01*
X57113365Y-65276000D01*
X56886635Y-65276000D01*
X56775451Y-65253884D01*
X56664266Y-65231768D01*
X56454797Y-65145003D01*
X56266280Y-65019040D01*
X56105960Y-64858720D01*
X55979997Y-64670203D01*
X55893232Y-64460734D01*
X55849000Y-64238364D01*
X55849000Y-64011636D01*
X55893232Y-63789266D01*
X55979997Y-63579797D01*
X56105960Y-63391280D01*
X56266280Y-63230960D01*
X56454797Y-63104997D01*
X56664266Y-63018232D01*
X56775451Y-62996116D01*
X56886635Y-62974000D01*
X57113365Y-62974000D01*
X57224549Y-62996116D01*
X57224549Y-62996116D01*
G37*
M02*
