G04 #@! TF.GenerationSoftware,KiCad,Pcbnew,5.1.2-f72e74a~84~ubuntu18.04.1*
G04 #@! TF.CreationDate,2019-06-18T11:54:42+09:00*
G04 #@! TF.ProjectId,right-top-mirror,72696768-742d-4746-9f70-2d6d6972726f,rev?*
G04 #@! TF.SameCoordinates,Original*
G04 #@! TF.FileFunction,Profile,NP*
%FSLAX46Y46*%
G04 Gerber Fmt 4.6, Leading zero omitted, Abs format (unit mm)*
G04 Created by KiCad (PCBNEW 5.1.2-f72e74a~84~ubuntu18.04.1) date 2019-06-18 11:54:42*
%MOMM*%
%LPD*%
G04 APERTURE LIST*
%ADD10C,0.050000*%
%ADD11C,0.100000*%
G04 APERTURE END LIST*
D10*
X204250000Y-42750000D02*
X230375000Y-42750000D01*
X61750000Y-135375000D02*
G75*
G03X64125000Y-137750000I2375000J0D01*
G01*
X64125000Y-42750000D02*
G75*
G03X61750000Y-45125000I0J-2375000D01*
G01*
X232750000Y-45125000D02*
G75*
G03X230375000Y-42750000I-2375000J0D01*
G01*
X232750000Y-59375000D02*
X232750000Y-45125000D01*
X204250000Y-42750000D02*
X64125000Y-42750000D01*
X61750000Y-45125000D02*
X61750000Y-135375000D01*
X213750000Y-135375000D02*
X213750000Y-121125000D01*
X209000000Y-118750000D02*
X211375000Y-118750000D01*
X209000000Y-118750000D02*
X209000000Y-99750000D01*
X209000000Y-99750000D02*
X216125000Y-99750000D01*
X218500000Y-97375000D02*
X218500000Y-80750000D01*
X218500000Y-80750000D02*
X220875000Y-80750000D01*
X223250000Y-78375000D02*
X223250000Y-61750000D01*
X223250000Y-61750000D02*
X230375000Y-61750000D01*
X64125000Y-137750000D02*
X211375000Y-137750000D01*
X211375000Y-137750000D02*
G75*
G03X213750000Y-135375000I0J2375000D01*
G01*
X213750000Y-121125000D02*
G75*
G03X211375000Y-118750000I-2375000J0D01*
G01*
X216125000Y-99750000D02*
G75*
G03X218500000Y-97375000I0J2375000D01*
G01*
X220875000Y-80750000D02*
G75*
G03X223250000Y-78375000I0J2375000D01*
G01*
X230375000Y-61750000D02*
G75*
G03X232750000Y-59375000I0J2375000D01*
G01*
D11*
X173500000Y-102250000D02*
X187500000Y-102250000D01*
X187500000Y-102250000D02*
X187500000Y-116250000D01*
X187500000Y-116250000D02*
X173500000Y-116250000D01*
X173500000Y-116250000D02*
X173500000Y-102250000D01*
X111750000Y-64250000D02*
X125750000Y-64250000D01*
X125750000Y-64250000D02*
X125750000Y-78250000D01*
X125750000Y-78250000D02*
X111750000Y-78250000D01*
X111750000Y-78250000D02*
X111750000Y-64250000D01*
X168750000Y-64250000D02*
X182750000Y-64250000D01*
X182750000Y-64250000D02*
X182750000Y-78250000D01*
X182750000Y-78250000D02*
X168750000Y-78250000D01*
X168750000Y-78250000D02*
X168750000Y-64250000D01*
X178250000Y-45250000D02*
X192250000Y-45250000D01*
X192250000Y-45250000D02*
X192250000Y-59250000D01*
X192250000Y-59250000D02*
X178250000Y-59250000D01*
X178250000Y-59250000D02*
X178250000Y-45250000D01*
X159250000Y-45250000D02*
X173250000Y-45250000D01*
X173250000Y-45250000D02*
X173250000Y-59250000D01*
X173250000Y-59250000D02*
X159250000Y-59250000D01*
X159250000Y-59250000D02*
X159250000Y-45250000D01*
X107000000Y-83250000D02*
X121000000Y-83250000D01*
X121000000Y-83250000D02*
X121000000Y-97250000D01*
X121000000Y-97250000D02*
X107000000Y-97250000D01*
X107000000Y-97250000D02*
X107000000Y-83250000D01*
X130750000Y-64250000D02*
X144750000Y-64250000D01*
X144750000Y-64250000D02*
X144750000Y-78250000D01*
X144750000Y-78250000D02*
X130750000Y-78250000D01*
X130750000Y-78250000D02*
X130750000Y-64250000D01*
X88000000Y-83250000D02*
X102000000Y-83250000D01*
X102000000Y-83250000D02*
X102000000Y-97250000D01*
X102000000Y-97250000D02*
X88000000Y-97250000D01*
X88000000Y-97250000D02*
X88000000Y-83250000D01*
X116500000Y-102250000D02*
X130500000Y-102250000D01*
X130500000Y-102250000D02*
X130500000Y-116250000D01*
X130500000Y-116250000D02*
X116500000Y-116250000D01*
X116500000Y-116250000D02*
X116500000Y-102250000D01*
X216250000Y-45250000D02*
X230250000Y-45250000D01*
X230250000Y-45250000D02*
X230250000Y-59250000D01*
X230250000Y-59250000D02*
X216250000Y-59250000D01*
X216250000Y-59250000D02*
X216250000Y-45250000D01*
X92750000Y-64250000D02*
X106750000Y-64250000D01*
X106750000Y-64250000D02*
X106750000Y-78250000D01*
X106750000Y-78250000D02*
X92750000Y-78250000D01*
X92750000Y-78250000D02*
X92750000Y-64250000D01*
X192500000Y-102250000D02*
X206500000Y-102250000D01*
X206500000Y-102250000D02*
X206500000Y-116250000D01*
X206500000Y-116250000D02*
X192500000Y-116250000D01*
X192500000Y-116250000D02*
X192500000Y-102250000D01*
X71375000Y-102250000D02*
X85375000Y-102250000D01*
X85375000Y-102250000D02*
X85375000Y-116250000D01*
X85375000Y-116250000D02*
X71375000Y-116250000D01*
X71375000Y-116250000D02*
X71375000Y-102250000D01*
X197250000Y-45250000D02*
X211250000Y-45250000D01*
X211250000Y-45250000D02*
X211250000Y-59250000D01*
X211250000Y-59250000D02*
X197250000Y-59250000D01*
X197250000Y-59250000D02*
X197250000Y-45250000D01*
X66625000Y-73750000D02*
X80625000Y-73750000D01*
X80625000Y-73750000D02*
X80625000Y-87750000D01*
X80625000Y-87750000D02*
X66625000Y-87750000D01*
X66625000Y-87750000D02*
X66625000Y-73750000D01*
X206750000Y-64250000D02*
X220750000Y-64250000D01*
X220750000Y-64250000D02*
X220750000Y-78250000D01*
X220750000Y-78250000D02*
X206750000Y-78250000D01*
X206750000Y-78250000D02*
X206750000Y-64250000D01*
X154500000Y-102250000D02*
X168500000Y-102250000D01*
X168500000Y-102250000D02*
X168500000Y-116250000D01*
X168500000Y-116250000D02*
X154500000Y-116250000D01*
X154500000Y-116250000D02*
X154500000Y-102250000D01*
X126000000Y-83250000D02*
X140000000Y-83250000D01*
X140000000Y-83250000D02*
X140000000Y-97250000D01*
X140000000Y-97250000D02*
X126000000Y-97250000D01*
X126000000Y-97250000D02*
X126000000Y-83250000D01*
X187750000Y-64250000D02*
X201750000Y-64250000D01*
X201750000Y-64250000D02*
X201750000Y-78250000D01*
X201750000Y-78250000D02*
X187750000Y-78250000D01*
X187750000Y-78250000D02*
X187750000Y-64250000D01*
X164000000Y-83250000D02*
X178000000Y-83250000D01*
X178000000Y-83250000D02*
X178000000Y-97250000D01*
X178000000Y-97250000D02*
X164000000Y-97250000D01*
X164000000Y-97250000D02*
X164000000Y-83250000D01*
X202000000Y-83250000D02*
X216000000Y-83250000D01*
X216000000Y-83250000D02*
X216000000Y-97250000D01*
X216000000Y-97250000D02*
X202000000Y-97250000D01*
X202000000Y-97250000D02*
X202000000Y-83250000D01*
X183000000Y-83250000D02*
X197000000Y-83250000D01*
X197000000Y-83250000D02*
X197000000Y-97250000D01*
X197000000Y-97250000D02*
X183000000Y-97250000D01*
X183000000Y-97250000D02*
X183000000Y-83250000D01*
X149750000Y-64250000D02*
X163750000Y-64250000D01*
X163750000Y-64250000D02*
X163750000Y-78250000D01*
X163750000Y-78250000D02*
X149750000Y-78250000D01*
X149750000Y-78250000D02*
X149750000Y-64250000D01*
X145000000Y-83250000D02*
X159000000Y-83250000D01*
X159000000Y-83250000D02*
X159000000Y-97250000D01*
X159000000Y-97250000D02*
X145000000Y-97250000D01*
X145000000Y-97250000D02*
X145000000Y-83250000D01*
X88000000Y-121250000D02*
X102000000Y-121250000D01*
X102000000Y-121250000D02*
X102000000Y-135250000D01*
X102000000Y-135250000D02*
X88000000Y-135250000D01*
X88000000Y-135250000D02*
X88000000Y-121250000D01*
X66625000Y-121250000D02*
X80625000Y-121250000D01*
X80625000Y-121250000D02*
X80625000Y-135250000D01*
X80625000Y-135250000D02*
X66625000Y-135250000D01*
X66625000Y-135250000D02*
X66625000Y-121250000D01*
X64250000Y-45250000D02*
X78250000Y-45250000D01*
X78250000Y-45250000D02*
X78250000Y-59250000D01*
X78250000Y-59250000D02*
X64250000Y-59250000D01*
X64250000Y-59250000D02*
X64250000Y-45250000D01*
X83250000Y-45250000D02*
X97250000Y-45250000D01*
X97250000Y-45250000D02*
X97250000Y-59250000D01*
X97250000Y-59250000D02*
X83250000Y-59250000D01*
X83250000Y-59250000D02*
X83250000Y-45250000D01*
X102250000Y-45250000D02*
X116250000Y-45250000D01*
X116250000Y-45250000D02*
X116250000Y-59250000D01*
X116250000Y-59250000D02*
X102250000Y-59250000D01*
X102250000Y-59250000D02*
X102250000Y-45250000D01*
X121250000Y-45250000D02*
X135250000Y-45250000D01*
X135250000Y-45250000D02*
X135250000Y-59250000D01*
X135250000Y-59250000D02*
X121250000Y-59250000D01*
X121250000Y-59250000D02*
X121250000Y-45250000D01*
X97500000Y-102250000D02*
X111500000Y-102250000D01*
X111500000Y-102250000D02*
X111500000Y-116250000D01*
X111500000Y-116250000D02*
X97500000Y-116250000D01*
X97500000Y-116250000D02*
X97500000Y-102250000D01*
X140250000Y-45250000D02*
X154250000Y-45250000D01*
X154250000Y-45250000D02*
X154250000Y-59250000D01*
X154250000Y-59250000D02*
X140250000Y-59250000D01*
X140250000Y-59250000D02*
X140250000Y-45250000D01*
X135500000Y-102250000D02*
X149500000Y-102250000D01*
X149500000Y-102250000D02*
X149500000Y-116250000D01*
X149500000Y-116250000D02*
X135500000Y-116250000D01*
X135500000Y-116250000D02*
X135500000Y-102250000D01*
X197250000Y-121250000D02*
X211250000Y-121250000D01*
X211250000Y-121250000D02*
X211250000Y-135250000D01*
X211250000Y-135250000D02*
X197250000Y-135250000D01*
X197250000Y-135250000D02*
X197250000Y-121250000D01*
X133125000Y-121250000D02*
X147125000Y-121250000D01*
X147125000Y-121250000D02*
X147125000Y-135250000D01*
X147125000Y-135250000D02*
X133125000Y-135250000D01*
X133125000Y-135250000D02*
X133125000Y-121250000D01*
X178250000Y-121250000D02*
X192250000Y-121250000D01*
X192250000Y-121250000D02*
X192250000Y-135250000D01*
X192250000Y-135250000D02*
X178250000Y-135250000D01*
X178250000Y-135250000D02*
X178250000Y-121250000D01*
X109375000Y-121250000D02*
X123375000Y-121250000D01*
X123375000Y-121250000D02*
X123375000Y-135250000D01*
X123375000Y-135250000D02*
X109375000Y-135250000D01*
X109375000Y-135250000D02*
X109375000Y-121250000D01*
X156875000Y-121250000D02*
X170875000Y-121250000D01*
X170875000Y-121250000D02*
X170875000Y-135250000D01*
X170875000Y-135250000D02*
X156875000Y-135250000D01*
X156875000Y-135250000D02*
X156875000Y-121250000D01*
M02*
