G04 #@! TF.GenerationSoftware,KiCad,Pcbnew,5.1.2-f72e74a~84~ubuntu18.04.1*
G04 #@! TF.CreationDate,2019-06-18T11:54:42+09:00*
G04 #@! TF.ProjectId,right-top-mirror,72696768-742d-4746-9f70-2d6d6972726f,rev?*
G04 #@! TF.SameCoordinates,Original*
G04 #@! TF.FileFunction,Legend,Top*
G04 #@! TF.FilePolarity,Positive*
%FSLAX46Y46*%
G04 Gerber Fmt 4.6, Leading zero omitted, Abs format (unit mm)*
G04 Created by KiCad (PCBNEW 5.1.2-f72e74a~84~ubuntu18.04.1) date 2019-06-18 11:54:42*
%MOMM*%
%LPD*%
G04 APERTURE LIST*
%ADD10C,0.300000*%
%ADD11C,3.802000*%
%ADD12O,0.406800X3.150000*%
%ADD13O,0.406800X6.756800*%
%ADD14O,12.395600X0.406800*%
%ADD15O,2.896000X0.406800*%
%ADD16O,1.575200X0.406800*%
%ADD17O,0.406800X1.270400*%
G04 APERTURE END LIST*
D10*
X65821428Y-106857142D02*
X66821428Y-106857142D01*
X66535714Y-106857142D02*
X66678571Y-106928571D01*
X66750000Y-107000000D01*
X66821428Y-107142857D01*
X66821428Y-107285714D01*
X65892857Y-108357142D02*
X65821428Y-108214285D01*
X65821428Y-107928571D01*
X65892857Y-107785714D01*
X66035714Y-107714285D01*
X66607142Y-107714285D01*
X66750000Y-107785714D01*
X66821428Y-107928571D01*
X66821428Y-108214285D01*
X66750000Y-108357142D01*
X66607142Y-108428571D01*
X66464285Y-108428571D01*
X66321428Y-107714285D01*
X66821428Y-108928571D02*
X65821428Y-109285714D01*
X66821428Y-109642857D01*
X65964285Y-110214285D02*
X65892857Y-110285714D01*
X65821428Y-110214285D01*
X65892857Y-110142857D01*
X65964285Y-110214285D01*
X65821428Y-110214285D01*
X65821428Y-111714285D02*
X65821428Y-110857142D01*
X65821428Y-111285714D02*
X67321428Y-111285714D01*
X67107142Y-111142857D01*
X66964285Y-111000000D01*
X66892857Y-110857142D01*
%LPC*%
D11*
X147250000Y-61750000D03*
X152000000Y-118750000D03*
X80750000Y-61750000D03*
X85500000Y-118750000D03*
X194750000Y-118750000D03*
X213750000Y-61750000D03*
D12*
X65852600Y-68812000D03*
D13*
X79162200Y-68812000D03*
D14*
X73167800Y-71987000D03*
D13*
X67173400Y-68812000D03*
D14*
X73167800Y-65637000D03*
D15*
X74514000Y-64773400D03*
D16*
X66513000Y-70183600D03*
D17*
X75758600Y-65205200D03*
D16*
X66513000Y-67440400D03*
D17*
X73269400Y-65205200D03*
D13*
X79162200Y-92688000D03*
D17*
X75758600Y-96294800D03*
D15*
X74514000Y-96726600D03*
D14*
X73167800Y-95863000D03*
X73167800Y-89513000D03*
D13*
X67173400Y-92688000D03*
D17*
X73269400Y-96294800D03*
D16*
X66513000Y-94059600D03*
X66513000Y-91316400D03*
D12*
X65852600Y-92688000D03*
M02*
