M48
; DRILL file {KiCad 5.1.2-f72e74a~84~ubuntu18.04.1} date 2019年06月18日 11時54分38秒
; FORMAT={-:-/ absolute / metric / decimal}
; #@! TF.CreationDate,2019-06-18T11:54:38+09:00
; #@! TF.GenerationSoftware,Kicad,Pcbnew,5.1.2-f72e74a~84~ubuntu18.04.1
; #@! TF.FileFunction,NonPlated,1,2,NPTH
FMAT,2
METRIC
T1C0.305
T2C3.700
%
G90
G05
T2
X213.75Y-61.75
X147.25Y-61.75
X85.5Y-118.75
X152.0Y-118.75
X194.75Y-118.75
X80.75Y-61.75
T1
G00X65.853Y-70.184
M15
G01X65.853Y-67.44
M16
G05
G00X65.853Y-94.06
M15
G01X65.853Y-91.316
M16
G05
G00X65.929Y-67.44
M15
G01X67.097Y-67.44
M16
G05
G00X65.929Y-70.184
M15
G01X67.097Y-70.184
M16
G05
G00X65.929Y-91.316
M15
G01X67.097Y-91.316
M16
G05
G00X65.929Y-94.06
M15
G01X67.097Y-94.06
M16
G05
G00X67.173Y-71.987
M15
G01X67.173Y-65.637
M16
G05
G00X67.173Y-95.863
M15
G01X67.173Y-89.513
M16
G05
G00X67.173Y-65.637
M15
G01X79.162Y-65.637
M16
G05
G00X67.173Y-71.987
M15
G01X79.162Y-71.987
M16
G05
G00X67.173Y-89.513
M15
G01X79.162Y-89.513
M16
G05
G00X67.173Y-95.863
M15
G01X79.162Y-95.863
M16
G05
G00X73.269Y-65.637
M15
G01X73.269Y-64.773
M16
G05
G00X73.269Y-96.727
M15
G01X73.269Y-95.863
M16
G05
G00X73.269Y-64.773
M15
G01X75.759Y-64.773
M16
G05
G00X73.269Y-96.727
M15
G01X75.759Y-96.727
M16
G05
G00X75.759Y-65.637
M15
G01X75.759Y-64.773
M16
G05
G00X75.759Y-96.727
M15
G01X75.759Y-95.863
M16
G05
G00X79.162Y-71.987
M15
G01X79.162Y-65.637
M16
G05
G00X79.162Y-95.863
M15
G01X79.162Y-89.513
M16
G05
T0
M30
