G04 #@! TF.GenerationSoftware,KiCad,Pcbnew,5.1.2-f72e74a~84~ubuntu18.04.1*
G04 #@! TF.CreationDate,2019-06-18T11:54:42+09:00*
G04 #@! TF.ProjectId,right-top-mirror,72696768-742d-4746-9f70-2d6d6972726f,rev?*
G04 #@! TF.SameCoordinates,Original*
G04 #@! TF.FileFunction,Soldermask,Top*
G04 #@! TF.FilePolarity,Negative*
%FSLAX46Y46*%
G04 Gerber Fmt 4.6, Leading zero omitted, Abs format (unit mm)*
G04 Created by KiCad (PCBNEW 5.1.2-f72e74a~84~ubuntu18.04.1) date 2019-06-18 11:54:42*
%MOMM*%
%LPD*%
G04 APERTURE LIST*
%ADD10C,0.100000*%
G04 APERTURE END LIST*
D10*
G36*
X85870866Y-116885527D02*
G01*
X86054501Y-116922054D01*
X86400461Y-117065356D01*
X86711817Y-117273397D01*
X86976603Y-117538183D01*
X87184644Y-117849539D01*
X87327946Y-118195499D01*
X87401000Y-118562768D01*
X87401000Y-118937232D01*
X87327946Y-119304501D01*
X87184644Y-119650461D01*
X86976603Y-119961817D01*
X86711817Y-120226603D01*
X86400461Y-120434644D01*
X86054501Y-120577946D01*
X85870866Y-120614473D01*
X85687233Y-120651000D01*
X85312767Y-120651000D01*
X85129134Y-120614473D01*
X84945499Y-120577946D01*
X84599539Y-120434644D01*
X84288183Y-120226603D01*
X84023397Y-119961817D01*
X83815356Y-119650461D01*
X83672054Y-119304501D01*
X83599000Y-118937232D01*
X83599000Y-118562768D01*
X83672054Y-118195499D01*
X83815356Y-117849539D01*
X84023397Y-117538183D01*
X84288183Y-117273397D01*
X84599539Y-117065356D01*
X84945499Y-116922054D01*
X85129134Y-116885527D01*
X85312767Y-116849000D01*
X85687233Y-116849000D01*
X85870866Y-116885527D01*
X85870866Y-116885527D01*
G37*
G36*
X195120866Y-116885527D02*
G01*
X195304501Y-116922054D01*
X195650461Y-117065356D01*
X195961817Y-117273397D01*
X196226603Y-117538183D01*
X196434644Y-117849539D01*
X196577946Y-118195499D01*
X196651000Y-118562768D01*
X196651000Y-118937232D01*
X196577946Y-119304501D01*
X196434644Y-119650461D01*
X196226603Y-119961817D01*
X195961817Y-120226603D01*
X195650461Y-120434644D01*
X195304501Y-120577946D01*
X195120866Y-120614473D01*
X194937233Y-120651000D01*
X194562767Y-120651000D01*
X194379134Y-120614473D01*
X194195499Y-120577946D01*
X193849539Y-120434644D01*
X193538183Y-120226603D01*
X193273397Y-119961817D01*
X193065356Y-119650461D01*
X192922054Y-119304501D01*
X192849000Y-118937232D01*
X192849000Y-118562768D01*
X192922054Y-118195499D01*
X193065356Y-117849539D01*
X193273397Y-117538183D01*
X193538183Y-117273397D01*
X193849539Y-117065356D01*
X194195499Y-116922054D01*
X194379134Y-116885527D01*
X194562767Y-116849000D01*
X194937233Y-116849000D01*
X195120866Y-116885527D01*
X195120866Y-116885527D01*
G37*
G36*
X152370866Y-116885527D02*
G01*
X152554501Y-116922054D01*
X152900461Y-117065356D01*
X153211817Y-117273397D01*
X153476603Y-117538183D01*
X153684644Y-117849539D01*
X153827946Y-118195499D01*
X153901000Y-118562768D01*
X153901000Y-118937232D01*
X153827946Y-119304501D01*
X153684644Y-119650461D01*
X153476603Y-119961817D01*
X153211817Y-120226603D01*
X152900461Y-120434644D01*
X152554501Y-120577946D01*
X152370866Y-120614473D01*
X152187233Y-120651000D01*
X151812767Y-120651000D01*
X151629134Y-120614473D01*
X151445499Y-120577946D01*
X151099539Y-120434644D01*
X150788183Y-120226603D01*
X150523397Y-119961817D01*
X150315356Y-119650461D01*
X150172054Y-119304501D01*
X150099000Y-118937232D01*
X150099000Y-118562768D01*
X150172054Y-118195499D01*
X150315356Y-117849539D01*
X150523397Y-117538183D01*
X150788183Y-117273397D01*
X151099539Y-117065356D01*
X151445499Y-116922054D01*
X151629134Y-116885527D01*
X151812767Y-116849000D01*
X152187233Y-116849000D01*
X152370866Y-116885527D01*
X152370866Y-116885527D01*
G37*
G36*
X79172191Y-89309600D02*
G01*
X79202073Y-89312543D01*
X79240414Y-89324174D01*
X79275750Y-89343061D01*
X79306721Y-89368479D01*
X79332139Y-89399450D01*
X79351026Y-89434786D01*
X79362657Y-89473127D01*
X79366584Y-89513000D01*
X79366201Y-89516888D01*
X79365600Y-89529122D01*
X79365600Y-95846878D01*
X79366201Y-95859112D01*
X79366584Y-95863000D01*
X79362657Y-95902873D01*
X79351026Y-95941214D01*
X79332139Y-95976550D01*
X79306721Y-96007521D01*
X79275750Y-96032939D01*
X79240414Y-96051826D01*
X79202073Y-96063457D01*
X79172191Y-96066400D01*
X79162200Y-96067384D01*
X79158312Y-96067001D01*
X79146078Y-96066400D01*
X76086999Y-96066400D01*
X76062613Y-96068802D01*
X76039164Y-96075915D01*
X76017553Y-96087466D01*
X75998611Y-96103011D01*
X75983066Y-96121953D01*
X75971515Y-96143564D01*
X75964402Y-96167013D01*
X75962000Y-96191399D01*
X75962000Y-96710478D01*
X75962601Y-96722712D01*
X75962984Y-96726600D01*
X75959057Y-96766473D01*
X75947426Y-96804814D01*
X75928539Y-96840150D01*
X75903121Y-96871121D01*
X75872150Y-96896539D01*
X75836814Y-96915426D01*
X75798473Y-96927057D01*
X75768591Y-96930000D01*
X75758600Y-96930984D01*
X75754712Y-96930601D01*
X75742478Y-96930000D01*
X73285522Y-96930000D01*
X73273288Y-96930601D01*
X73269400Y-96930984D01*
X73259409Y-96930000D01*
X73229527Y-96927057D01*
X73191186Y-96915426D01*
X73155850Y-96896539D01*
X73124879Y-96871121D01*
X73099461Y-96840150D01*
X73080574Y-96804814D01*
X73068943Y-96766473D01*
X73065016Y-96726600D01*
X73065400Y-96722701D01*
X73066001Y-96710468D01*
X73066000Y-96191399D01*
X73472800Y-96191399D01*
X73472800Y-96398201D01*
X73475202Y-96422587D01*
X73482315Y-96446036D01*
X73493866Y-96467647D01*
X73509411Y-96486589D01*
X73528353Y-96502134D01*
X73549964Y-96513685D01*
X73573413Y-96520798D01*
X73597799Y-96523200D01*
X75430202Y-96523200D01*
X75454588Y-96520798D01*
X75478037Y-96513685D01*
X75499648Y-96502134D01*
X75518590Y-96486589D01*
X75534135Y-96467647D01*
X75545686Y-96446036D01*
X75552799Y-96422587D01*
X75555201Y-96398200D01*
X75555200Y-96191398D01*
X75552798Y-96167012D01*
X75545685Y-96143563D01*
X75534134Y-96121953D01*
X75518588Y-96103011D01*
X75499646Y-96087466D01*
X75478035Y-96075915D01*
X75454587Y-96068802D01*
X75430201Y-96066400D01*
X73597799Y-96066400D01*
X73573413Y-96068802D01*
X73549964Y-96075915D01*
X73528353Y-96087466D01*
X73509411Y-96103011D01*
X73493866Y-96121953D01*
X73482315Y-96143564D01*
X73475202Y-96167013D01*
X73472800Y-96191399D01*
X73066000Y-96191399D01*
X73063598Y-96167013D01*
X73056485Y-96143564D01*
X73044934Y-96121953D01*
X73029388Y-96103011D01*
X73010447Y-96087466D01*
X72988836Y-96075915D01*
X72965387Y-96068802D01*
X72941001Y-96066400D01*
X67189522Y-96066400D01*
X67177288Y-96067001D01*
X67173400Y-96067384D01*
X67163409Y-96066400D01*
X67133527Y-96063457D01*
X67095186Y-96051826D01*
X67059850Y-96032939D01*
X67028879Y-96007521D01*
X67003461Y-95976550D01*
X66984574Y-95941214D01*
X66972943Y-95902873D01*
X66969016Y-95863000D01*
X66969400Y-95859101D01*
X66970001Y-95846868D01*
X66970001Y-94387999D01*
X66967599Y-94363613D01*
X66960486Y-94340164D01*
X66948935Y-94318553D01*
X66933390Y-94299611D01*
X66914448Y-94284066D01*
X66892837Y-94272515D01*
X66869388Y-94265402D01*
X66845002Y-94263000D01*
X65918809Y-94263000D01*
X65902939Y-94261437D01*
X65878461Y-94261437D01*
X65852600Y-94263984D01*
X65812728Y-94260057D01*
X65774387Y-94248426D01*
X65739051Y-94229539D01*
X65708080Y-94204121D01*
X65682662Y-94173150D01*
X65663775Y-94137814D01*
X65652144Y-94099473D01*
X65649201Y-94069591D01*
X65649201Y-91644799D01*
X66056000Y-91644799D01*
X66056000Y-93731201D01*
X66058402Y-93755587D01*
X66065515Y-93779036D01*
X66077066Y-93800647D01*
X66092611Y-93819589D01*
X66111553Y-93835134D01*
X66133164Y-93846685D01*
X66156613Y-93853798D01*
X66180999Y-93856200D01*
X66845002Y-93856200D01*
X66869388Y-93853798D01*
X66892837Y-93846685D01*
X66914448Y-93835134D01*
X66933390Y-93819589D01*
X66948935Y-93800647D01*
X66960486Y-93779036D01*
X66967599Y-93755587D01*
X66970001Y-93731201D01*
X66970000Y-91644799D01*
X66967598Y-91620413D01*
X66960485Y-91596964D01*
X66948934Y-91575353D01*
X66933389Y-91556411D01*
X66914447Y-91540866D01*
X66892836Y-91529315D01*
X66869387Y-91522202D01*
X66845001Y-91519800D01*
X66180999Y-91519800D01*
X66156613Y-91522202D01*
X66133164Y-91529315D01*
X66111553Y-91540866D01*
X66092611Y-91556411D01*
X66077066Y-91575353D01*
X66065515Y-91596964D01*
X66058402Y-91620413D01*
X66056000Y-91644799D01*
X65649201Y-91644799D01*
X65649200Y-91306410D01*
X65652143Y-91276528D01*
X65663774Y-91238187D01*
X65682661Y-91202851D01*
X65708079Y-91171879D01*
X65739050Y-91146461D01*
X65774386Y-91127574D01*
X65812727Y-91115943D01*
X65852600Y-91112016D01*
X65878460Y-91114563D01*
X65902939Y-91114563D01*
X65918809Y-91113000D01*
X66845001Y-91113000D01*
X66869387Y-91110598D01*
X66892836Y-91103485D01*
X66914447Y-91091934D01*
X66933389Y-91076389D01*
X66948934Y-91057447D01*
X66960485Y-91035836D01*
X66967598Y-91012387D01*
X66970000Y-90988001D01*
X66970000Y-89841399D01*
X67376800Y-89841399D01*
X67376800Y-95534601D01*
X67379202Y-95558987D01*
X67386315Y-95582436D01*
X67397866Y-95604047D01*
X67413411Y-95622989D01*
X67432353Y-95638534D01*
X67453964Y-95650085D01*
X67477413Y-95657198D01*
X67501799Y-95659600D01*
X73253278Y-95659600D01*
X73265512Y-95658999D01*
X73269400Y-95658616D01*
X73273288Y-95658999D01*
X73285522Y-95659600D01*
X75742478Y-95659600D01*
X75754712Y-95658999D01*
X75758600Y-95658616D01*
X75762488Y-95658999D01*
X75774722Y-95659600D01*
X78833802Y-95659600D01*
X78858188Y-95657198D01*
X78881637Y-95650085D01*
X78903248Y-95638534D01*
X78922190Y-95622989D01*
X78937735Y-95604047D01*
X78949286Y-95582436D01*
X78956399Y-95558987D01*
X78958801Y-95534601D01*
X78958800Y-89841399D01*
X78956398Y-89817013D01*
X78949285Y-89793564D01*
X78937734Y-89771953D01*
X78922189Y-89753011D01*
X78903247Y-89737466D01*
X78881636Y-89725915D01*
X78858187Y-89718802D01*
X78833801Y-89716400D01*
X67501799Y-89716400D01*
X67477413Y-89718802D01*
X67453964Y-89725915D01*
X67432353Y-89737466D01*
X67413411Y-89753011D01*
X67397866Y-89771953D01*
X67386315Y-89793564D01*
X67379202Y-89817013D01*
X67376800Y-89841399D01*
X66970000Y-89841399D01*
X66970000Y-89529122D01*
X66969399Y-89516888D01*
X66969016Y-89513000D01*
X66972943Y-89473127D01*
X66984574Y-89434786D01*
X67003461Y-89399450D01*
X67028879Y-89368479D01*
X67059850Y-89343061D01*
X67095186Y-89324174D01*
X67133527Y-89312543D01*
X67163409Y-89309600D01*
X67173400Y-89308616D01*
X67177288Y-89308999D01*
X67189522Y-89309600D01*
X79146078Y-89309600D01*
X79158312Y-89308999D01*
X79162200Y-89308616D01*
X79172191Y-89309600D01*
X79172191Y-89309600D01*
G37*
G36*
X75768591Y-64570000D02*
G01*
X75798473Y-64572943D01*
X75836814Y-64584574D01*
X75872150Y-64603461D01*
X75903121Y-64628879D01*
X75928539Y-64659850D01*
X75947426Y-64695186D01*
X75959057Y-64733527D01*
X75962984Y-64773400D01*
X75962601Y-64777288D01*
X75962000Y-64789522D01*
X75962000Y-65308601D01*
X75964402Y-65332987D01*
X75971515Y-65356436D01*
X75983066Y-65378047D01*
X75998611Y-65396989D01*
X76017553Y-65412534D01*
X76039164Y-65424085D01*
X76062613Y-65431198D01*
X76086999Y-65433600D01*
X79146078Y-65433600D01*
X79158312Y-65432999D01*
X79162200Y-65432616D01*
X79172191Y-65433600D01*
X79202073Y-65436543D01*
X79240414Y-65448174D01*
X79275750Y-65467061D01*
X79306721Y-65492479D01*
X79332139Y-65523450D01*
X79351026Y-65558786D01*
X79362657Y-65597127D01*
X79366584Y-65637000D01*
X79366201Y-65640888D01*
X79365600Y-65653122D01*
X79365600Y-71970878D01*
X79366201Y-71983112D01*
X79366584Y-71987000D01*
X79362657Y-72026873D01*
X79351026Y-72065214D01*
X79332139Y-72100550D01*
X79306721Y-72131521D01*
X79275750Y-72156939D01*
X79240414Y-72175826D01*
X79202073Y-72187457D01*
X79172191Y-72190400D01*
X79162200Y-72191384D01*
X79158312Y-72191001D01*
X79146078Y-72190400D01*
X67189522Y-72190400D01*
X67177288Y-72191001D01*
X67173400Y-72191384D01*
X67163409Y-72190400D01*
X67133527Y-72187457D01*
X67095186Y-72175826D01*
X67059850Y-72156939D01*
X67028879Y-72131521D01*
X67003461Y-72100550D01*
X66984574Y-72065214D01*
X66972943Y-72026873D01*
X66969016Y-71987000D01*
X66969400Y-71983101D01*
X66970001Y-71970868D01*
X66970001Y-70511999D01*
X66967599Y-70487613D01*
X66960486Y-70464164D01*
X66948935Y-70442553D01*
X66933390Y-70423611D01*
X66914448Y-70408066D01*
X66892837Y-70396515D01*
X66869388Y-70389402D01*
X66845002Y-70387000D01*
X65918809Y-70387000D01*
X65902939Y-70385437D01*
X65878461Y-70385437D01*
X65852600Y-70387984D01*
X65812728Y-70384057D01*
X65774387Y-70372426D01*
X65739051Y-70353539D01*
X65708080Y-70328121D01*
X65682662Y-70297150D01*
X65663775Y-70261814D01*
X65652144Y-70223473D01*
X65649201Y-70193591D01*
X65649201Y-67768799D01*
X66056000Y-67768799D01*
X66056000Y-69855201D01*
X66058402Y-69879587D01*
X66065515Y-69903036D01*
X66077066Y-69924647D01*
X66092611Y-69943589D01*
X66111553Y-69959134D01*
X66133164Y-69970685D01*
X66156613Y-69977798D01*
X66180999Y-69980200D01*
X66845002Y-69980200D01*
X66869388Y-69977798D01*
X66892837Y-69970685D01*
X66914448Y-69959134D01*
X66933390Y-69943589D01*
X66948935Y-69924647D01*
X66960486Y-69903036D01*
X66967599Y-69879587D01*
X66970001Y-69855201D01*
X66970000Y-67768799D01*
X66967598Y-67744413D01*
X66960485Y-67720964D01*
X66948934Y-67699353D01*
X66933389Y-67680411D01*
X66914447Y-67664866D01*
X66892836Y-67653315D01*
X66869387Y-67646202D01*
X66845001Y-67643800D01*
X66180999Y-67643800D01*
X66156613Y-67646202D01*
X66133164Y-67653315D01*
X66111553Y-67664866D01*
X66092611Y-67680411D01*
X66077066Y-67699353D01*
X66065515Y-67720964D01*
X66058402Y-67744413D01*
X66056000Y-67768799D01*
X65649201Y-67768799D01*
X65649200Y-67430410D01*
X65652143Y-67400528D01*
X65663774Y-67362187D01*
X65682661Y-67326851D01*
X65708079Y-67295879D01*
X65739050Y-67270461D01*
X65774386Y-67251574D01*
X65812727Y-67239943D01*
X65852600Y-67236016D01*
X65878460Y-67238563D01*
X65902939Y-67238563D01*
X65918809Y-67237000D01*
X66845001Y-67237000D01*
X66869387Y-67234598D01*
X66892836Y-67227485D01*
X66914447Y-67215934D01*
X66933389Y-67200389D01*
X66948934Y-67181447D01*
X66960485Y-67159836D01*
X66967598Y-67136387D01*
X66970000Y-67112001D01*
X66970000Y-65965399D01*
X67376800Y-65965399D01*
X67376800Y-71658601D01*
X67379202Y-71682987D01*
X67386315Y-71706436D01*
X67397866Y-71728047D01*
X67413411Y-71746989D01*
X67432353Y-71762534D01*
X67453964Y-71774085D01*
X67477413Y-71781198D01*
X67501799Y-71783600D01*
X78833802Y-71783600D01*
X78858188Y-71781198D01*
X78881637Y-71774085D01*
X78903248Y-71762534D01*
X78922190Y-71746989D01*
X78937735Y-71728047D01*
X78949286Y-71706436D01*
X78956399Y-71682987D01*
X78958801Y-71658601D01*
X78958800Y-65965399D01*
X78956398Y-65941013D01*
X78949285Y-65917564D01*
X78937734Y-65895953D01*
X78922189Y-65877011D01*
X78903247Y-65861466D01*
X78881636Y-65849915D01*
X78858187Y-65842802D01*
X78833801Y-65840400D01*
X75774722Y-65840400D01*
X75762488Y-65841001D01*
X75758600Y-65841384D01*
X75754712Y-65841001D01*
X75742478Y-65840400D01*
X73285522Y-65840400D01*
X73273288Y-65841001D01*
X73269400Y-65841384D01*
X73265512Y-65841001D01*
X73253278Y-65840400D01*
X67501799Y-65840400D01*
X67477413Y-65842802D01*
X67453964Y-65849915D01*
X67432353Y-65861466D01*
X67413411Y-65877011D01*
X67397866Y-65895953D01*
X67386315Y-65917564D01*
X67379202Y-65941013D01*
X67376800Y-65965399D01*
X66970000Y-65965399D01*
X66970000Y-65653122D01*
X66969399Y-65640888D01*
X66969016Y-65637000D01*
X66972943Y-65597127D01*
X66984574Y-65558786D01*
X67003461Y-65523450D01*
X67028879Y-65492479D01*
X67059850Y-65467061D01*
X67095186Y-65448174D01*
X67133527Y-65436543D01*
X67163409Y-65433600D01*
X67173400Y-65432616D01*
X67177288Y-65432999D01*
X67189522Y-65433600D01*
X72941002Y-65433600D01*
X72965388Y-65431198D01*
X72988837Y-65424085D01*
X73010448Y-65412534D01*
X73029390Y-65396989D01*
X73044935Y-65378047D01*
X73056486Y-65356436D01*
X73063599Y-65332987D01*
X73066001Y-65308601D01*
X73066001Y-65101799D01*
X73472800Y-65101799D01*
X73472800Y-65308601D01*
X73475202Y-65332987D01*
X73482315Y-65356436D01*
X73493866Y-65378047D01*
X73509411Y-65396989D01*
X73528353Y-65412534D01*
X73549964Y-65424085D01*
X73573413Y-65431198D01*
X73597799Y-65433600D01*
X75430202Y-65433600D01*
X75454588Y-65431198D01*
X75478037Y-65424085D01*
X75499648Y-65412534D01*
X75518590Y-65396989D01*
X75534135Y-65378047D01*
X75545686Y-65356436D01*
X75552799Y-65332987D01*
X75555201Y-65308600D01*
X75555200Y-65101798D01*
X75552798Y-65077412D01*
X75545685Y-65053963D01*
X75534134Y-65032353D01*
X75518588Y-65013411D01*
X75499646Y-64997866D01*
X75478035Y-64986315D01*
X75454587Y-64979202D01*
X75430201Y-64976800D01*
X73597799Y-64976800D01*
X73573413Y-64979202D01*
X73549964Y-64986315D01*
X73528353Y-64997866D01*
X73509411Y-65013411D01*
X73493866Y-65032353D01*
X73482315Y-65053964D01*
X73475202Y-65077413D01*
X73472800Y-65101799D01*
X73066001Y-65101799D01*
X73066000Y-64789522D01*
X73065399Y-64777286D01*
X73065016Y-64773400D01*
X73068943Y-64733527D01*
X73080574Y-64695186D01*
X73099461Y-64659850D01*
X73124879Y-64628879D01*
X73155850Y-64603461D01*
X73191186Y-64584574D01*
X73229527Y-64572943D01*
X73259409Y-64570000D01*
X73269400Y-64569016D01*
X73273288Y-64569399D01*
X73285522Y-64570000D01*
X75742478Y-64570000D01*
X75754712Y-64569399D01*
X75758600Y-64569016D01*
X75768591Y-64570000D01*
X75768591Y-64570000D01*
G37*
G36*
X147804501Y-59922054D02*
G01*
X148150461Y-60065356D01*
X148461817Y-60273397D01*
X148726603Y-60538183D01*
X148934644Y-60849539D01*
X149077946Y-61195499D01*
X149151000Y-61562768D01*
X149151000Y-61937232D01*
X149077946Y-62304501D01*
X148934644Y-62650461D01*
X148726603Y-62961817D01*
X148461817Y-63226603D01*
X148150461Y-63434644D01*
X147804501Y-63577946D01*
X147437233Y-63651000D01*
X147062767Y-63651000D01*
X146695499Y-63577946D01*
X146349539Y-63434644D01*
X146038183Y-63226603D01*
X145773397Y-62961817D01*
X145565356Y-62650461D01*
X145422054Y-62304501D01*
X145349000Y-61937232D01*
X145349000Y-61562768D01*
X145422054Y-61195499D01*
X145565356Y-60849539D01*
X145773397Y-60538183D01*
X146038183Y-60273397D01*
X146349539Y-60065356D01*
X146695499Y-59922054D01*
X147062767Y-59849000D01*
X147437233Y-59849000D01*
X147804501Y-59922054D01*
X147804501Y-59922054D01*
G37*
G36*
X214304501Y-59922054D02*
G01*
X214650461Y-60065356D01*
X214961817Y-60273397D01*
X215226603Y-60538183D01*
X215434644Y-60849539D01*
X215577946Y-61195499D01*
X215651000Y-61562768D01*
X215651000Y-61937232D01*
X215577946Y-62304501D01*
X215434644Y-62650461D01*
X215226603Y-62961817D01*
X214961817Y-63226603D01*
X214650461Y-63434644D01*
X214304501Y-63577946D01*
X213937233Y-63651000D01*
X213562767Y-63651000D01*
X213195499Y-63577946D01*
X212849539Y-63434644D01*
X212538183Y-63226603D01*
X212273397Y-62961817D01*
X212065356Y-62650461D01*
X211922054Y-62304501D01*
X211849000Y-61937232D01*
X211849000Y-61562768D01*
X211922054Y-61195499D01*
X212065356Y-60849539D01*
X212273397Y-60538183D01*
X212538183Y-60273397D01*
X212849539Y-60065356D01*
X213195499Y-59922054D01*
X213562767Y-59849000D01*
X213937233Y-59849000D01*
X214304501Y-59922054D01*
X214304501Y-59922054D01*
G37*
G36*
X81304501Y-59922054D02*
G01*
X81650461Y-60065356D01*
X81961817Y-60273397D01*
X82226603Y-60538183D01*
X82434644Y-60849539D01*
X82577946Y-61195499D01*
X82651000Y-61562768D01*
X82651000Y-61937232D01*
X82577946Y-62304501D01*
X82434644Y-62650461D01*
X82226603Y-62961817D01*
X81961817Y-63226603D01*
X81650461Y-63434644D01*
X81304501Y-63577946D01*
X80937233Y-63651000D01*
X80562767Y-63651000D01*
X80195499Y-63577946D01*
X79849539Y-63434644D01*
X79538183Y-63226603D01*
X79273397Y-62961817D01*
X79065356Y-62650461D01*
X78922054Y-62304501D01*
X78849000Y-61937232D01*
X78849000Y-61562768D01*
X78922054Y-61195499D01*
X79065356Y-60849539D01*
X79273397Y-60538183D01*
X79538183Y-60273397D01*
X79849539Y-60065356D01*
X80195499Y-59922054D01*
X80562767Y-59849000D01*
X80937233Y-59849000D01*
X81304501Y-59922054D01*
X81304501Y-59922054D01*
G37*
M02*
