G04 #@! TF.GenerationSoftware,KiCad,Pcbnew,5.1.2-f72e74a~84~ubuntu18.04.1*
G04 #@! TF.CreationDate,2019-06-15T16:10:17+09:00*
G04 #@! TF.ProjectId,left-PCB,6c656674-2d50-4434-922e-6b696361645f,rev?*
G04 #@! TF.SameCoordinates,Original*
G04 #@! TF.FileFunction,Copper,L1,Top*
G04 #@! TF.FilePolarity,Positive*
%FSLAX46Y46*%
G04 Gerber Fmt 4.6, Leading zero omitted, Abs format (unit mm)*
G04 Created by KiCad (PCBNEW 5.1.2-f72e74a~84~ubuntu18.04.1) date 2019-06-15 16:10:17*
%MOMM*%
%LPD*%
G04 APERTURE LIST*
%ADD10O,1.600000X1.600000*%
%ADD11C,1.600000*%
%ADD12C,1.800000*%
%ADD13R,1.800000X1.800000*%
%ADD14C,0.800000*%
%ADD15C,0.500000*%
%ADD16C,0.250000*%
G04 APERTURE END LIST*
D10*
X181610000Y-95000000D03*
D11*
X171450000Y-95000000D03*
D10*
X188595000Y-95000000D03*
D11*
X198755000Y-95000000D03*
D10*
X109910000Y-95000000D03*
D11*
X99750000Y-95000000D03*
D12*
X87875000Y-107040000D03*
D13*
X87875000Y-104500000D03*
D10*
X115715000Y-95000000D03*
D11*
X125875000Y-95000000D03*
D12*
X87875000Y-126040000D03*
D13*
X87875000Y-123500000D03*
D14*
X140970000Y-124460000D03*
X146685000Y-86995000D03*
X135859000Y-114331000D03*
X146866000Y-78921000D03*
X112319000Y-113741000D03*
X88887500Y-88912500D03*
X96520000Y-69850000D03*
X163830000Y-88900000D03*
X139700000Y-125730000D03*
X146050000Y-101600000D03*
X146685000Y-142875000D03*
X139065000Y-95885000D03*
X130810000Y-74295000D03*
X160655000Y-95885000D03*
X148590000Y-125730000D03*
X149860000Y-87630000D03*
X85090000Y-115570000D03*
X137160000Y-132080000D03*
X126620000Y-132080000D03*
X142240000Y-123190000D03*
X147955000Y-87630000D03*
X87630000Y-101600000D03*
X135890000Y-130810000D03*
X127255000Y-130810000D03*
X153035000Y-97790000D03*
X164465000Y-96520000D03*
X149225000Y-142240000D03*
X147955000Y-141605000D03*
X158750000Y-101600000D03*
X113665000Y-126365000D03*
X114300000Y-109220000D03*
X132335000Y-133985000D03*
D15*
X140970000Y-119442000D02*
X135859000Y-114331000D01*
X140970000Y-124460000D02*
X140970000Y-119442000D01*
X146685000Y-79102000D02*
X146866000Y-78921000D01*
X146685000Y-86995000D02*
X146685000Y-79102000D01*
X109910000Y-111332000D02*
X112319000Y-113741000D01*
X109910000Y-95000000D02*
X109910000Y-111332000D01*
X109910000Y-95000000D02*
X103822500Y-88912500D01*
X95512502Y-88912500D02*
X88887500Y-88912500D01*
X103492500Y-88912500D02*
X103492500Y-74282500D01*
X103492500Y-88912500D02*
X95512502Y-88912500D01*
X103822500Y-88912500D02*
X103492500Y-88912500D01*
X103492500Y-74282500D02*
X99060000Y-69850000D01*
X99060000Y-69850000D02*
X96520000Y-69850000D01*
X182741370Y-95000000D02*
X188595000Y-95000000D01*
X181610000Y-95000000D02*
X182741370Y-95000000D01*
X140335000Y-95885000D02*
X146050000Y-101600000D01*
X139065000Y-95885000D02*
X140335000Y-95885000D01*
X137160000Y-125730000D02*
X139700000Y-125730000D01*
X125875000Y-96665000D02*
X130810000Y-101600000D01*
X135890000Y-124460000D02*
X137160000Y-125730000D01*
X130810000Y-117475000D02*
X135890000Y-122555000D01*
X125875000Y-95000000D02*
X125875000Y-96665000D01*
X135890000Y-122555000D02*
X135890000Y-124460000D01*
X130810000Y-90065000D02*
X125875000Y-95000000D01*
X130810000Y-74295000D02*
X130810000Y-90065000D01*
X146685000Y-142875000D02*
X143510000Y-142875000D01*
X143510000Y-142875000D02*
X125095000Y-124460000D01*
X125095000Y-119380000D02*
X130810000Y-113665000D01*
X125095000Y-124460000D02*
X125095000Y-119380000D01*
X130810000Y-101600000D02*
X130810000Y-113665000D01*
X130810000Y-113665000D02*
X130810000Y-117475000D01*
X163830000Y-92710000D02*
X163830000Y-88900000D01*
X160655000Y-95885000D02*
X163830000Y-92710000D01*
D16*
X149860000Y-87630000D02*
X149860000Y-113665000D01*
X149860000Y-113665000D02*
X144780000Y-118745000D01*
X146050000Y-125730000D02*
X148590000Y-125730000D01*
X144780000Y-124460000D02*
X146050000Y-125730000D01*
X144780000Y-123825000D02*
X144780000Y-123826410D01*
X144780000Y-123825000D02*
X144780000Y-124460000D01*
X144780000Y-118745000D02*
X144780000Y-123825000D01*
X144780000Y-123826410D02*
X144780000Y-124460000D01*
X98425000Y-128905000D02*
X92710000Y-123190000D01*
X92710000Y-123190000D02*
X85090000Y-115570000D01*
X142240000Y-127000000D02*
X137160000Y-132080000D01*
X142240000Y-127000000D02*
X140335000Y-128905000D01*
X144780000Y-124460000D02*
X142240000Y-127000000D01*
X120015000Y-128905000D02*
X98425000Y-128905000D01*
X123445000Y-128905000D02*
X126620000Y-132080000D01*
X120015000Y-128905000D02*
X123445000Y-128905000D01*
X142240000Y-123190000D02*
X142240000Y-116205000D01*
X142240000Y-116205000D02*
X149225000Y-109220000D01*
X149225000Y-109220000D02*
X149225000Y-92075000D01*
X147955000Y-90805000D02*
X147955000Y-88195685D01*
X149225000Y-92075000D02*
X147955000Y-90805000D01*
X147955000Y-88195685D02*
X147955000Y-87630000D01*
X142240000Y-123190000D02*
X142240000Y-125730000D01*
X142240000Y-125730000D02*
X139700000Y-128270000D01*
X113665000Y-128270000D02*
X99060000Y-128270000D01*
X99060000Y-128270000D02*
X93345000Y-122555000D01*
X93345000Y-122555000D02*
X93345000Y-111125000D01*
X93345000Y-111125000D02*
X90170000Y-107950000D01*
X90170000Y-107950000D02*
X90170000Y-104140000D01*
X90170000Y-104140000D02*
X87630000Y-101600000D01*
X139700000Y-128270000D02*
X137160000Y-130810000D01*
X137160000Y-130810000D02*
X135890000Y-130810000D01*
X121920000Y-128270000D02*
X113665000Y-128270000D01*
X124715000Y-128270000D02*
X127255000Y-130810000D01*
X121920000Y-128270000D02*
X124715000Y-128270000D01*
X160020000Y-131445000D02*
X149225000Y-142240000D01*
X160020000Y-118110000D02*
X160020000Y-131445000D01*
X168910000Y-100965000D02*
X164465000Y-96520000D01*
X168910000Y-109220000D02*
X168910000Y-100965000D01*
X160020000Y-118110000D02*
X168910000Y-109220000D01*
X168910000Y-97540000D02*
X171450000Y-95000000D01*
X168910000Y-100965000D02*
X168910000Y-97540000D01*
X163195000Y-96520000D02*
X164465000Y-96520000D01*
X153035000Y-97790000D02*
X161925000Y-97790000D01*
X161925000Y-97790000D02*
X163195000Y-96520000D01*
X147955000Y-141605000D02*
X147955000Y-136525000D01*
X147955000Y-136525000D02*
X159385000Y-125095000D01*
X159385000Y-125095000D02*
X159385000Y-119380000D01*
X159385000Y-119380000D02*
X156210000Y-116205000D01*
X156210000Y-116205000D02*
X156210000Y-108585000D01*
X156210000Y-108585000D02*
X158750000Y-106045000D01*
X158750000Y-106045000D02*
X158750000Y-101600000D01*
X111760000Y-109855000D02*
X111760000Y-98955000D01*
X116840000Y-114935000D02*
X111760000Y-109855000D01*
X113665000Y-126365000D02*
X116840000Y-123190000D01*
X111760000Y-98955000D02*
X115715000Y-95000000D01*
X116840000Y-123190000D02*
X116840000Y-114935000D01*
X118745000Y-113665000D02*
X117475000Y-112395000D01*
X117475000Y-112395000D02*
X114300000Y-109220000D01*
X118745000Y-118650000D02*
X118745000Y-113665000D01*
X118745000Y-118650000D02*
X118745000Y-120395000D01*
X118745000Y-120395000D02*
X132335000Y-133985000D01*
M02*
