M48
; DRILL file {KiCad 5.1.2-f72e74a~84~ubuntu18.04.1} date 2019年06月15日 16時10分24秒
; FORMAT={-:-/ absolute / metric / decimal}
; #@! TF.CreationDate,2019-06-15T16:10:24+09:00
; #@! TF.GenerationSoftware,Kicad,Pcbnew,5.1.2-f72e74a~84~ubuntu18.04.1
; #@! TF.FileFunction,Plated,1,2,PTH
FMAT,2
METRIC
T1C0.400
T2C0.800
T3C0.900
%
G90
G05
T1
X85.09Y-115.57
X87.63Y-101.6
X88.888Y-88.912
X96.52Y-69.85
X112.319Y-113.741
X113.665Y-126.365
X114.3Y-109.22
X126.62Y-132.08
X127.255Y-130.81
X130.81Y-74.295
X132.335Y-133.985
X135.859Y-114.331
X135.89Y-130.81
X137.16Y-132.08
X139.065Y-95.885
X139.7Y-125.73
X140.97Y-124.46
X142.24Y-123.19
X146.05Y-101.6
X146.685Y-86.995
X146.685Y-142.875
X146.866Y-78.921
X147.955Y-87.63
X147.955Y-141.605
X148.59Y-125.73
X149.225Y-142.24
X149.86Y-87.63
X153.035Y-97.79
X158.75Y-101.6
X160.655Y-95.885
X163.83Y-88.9
X164.465Y-96.52
T2
X188.595Y-95.0
X198.755Y-95.0
X99.75Y-95.0
X109.91Y-95.0
X171.45Y-95.0
X181.61Y-95.0
X115.715Y-95.0
X125.875Y-95.0
T3
X87.875Y-123.5
X87.875Y-126.04
X87.875Y-104.5
X87.875Y-107.04
T0
M30
