M48
; DRILL file {KiCad 5.1.2-f72e74a~84~ubuntu18.04.1} date 2019年06月15日 16時10分24秒
; FORMAT={-:-/ absolute / metric / decimal}
; #@! TF.CreationDate,2019-06-15T16:10:24+09:00
; #@! TF.GenerationSoftware,Kicad,Pcbnew,5.1.2-f72e74a~84~ubuntu18.04.1
; #@! TF.FileFunction,NonPlated,1,2,NPTH
FMAT,2
METRIC
T1C1.500
T2C1.750
T3C2.200
T4C3.000
T5C3.048
T6C3.988
%
G90
G05
T1
X82.35Y-73.625
X89.35Y-73.625
X82.425Y-95.0
X89.425Y-95.0
T2
X146.92Y-123.5
X157.08Y-123.5
X156.42Y-104.5
X166.58Y-104.5
X151.67Y-85.5
X161.83Y-85.5
X151.67Y-142.5
X161.83Y-142.5
X132.67Y-85.5
X142.83Y-85.5
X189.67Y-85.5
X199.83Y-85.5
X203.92Y-123.5
X214.08Y-123.5
X87.545Y-142.5
X97.705Y-142.5
X92.295Y-104.5
X102.455Y-104.5
X184.92Y-123.5
X195.08Y-123.5
X161.17Y-66.5
X171.33Y-66.5
X113.67Y-85.5
X123.83Y-85.5
X89.92Y-85.5
X100.08Y-85.5
X142.17Y-66.5
X152.33Y-66.5
X175.42Y-104.5
X185.58Y-104.5
X194.42Y-104.5
X204.58Y-104.5
X170.67Y-85.5
X180.83Y-85.5
X180.17Y-66.5
X190.33Y-66.5
X104.17Y-66.5
X114.33Y-66.5
X137.42Y-104.5
X147.58Y-104.5
X127.92Y-123.5
X138.08Y-123.5
X170.67Y-142.5
X180.83Y-142.5
X85.17Y-66.5
X95.33Y-66.5
X130.295Y-142.5
X140.455Y-142.5
X180.17Y-142.5
X190.33Y-142.5
X108.92Y-142.5
X119.08Y-142.5
X189.67Y-142.5
X199.83Y-142.5
X165.92Y-123.5
X176.08Y-123.5
X123.17Y-66.5
X133.33Y-66.5
X97.045Y-123.5
X107.205Y-123.5
X118.42Y-104.5
X128.58Y-104.5
T3
X185.25Y-133.0
X123.475Y-132.975
X166.25Y-133.0
X185.25Y-76.0
X84.535Y-133.0
X99.75Y-76.0
X199.5Y-114.0
T4
X110.19Y-139.96
X116.54Y-137.42
X192.21Y-147.58
X198.56Y-145.04
X167.19Y-120.96
X173.54Y-118.42
X124.44Y-63.96
X130.79Y-61.42
X98.315Y-120.96
X104.665Y-118.42
X120.96Y-109.58
X127.31Y-107.04
X148.19Y-120.96
X154.54Y-118.42
X158.96Y-109.58
X165.31Y-107.04
X152.94Y-82.96
X159.29Y-80.42
X154.21Y-147.58
X160.56Y-145.04
X133.94Y-82.96
X140.29Y-80.42
X190.94Y-82.96
X197.29Y-80.42
X205.19Y-120.96
X211.54Y-118.42
X88.815Y-139.96
X95.165Y-137.42
X94.835Y-109.58
X101.185Y-107.04
X186.19Y-120.96
X192.54Y-118.42
X162.44Y-63.96
X168.79Y-61.42
X114.94Y-82.96
X121.29Y-80.42
X91.19Y-82.96
X97.54Y-80.42
X143.44Y-63.96
X149.79Y-61.42
X177.96Y-109.58
X184.31Y-107.04
X196.96Y-109.58
X203.31Y-107.04
X171.94Y-82.96
X178.29Y-80.42
X181.44Y-63.96
X187.79Y-61.42
X105.44Y-63.96
X111.79Y-61.42
X139.96Y-109.58
X146.31Y-107.04
X129.19Y-120.96
X135.54Y-118.42
X173.21Y-147.58
X179.56Y-145.04
X86.44Y-63.96
X92.79Y-61.42
X132.835Y-147.58
X139.185Y-145.04
X181.44Y-139.96
X187.79Y-137.42
T5
X173.312Y-149.485
X197.188Y-149.485
X90.187Y-116.515
X114.063Y-116.515
T6
X161.5Y-104.5
X156.75Y-85.5
X156.75Y-142.5
X137.75Y-85.5
X194.75Y-85.5
X209.0Y-123.5
X92.625Y-142.5
X97.375Y-104.5
X190.0Y-123.5
X166.25Y-66.5
X118.75Y-85.5
X95.0Y-85.5
X147.25Y-66.5
X180.5Y-104.5
X199.5Y-104.5
X175.75Y-85.5
X185.25Y-66.5
X109.25Y-66.5
X142.5Y-104.5
X133.0Y-123.5
X175.75Y-142.5
X90.25Y-66.5
X135.375Y-142.5
X173.312Y-134.245
X185.25Y-142.5
X197.188Y-134.245
X114.0Y-142.5
X194.75Y-142.5
X171.0Y-123.5
X128.25Y-66.5
X90.187Y-131.755
X102.125Y-123.5
X114.063Y-131.755
X123.5Y-104.5
X152.0Y-123.5
T0
M30
