G04 #@! TF.GenerationSoftware,KiCad,Pcbnew,5.1.2-f72e74a~84~ubuntu18.04.1*
G04 #@! TF.CreationDate,2019-06-17T18:25:39+09:00*
G04 #@! TF.ProjectId,left-bottom,6c656674-2d62-46f7-9474-6f6d2e6b6963,rev?*
G04 #@! TF.SameCoordinates,Original*
G04 #@! TF.FileFunction,Profile,NP*
%FSLAX46Y46*%
G04 Gerber Fmt 4.6, Leading zero omitted, Abs format (unit mm)*
G04 Created by KiCad (PCBNEW 5.1.2-f72e74a~84~ubuntu18.04.1) date 2019-06-17 18:25:39*
%MOMM*%
%LPD*%
G04 APERTURE LIST*
%ADD10C,0.050000*%
G04 APERTURE END LIST*
D10*
X80750000Y-100180000D02*
G75*
G02X82020000Y-98910000I1270000J0D01*
G01*
X82020000Y-91290000D02*
G75*
G02X80750000Y-90020000I0J1270000D01*
G01*
X80750000Y-78590000D02*
G75*
G02X82020000Y-77320000I1270000J0D01*
G01*
X82020000Y-69700000D02*
G75*
G02X80750000Y-68430000I0J1270000D01*
G01*
X80750000Y-68430000D02*
X80750000Y-59375000D01*
X80750000Y-90020000D02*
X80750000Y-78590000D01*
X93450000Y-98910000D02*
X82020000Y-98910000D01*
X93450000Y-91290000D02*
X93450000Y-98910000D01*
X82020000Y-91290000D02*
X93450000Y-91290000D01*
X93450000Y-77320000D02*
X82020000Y-77320000D01*
X93450000Y-69700000D02*
X93450000Y-77320000D01*
X82020000Y-69700000D02*
X93450000Y-69700000D01*
X201875000Y-76000000D02*
G75*
G02X204250000Y-78375000I0J-2375000D01*
G01*
X206625000Y-95000000D02*
G75*
G02X209000000Y-97375000I0J-2375000D01*
G01*
X216125000Y-114000000D02*
G75*
G02X218500000Y-116375000I0J-2375000D01*
G01*
X218500000Y-130625000D02*
G75*
G02X216125000Y-133000000I-2375000J0D01*
G01*
X204250000Y-149625000D02*
G75*
G02X201875000Y-152000000I-2375000J0D01*
G01*
X83125000Y-152000000D02*
G75*
G02X80750000Y-149625000I0J2375000D01*
G01*
X80750000Y-59375000D02*
G75*
G02X83125000Y-57000000I2375000J0D01*
G01*
X192375000Y-57000000D02*
G75*
G02X194750000Y-59375000I0J-2375000D01*
G01*
X80750000Y-100180000D02*
X80750000Y-149625000D01*
X192375000Y-57000000D02*
X83125000Y-57000000D01*
X194750000Y-76000000D02*
X194750000Y-59375000D01*
X201875000Y-76000000D02*
X194750000Y-76000000D01*
X204250000Y-95000000D02*
X204250000Y-78375000D01*
X206625000Y-95000000D02*
X204250000Y-95000000D01*
X209000000Y-114000000D02*
X209000000Y-97375000D01*
X216125000Y-114000000D02*
X209000000Y-114000000D01*
X218500000Y-130625000D02*
X218500000Y-116375000D01*
X204250000Y-133000000D02*
X216125000Y-133000000D01*
X204250000Y-149625000D02*
X204250000Y-133000000D01*
X83125000Y-152000000D02*
X201875000Y-152000000D01*
M02*
