G04 #@! TF.GenerationSoftware,KiCad,Pcbnew,5.1.2-f72e74a~84~ubuntu18.04.1*
G04 #@! TF.CreationDate,2019-06-17T18:25:39+09:00*
G04 #@! TF.ProjectId,left-bottom,6c656674-2d62-46f7-9474-6f6d2e6b6963,rev?*
G04 #@! TF.SameCoordinates,Original*
G04 #@! TF.FileFunction,Legend,Top*
G04 #@! TF.FilePolarity,Positive*
%FSLAX46Y46*%
G04 Gerber Fmt 4.6, Leading zero omitted, Abs format (unit mm)*
G04 Created by KiCad (PCBNEW 5.1.2-f72e74a~84~ubuntu18.04.1) date 2019-06-17 18:25:39*
%MOMM*%
%LPD*%
G04 APERTURE LIST*
%ADD10C,0.300000*%
%ADD11C,0.600000*%
%ADD12C,0.010000*%
%ADD13C,0.150000*%
%ADD14C,2.302000*%
G04 APERTURE END LIST*
D10*
X158710714Y-147777142D02*
X158925000Y-147848571D01*
X159282142Y-147848571D01*
X159425000Y-147777142D01*
X159496428Y-147705714D01*
X159567857Y-147562857D01*
X159567857Y-147420000D01*
X159496428Y-147277142D01*
X159425000Y-147205714D01*
X159282142Y-147134285D01*
X158996428Y-147062857D01*
X158853571Y-146991428D01*
X158782142Y-146920000D01*
X158710714Y-146777142D01*
X158710714Y-146634285D01*
X158782142Y-146491428D01*
X158853571Y-146420000D01*
X158996428Y-146348571D01*
X159353571Y-146348571D01*
X159567857Y-146420000D01*
X160853571Y-147848571D02*
X160853571Y-147062857D01*
X160782142Y-146920000D01*
X160639285Y-146848571D01*
X160353571Y-146848571D01*
X160210714Y-146920000D01*
X160853571Y-147777142D02*
X160710714Y-147848571D01*
X160353571Y-147848571D01*
X160210714Y-147777142D01*
X160139285Y-147634285D01*
X160139285Y-147491428D01*
X160210714Y-147348571D01*
X160353571Y-147277142D01*
X160710714Y-147277142D01*
X160853571Y-147205714D01*
X161353571Y-146848571D02*
X161925000Y-146848571D01*
X161567857Y-146348571D02*
X161567857Y-147634285D01*
X161639285Y-147777142D01*
X161782142Y-147848571D01*
X161925000Y-147848571D01*
X162353571Y-147777142D02*
X162496428Y-147848571D01*
X162782142Y-147848571D01*
X162925000Y-147777142D01*
X162996428Y-147634285D01*
X162996428Y-147562857D01*
X162925000Y-147420000D01*
X162782142Y-147348571D01*
X162567857Y-147348571D01*
X162425000Y-147277142D01*
X162353571Y-147134285D01*
X162353571Y-147062857D01*
X162425000Y-146920000D01*
X162567857Y-146848571D01*
X162782142Y-146848571D01*
X162925000Y-146920000D01*
X164282142Y-146848571D02*
X164282142Y-147848571D01*
X163639285Y-146848571D02*
X163639285Y-147634285D01*
X163710714Y-147777142D01*
X163853571Y-147848571D01*
X164067857Y-147848571D01*
X164210714Y-147777142D01*
X164282142Y-147705714D01*
X164996428Y-147848571D02*
X164996428Y-146848571D01*
X164996428Y-146991428D02*
X165067857Y-146920000D01*
X165210714Y-146848571D01*
X165425000Y-146848571D01*
X165567857Y-146920000D01*
X165639285Y-147062857D01*
X165639285Y-147848571D01*
X165639285Y-147062857D02*
X165710714Y-146920000D01*
X165853571Y-146848571D01*
X166067857Y-146848571D01*
X166210714Y-146920000D01*
X166282142Y-147062857D01*
X166282142Y-147848571D01*
X167639285Y-147848571D02*
X167639285Y-147062857D01*
X167567857Y-146920000D01*
X167425000Y-146848571D01*
X167139285Y-146848571D01*
X166996428Y-146920000D01*
X167639285Y-147777142D02*
X167496428Y-147848571D01*
X167139285Y-147848571D01*
X166996428Y-147777142D01*
X166925000Y-147634285D01*
X166925000Y-147491428D01*
X166996428Y-147348571D01*
X167139285Y-147277142D01*
X167496428Y-147277142D01*
X167639285Y-147205714D01*
X169925000Y-146348571D02*
X169925000Y-147420000D01*
X169853571Y-147634285D01*
X169710714Y-147777142D01*
X169496428Y-147848571D01*
X169353571Y-147848571D01*
X170639285Y-147848571D02*
X170639285Y-146348571D01*
X171210714Y-146348571D01*
X171353571Y-146420000D01*
X171425000Y-146491428D01*
X171496428Y-146634285D01*
X171496428Y-146848571D01*
X171425000Y-146991428D01*
X171353571Y-147062857D01*
X171210714Y-147134285D01*
X170639285Y-147134285D01*
X173210714Y-147777142D02*
X173425000Y-147848571D01*
X173782142Y-147848571D01*
X173925000Y-147777142D01*
X173996428Y-147705714D01*
X174067857Y-147562857D01*
X174067857Y-147420000D01*
X173996428Y-147277142D01*
X173925000Y-147205714D01*
X173782142Y-147134285D01*
X173496428Y-147062857D01*
X173353571Y-146991428D01*
X173282142Y-146920000D01*
X173210714Y-146777142D01*
X173210714Y-146634285D01*
X173282142Y-146491428D01*
X173353571Y-146420000D01*
X173496428Y-146348571D01*
X173853571Y-146348571D01*
X174067857Y-146420000D01*
X174710714Y-147848571D02*
X174710714Y-146348571D01*
X175210714Y-147420000D01*
X175710714Y-146348571D01*
X175710714Y-147848571D01*
X176425000Y-147848571D02*
X176425000Y-146348571D01*
X176782142Y-146348571D01*
X176996428Y-146420000D01*
X177139285Y-146562857D01*
X177210714Y-146705714D01*
X177282142Y-146991428D01*
X177282142Y-147205714D01*
X177210714Y-147491428D01*
X177139285Y-147634285D01*
X176996428Y-147777142D01*
X176782142Y-147848571D01*
X176425000Y-147848571D01*
X179067857Y-147848571D02*
X179067857Y-146348571D01*
X179067857Y-146920000D02*
X179210714Y-146848571D01*
X179496428Y-146848571D01*
X179639285Y-146920000D01*
X179710714Y-146991428D01*
X179782142Y-147134285D01*
X179782142Y-147562857D01*
X179710714Y-147705714D01*
X179639285Y-147777142D01*
X179496428Y-147848571D01*
X179210714Y-147848571D01*
X179067857Y-147777142D01*
X180639285Y-147848571D02*
X180496428Y-147777142D01*
X180425000Y-147705714D01*
X180353571Y-147562857D01*
X180353571Y-147134285D01*
X180425000Y-146991428D01*
X180496428Y-146920000D01*
X180639285Y-146848571D01*
X180853571Y-146848571D01*
X180996428Y-146920000D01*
X181067857Y-146991428D01*
X181139285Y-147134285D01*
X181139285Y-147562857D01*
X181067857Y-147705714D01*
X180996428Y-147777142D01*
X180853571Y-147848571D01*
X180639285Y-147848571D01*
X181567857Y-146848571D02*
X182139285Y-146848571D01*
X181782142Y-146348571D02*
X181782142Y-147634285D01*
X181853571Y-147777142D01*
X181996428Y-147848571D01*
X182139285Y-147848571D01*
X182425000Y-146848571D02*
X182996428Y-146848571D01*
X182639285Y-146348571D02*
X182639285Y-147634285D01*
X182710714Y-147777142D01*
X182853571Y-147848571D01*
X182996428Y-147848571D01*
X183710714Y-147848571D02*
X183567857Y-147777142D01*
X183496428Y-147705714D01*
X183425000Y-147562857D01*
X183425000Y-147134285D01*
X183496428Y-146991428D01*
X183567857Y-146920000D01*
X183710714Y-146848571D01*
X183925000Y-146848571D01*
X184067857Y-146920000D01*
X184139285Y-146991428D01*
X184210714Y-147134285D01*
X184210714Y-147562857D01*
X184139285Y-147705714D01*
X184067857Y-147777142D01*
X183925000Y-147848571D01*
X183710714Y-147848571D01*
X184853571Y-147848571D02*
X184853571Y-146848571D01*
X184853571Y-146991428D02*
X184925000Y-146920000D01*
X185067857Y-146848571D01*
X185282142Y-146848571D01*
X185425000Y-146920000D01*
X185496428Y-147062857D01*
X185496428Y-147848571D01*
X185496428Y-147062857D02*
X185567857Y-146920000D01*
X185710714Y-146848571D01*
X185925000Y-146848571D01*
X186067857Y-146920000D01*
X186139285Y-147062857D01*
X186139285Y-147848571D01*
X187996428Y-146848571D02*
X187996428Y-148348571D01*
X187996428Y-146920000D02*
X188139285Y-146848571D01*
X188425000Y-146848571D01*
X188567857Y-146920000D01*
X188639285Y-146991428D01*
X188710714Y-147134285D01*
X188710714Y-147562857D01*
X188639285Y-147705714D01*
X188567857Y-147777142D01*
X188425000Y-147848571D01*
X188139285Y-147848571D01*
X187996428Y-147777142D01*
X189567857Y-147848571D02*
X189425000Y-147777142D01*
X189353571Y-147634285D01*
X189353571Y-146348571D01*
X190782142Y-147848571D02*
X190782142Y-147062857D01*
X190710714Y-146920000D01*
X190567857Y-146848571D01*
X190282142Y-146848571D01*
X190139285Y-146920000D01*
X190782142Y-147777142D02*
X190639285Y-147848571D01*
X190282142Y-147848571D01*
X190139285Y-147777142D01*
X190067857Y-147634285D01*
X190067857Y-147491428D01*
X190139285Y-147348571D01*
X190282142Y-147277142D01*
X190639285Y-147277142D01*
X190782142Y-147205714D01*
X191282142Y-146848571D02*
X191853571Y-146848571D01*
X191496428Y-146348571D02*
X191496428Y-147634285D01*
X191567857Y-147777142D01*
X191710714Y-147848571D01*
X191853571Y-147848571D01*
X192925000Y-147777142D02*
X192782142Y-147848571D01*
X192496428Y-147848571D01*
X192353571Y-147777142D01*
X192282142Y-147634285D01*
X192282142Y-147062857D01*
X192353571Y-146920000D01*
X192496428Y-146848571D01*
X192782142Y-146848571D01*
X192925000Y-146920000D01*
X192996428Y-147062857D01*
X192996428Y-147205714D01*
X192282142Y-147348571D01*
X194782142Y-147848571D02*
X194782142Y-146848571D01*
X194782142Y-147134285D02*
X194853571Y-146991428D01*
X194925000Y-146920000D01*
X195067857Y-146848571D01*
X195210714Y-146848571D01*
X196282142Y-147777142D02*
X196139285Y-147848571D01*
X195853571Y-147848571D01*
X195710714Y-147777142D01*
X195639285Y-147634285D01*
X195639285Y-147062857D01*
X195710714Y-146920000D01*
X195853571Y-146848571D01*
X196139285Y-146848571D01*
X196282142Y-146920000D01*
X196353571Y-147062857D01*
X196353571Y-147205714D01*
X195639285Y-147348571D01*
X196853571Y-146848571D02*
X197210714Y-147848571D01*
X197567857Y-146848571D01*
X198139285Y-147705714D02*
X198210714Y-147777142D01*
X198139285Y-147848571D01*
X198067857Y-147777142D01*
X198139285Y-147705714D01*
X198139285Y-147848571D01*
X199639285Y-147848571D02*
X198782142Y-147848571D01*
X199210714Y-147848571D02*
X199210714Y-146348571D01*
X199067857Y-146562857D01*
X198925000Y-146705714D01*
X198782142Y-146777142D01*
X166577380Y-122029761D02*
X166577380Y-120029761D01*
X167434523Y-122029761D02*
X167434523Y-120982142D01*
X167339285Y-120791666D01*
X167148809Y-120696428D01*
X166863095Y-120696428D01*
X166672619Y-120791666D01*
X166577380Y-120886904D01*
X168101190Y-120696428D02*
X168863095Y-120696428D01*
X168386904Y-120029761D02*
X168386904Y-121744047D01*
X168482142Y-121934523D01*
X168672619Y-122029761D01*
X168863095Y-122029761D01*
X169244047Y-120696428D02*
X170005952Y-120696428D01*
X169529761Y-120029761D02*
X169529761Y-121744047D01*
X169625000Y-121934523D01*
X169815476Y-122029761D01*
X170005952Y-122029761D01*
X170672619Y-120696428D02*
X170672619Y-122696428D01*
X170672619Y-120791666D02*
X170863095Y-120696428D01*
X171244047Y-120696428D01*
X171434523Y-120791666D01*
X171529761Y-120886904D01*
X171625000Y-121077380D01*
X171625000Y-121648809D01*
X171529761Y-121839285D01*
X171434523Y-121934523D01*
X171244047Y-122029761D01*
X170863095Y-122029761D01*
X170672619Y-121934523D01*
X172386904Y-121934523D02*
X172577380Y-122029761D01*
X172958333Y-122029761D01*
X173148809Y-121934523D01*
X173244047Y-121744047D01*
X173244047Y-121648809D01*
X173148809Y-121458333D01*
X172958333Y-121363095D01*
X172672619Y-121363095D01*
X172482142Y-121267857D01*
X172386904Y-121077380D01*
X172386904Y-120982142D01*
X172482142Y-120791666D01*
X172672619Y-120696428D01*
X172958333Y-120696428D01*
X173148809Y-120791666D01*
X174101190Y-121839285D02*
X174196428Y-121934523D01*
X174101190Y-122029761D01*
X174005952Y-121934523D01*
X174101190Y-121839285D01*
X174101190Y-122029761D01*
X174101190Y-120791666D02*
X174196428Y-120886904D01*
X174101190Y-120982142D01*
X174005952Y-120886904D01*
X174101190Y-120791666D01*
X174101190Y-120982142D01*
X176482142Y-119934523D02*
X174767857Y-122505952D01*
X178577380Y-119934523D02*
X176863095Y-122505952D01*
X180101190Y-122029761D02*
X180101190Y-120029761D01*
X180101190Y-121934523D02*
X179910714Y-122029761D01*
X179529761Y-122029761D01*
X179339285Y-121934523D01*
X179244047Y-121839285D01*
X179148809Y-121648809D01*
X179148809Y-121077380D01*
X179244047Y-120886904D01*
X179339285Y-120791666D01*
X179529761Y-120696428D01*
X179910714Y-120696428D01*
X180101190Y-120791666D01*
X181053571Y-122029761D02*
X181053571Y-120696428D01*
X181053571Y-120029761D02*
X180958333Y-120125000D01*
X181053571Y-120220238D01*
X181148809Y-120125000D01*
X181053571Y-120029761D01*
X181053571Y-120220238D01*
X181910714Y-121934523D02*
X182101190Y-122029761D01*
X182482142Y-122029761D01*
X182672619Y-121934523D01*
X182767857Y-121744047D01*
X182767857Y-121648809D01*
X182672619Y-121458333D01*
X182482142Y-121363095D01*
X182196428Y-121363095D01*
X182005952Y-121267857D01*
X181910714Y-121077380D01*
X181910714Y-120982142D01*
X182005952Y-120791666D01*
X182196428Y-120696428D01*
X182482142Y-120696428D01*
X182672619Y-120791666D01*
X184482142Y-121934523D02*
X184291666Y-122029761D01*
X183910714Y-122029761D01*
X183720238Y-121934523D01*
X183625000Y-121839285D01*
X183529761Y-121648809D01*
X183529761Y-121077380D01*
X183625000Y-120886904D01*
X183720238Y-120791666D01*
X183910714Y-120696428D01*
X184291666Y-120696428D01*
X184482142Y-120791666D01*
X185625000Y-122029761D02*
X185434523Y-121934523D01*
X185339285Y-121839285D01*
X185244047Y-121648809D01*
X185244047Y-121077380D01*
X185339285Y-120886904D01*
X185434523Y-120791666D01*
X185625000Y-120696428D01*
X185910714Y-120696428D01*
X186101190Y-120791666D01*
X186196428Y-120886904D01*
X186291666Y-121077380D01*
X186291666Y-121648809D01*
X186196428Y-121839285D01*
X186101190Y-121934523D01*
X185910714Y-122029761D01*
X185625000Y-122029761D01*
X187148809Y-122029761D02*
X187148809Y-120696428D01*
X187148809Y-121077380D02*
X187244047Y-120886904D01*
X187339285Y-120791666D01*
X187529761Y-120696428D01*
X187720238Y-120696428D01*
X189244047Y-122029761D02*
X189244047Y-120029761D01*
X189244047Y-121934523D02*
X189053571Y-122029761D01*
X188672619Y-122029761D01*
X188482142Y-121934523D01*
X188386904Y-121839285D01*
X188291666Y-121648809D01*
X188291666Y-121077380D01*
X188386904Y-120886904D01*
X188482142Y-120791666D01*
X188672619Y-120696428D01*
X189053571Y-120696428D01*
X189244047Y-120791666D01*
X190196428Y-121839285D02*
X190291666Y-121934523D01*
X190196428Y-122029761D01*
X190101190Y-121934523D01*
X190196428Y-121839285D01*
X190196428Y-122029761D01*
X192005952Y-120696428D02*
X192005952Y-122315476D01*
X191910714Y-122505952D01*
X191815476Y-122601190D01*
X191625000Y-122696428D01*
X191339285Y-122696428D01*
X191148809Y-122601190D01*
X192005952Y-121934523D02*
X191815476Y-122029761D01*
X191434523Y-122029761D01*
X191244047Y-121934523D01*
X191148809Y-121839285D01*
X191053571Y-121648809D01*
X191053571Y-121077380D01*
X191148809Y-120886904D01*
X191244047Y-120791666D01*
X191434523Y-120696428D01*
X191815476Y-120696428D01*
X192005952Y-120791666D01*
X193815476Y-120696428D02*
X193815476Y-122315476D01*
X193720238Y-122505952D01*
X193625000Y-122601190D01*
X193434523Y-122696428D01*
X193148809Y-122696428D01*
X192958333Y-122601190D01*
X193815476Y-121934523D02*
X193625000Y-122029761D01*
X193244047Y-122029761D01*
X193053571Y-121934523D01*
X192958333Y-121839285D01*
X192863095Y-121648809D01*
X192863095Y-121077380D01*
X192958333Y-120886904D01*
X193053571Y-120791666D01*
X193244047Y-120696428D01*
X193625000Y-120696428D01*
X193815476Y-120791666D01*
X196196428Y-119934523D02*
X194482142Y-122505952D01*
X196863095Y-122029761D02*
X196863095Y-120029761D01*
X197053571Y-121267857D02*
X197625000Y-122029761D01*
X197625000Y-120696428D02*
X196863095Y-121458333D01*
X198386904Y-121934523D02*
X198577380Y-122029761D01*
X198958333Y-122029761D01*
X199148809Y-121934523D01*
X199244047Y-121744047D01*
X199244047Y-121648809D01*
X199148809Y-121458333D01*
X198958333Y-121363095D01*
X198672619Y-121363095D01*
X198482142Y-121267857D01*
X198386904Y-121077380D01*
X198386904Y-120982142D01*
X198482142Y-120791666D01*
X198672619Y-120696428D01*
X198958333Y-120696428D01*
X199148809Y-120791666D01*
X200101190Y-122029761D02*
X200101190Y-120029761D01*
X201244047Y-122029761D01*
X201244047Y-120029761D01*
X203053571Y-120696428D02*
X203053571Y-122315476D01*
X202958333Y-122505952D01*
X202863095Y-122601190D01*
X202672619Y-122696428D01*
X202386904Y-122696428D01*
X202196428Y-122601190D01*
X203053571Y-121934523D02*
X202863095Y-122029761D01*
X202482142Y-122029761D01*
X202291666Y-121934523D01*
X202196428Y-121839285D01*
X202101190Y-121648809D01*
X202101190Y-121077380D01*
X202196428Y-120886904D01*
X202291666Y-120791666D01*
X202482142Y-120696428D01*
X202863095Y-120696428D01*
X203053571Y-120791666D01*
X204005952Y-120696428D02*
X204005952Y-122029761D01*
X204005952Y-120886904D02*
X204101190Y-120791666D01*
X204291666Y-120696428D01*
X204577380Y-120696428D01*
X204767857Y-120791666D01*
X204863095Y-120982142D01*
X204863095Y-122029761D01*
X205625000Y-120029761D02*
X206863095Y-120029761D01*
X206196428Y-120791666D01*
X206482142Y-120791666D01*
X206672619Y-120886904D01*
X206767857Y-120982142D01*
X206863095Y-121172619D01*
X206863095Y-121648809D01*
X206767857Y-121839285D01*
X206672619Y-121934523D01*
X206482142Y-122029761D01*
X205910714Y-122029761D01*
X205720238Y-121934523D01*
X205625000Y-121839285D01*
X208577380Y-120696428D02*
X208577380Y-122029761D01*
X208101190Y-119934523D02*
X207625000Y-121363095D01*
X208863095Y-121363095D01*
D11*
X172684523Y-89684523D02*
X172684523Y-85684523D01*
X173636904Y-85684523D01*
X174208333Y-85875000D01*
X174589285Y-86255952D01*
X174779761Y-86636904D01*
X174970238Y-87398809D01*
X174970238Y-87970238D01*
X174779761Y-88732142D01*
X174589285Y-89113095D01*
X174208333Y-89494047D01*
X173636904Y-89684523D01*
X172684523Y-89684523D01*
X176684523Y-89684523D02*
X176684523Y-87017857D01*
X176684523Y-85684523D02*
X176494047Y-85875000D01*
X176684523Y-86065476D01*
X176875000Y-85875000D01*
X176684523Y-85684523D01*
X176684523Y-86065476D01*
X178398809Y-89494047D02*
X178779761Y-89684523D01*
X179541666Y-89684523D01*
X179922619Y-89494047D01*
X180113095Y-89113095D01*
X180113095Y-88922619D01*
X179922619Y-88541666D01*
X179541666Y-88351190D01*
X178970238Y-88351190D01*
X178589285Y-88160714D01*
X178398809Y-87779761D01*
X178398809Y-87589285D01*
X178589285Y-87208333D01*
X178970238Y-87017857D01*
X179541666Y-87017857D01*
X179922619Y-87208333D01*
X183541666Y-89494047D02*
X183160714Y-89684523D01*
X182398809Y-89684523D01*
X182017857Y-89494047D01*
X181827380Y-89303571D01*
X181636904Y-88922619D01*
X181636904Y-87779761D01*
X181827380Y-87398809D01*
X182017857Y-87208333D01*
X182398809Y-87017857D01*
X183160714Y-87017857D01*
X183541666Y-87208333D01*
X185827380Y-89684523D02*
X185446428Y-89494047D01*
X185255952Y-89303571D01*
X185065476Y-88922619D01*
X185065476Y-87779761D01*
X185255952Y-87398809D01*
X185446428Y-87208333D01*
X185827380Y-87017857D01*
X186398809Y-87017857D01*
X186779761Y-87208333D01*
X186970238Y-87398809D01*
X187160714Y-87779761D01*
X187160714Y-88922619D01*
X186970238Y-89303571D01*
X186779761Y-89494047D01*
X186398809Y-89684523D01*
X185827380Y-89684523D01*
X188875000Y-89684523D02*
X188875000Y-87017857D01*
X188875000Y-87779761D02*
X189065476Y-87398809D01*
X189255952Y-87208333D01*
X189636904Y-87017857D01*
X190017857Y-87017857D01*
X193065476Y-89684523D02*
X193065476Y-85684523D01*
X193065476Y-89494047D02*
X192684523Y-89684523D01*
X191922619Y-89684523D01*
X191541666Y-89494047D01*
X191351190Y-89303571D01*
X191160714Y-88922619D01*
X191160714Y-87779761D01*
X191351190Y-87398809D01*
X191541666Y-87208333D01*
X191922619Y-87017857D01*
X192684523Y-87017857D01*
X193065476Y-87208333D01*
D12*
G36*
X192971500Y-97292750D02*
G01*
X190082250Y-97292750D01*
X190082250Y-94403500D01*
X192971500Y-94403500D01*
X192971500Y-97292750D01*
X192971500Y-97292750D01*
G37*
X192971500Y-97292750D02*
X190082250Y-97292750D01*
X190082250Y-94403500D01*
X192971500Y-94403500D01*
X192971500Y-97292750D01*
G36*
X175667750Y-97292750D02*
G01*
X172778500Y-97292750D01*
X172778500Y-94403500D01*
X175667750Y-94403500D01*
X175667750Y-97292750D01*
X175667750Y-97292750D01*
G37*
X175667750Y-97292750D02*
X172778500Y-97292750D01*
X172778500Y-94403500D01*
X175667750Y-94403500D01*
X175667750Y-97292750D01*
G36*
X182398750Y-99197750D02*
G01*
X182398750Y-100182000D01*
X181446250Y-100182000D01*
X181446250Y-99197750D01*
X182398750Y-99197750D01*
X182398750Y-99197750D01*
G37*
X182398750Y-99197750D02*
X182398750Y-100182000D01*
X181446250Y-100182000D01*
X181446250Y-99197750D01*
X182398750Y-99197750D01*
G36*
X182398750Y-97292750D02*
G01*
X183351250Y-97292750D01*
X183351250Y-99197750D01*
X182398750Y-99197750D01*
X182398750Y-97292750D01*
X182398750Y-97292750D01*
G37*
X182398750Y-97292750D02*
X183351250Y-97292750D01*
X183351250Y-99197750D01*
X182398750Y-99197750D01*
X182398750Y-97292750D01*
G36*
X180462000Y-99197750D02*
G01*
X180462000Y-98245250D01*
X181446250Y-98245250D01*
X181446250Y-99197750D01*
X180462000Y-99197750D01*
X180462000Y-99197750D01*
G37*
X180462000Y-99197750D02*
X180462000Y-98245250D01*
X181446250Y-98245250D01*
X181446250Y-99197750D01*
X180462000Y-99197750D01*
G36*
X175667750Y-105928750D02*
G01*
X175667750Y-104976250D01*
X176620250Y-104976250D01*
X176620250Y-105928750D01*
X175667750Y-105928750D01*
X175667750Y-105928750D01*
G37*
X175667750Y-105928750D02*
X175667750Y-104976250D01*
X176620250Y-104976250D01*
X176620250Y-105928750D01*
X175667750Y-105928750D01*
G36*
X176620250Y-104023750D02*
G01*
X177572750Y-104023750D01*
X177572750Y-104976250D01*
X176620250Y-104976250D01*
X176620250Y-104023750D01*
X176620250Y-104023750D01*
G37*
X176620250Y-104023750D02*
X177572750Y-104023750D01*
X177572750Y-104976250D01*
X176620250Y-104976250D01*
X176620250Y-104023750D01*
G36*
X177572750Y-103071250D02*
G01*
X178557000Y-103071250D01*
X178557000Y-104023750D01*
X177572750Y-104023750D01*
X177572750Y-103071250D01*
X177572750Y-103071250D01*
G37*
X177572750Y-103071250D02*
X178557000Y-103071250D01*
X178557000Y-104023750D01*
X177572750Y-104023750D01*
X177572750Y-103071250D01*
G36*
X178557000Y-102087000D02*
G01*
X179509500Y-102087000D01*
X179509500Y-103071250D01*
X178557000Y-103071250D01*
X178557000Y-102087000D01*
X178557000Y-102087000D01*
G37*
X178557000Y-102087000D02*
X179509500Y-102087000D01*
X179509500Y-103071250D01*
X178557000Y-103071250D01*
X178557000Y-102087000D01*
G36*
X179509500Y-101134500D02*
G01*
X180462000Y-101134500D01*
X180462000Y-102087000D01*
X179509500Y-102087000D01*
X179509500Y-101134500D01*
X179509500Y-101134500D01*
G37*
X179509500Y-101134500D02*
X180462000Y-101134500D01*
X180462000Y-102087000D01*
X179509500Y-102087000D01*
X179509500Y-101134500D01*
G36*
X180462000Y-104976250D02*
G01*
X178557000Y-104976250D01*
X178557000Y-104023750D01*
X180462000Y-104023750D01*
X180462000Y-104976250D01*
X180462000Y-104976250D01*
G37*
X180462000Y-104976250D02*
X178557000Y-104976250D01*
X178557000Y-104023750D01*
X180462000Y-104023750D01*
X180462000Y-104976250D01*
G36*
X177572750Y-105928750D02*
G01*
X177572750Y-106913000D01*
X176620250Y-106913000D01*
X176620250Y-105928750D01*
X177572750Y-105928750D01*
X177572750Y-105928750D01*
G37*
X177572750Y-105928750D02*
X177572750Y-106913000D01*
X176620250Y-106913000D01*
X176620250Y-105928750D01*
X177572750Y-105928750D01*
G36*
X173731000Y-106913000D02*
G01*
X172778500Y-106913000D01*
X172778500Y-105928750D01*
X173731000Y-105928750D01*
X173731000Y-106913000D01*
X173731000Y-106913000D01*
G37*
X173731000Y-106913000D02*
X172778500Y-106913000D01*
X172778500Y-105928750D01*
X173731000Y-105928750D01*
X173731000Y-106913000D01*
G36*
X189129750Y-110754750D02*
G01*
X188177250Y-110754750D01*
X188177250Y-109802250D01*
X189129750Y-109802250D01*
X189129750Y-110754750D01*
X189129750Y-110754750D01*
G37*
X189129750Y-110754750D02*
X188177250Y-110754750D01*
X188177250Y-109802250D01*
X189129750Y-109802250D01*
X189129750Y-110754750D01*
G36*
X175667750Y-114596500D02*
G01*
X172778500Y-114596500D01*
X172778500Y-111707250D01*
X175667750Y-111707250D01*
X175667750Y-114596500D01*
X175667750Y-114596500D01*
G37*
X175667750Y-114596500D02*
X172778500Y-114596500D01*
X172778500Y-111707250D01*
X175667750Y-111707250D01*
X175667750Y-114596500D01*
G36*
X180462000Y-93451000D02*
G01*
X178557000Y-93451000D01*
X178557000Y-92466750D01*
X180462000Y-92466750D01*
X180462000Y-93451000D01*
X180462000Y-93451000D01*
G37*
X180462000Y-93451000D02*
X178557000Y-93451000D01*
X178557000Y-92466750D01*
X180462000Y-92466750D01*
X180462000Y-93451000D01*
G36*
X194908250Y-99197750D02*
G01*
X188177250Y-99197750D01*
X188177250Y-93451000D01*
X189129750Y-93451000D01*
X189129750Y-98245250D01*
X193924000Y-98245250D01*
X193924000Y-93451000D01*
X189129750Y-93451000D01*
X188177250Y-93451000D01*
X188177250Y-92466750D01*
X194908250Y-92466750D01*
X194908250Y-99197750D01*
X194908250Y-99197750D01*
G37*
X194908250Y-99197750D02*
X188177250Y-99197750D01*
X188177250Y-93451000D01*
X189129750Y-93451000D01*
X189129750Y-98245250D01*
X193924000Y-98245250D01*
X193924000Y-93451000D01*
X189129750Y-93451000D01*
X188177250Y-93451000D01*
X188177250Y-92466750D01*
X194908250Y-92466750D01*
X194908250Y-99197750D01*
G36*
X177572750Y-99197750D02*
G01*
X170841750Y-99197750D01*
X170841750Y-93451000D01*
X171826000Y-93451000D01*
X171826000Y-98245250D01*
X176620250Y-98245250D01*
X176620250Y-93451000D01*
X171826000Y-93451000D01*
X170841750Y-93451000D01*
X170841750Y-92466750D01*
X177572750Y-92466750D01*
X177572750Y-99197750D01*
X177572750Y-99197750D01*
G37*
X177572750Y-99197750D02*
X170841750Y-99197750D01*
X170841750Y-93451000D01*
X171826000Y-93451000D01*
X171826000Y-98245250D01*
X176620250Y-98245250D01*
X176620250Y-93451000D01*
X171826000Y-93451000D01*
X170841750Y-93451000D01*
X170841750Y-92466750D01*
X177572750Y-92466750D01*
X177572750Y-99197750D01*
G36*
X185288000Y-107865500D02*
G01*
X184303750Y-107865500D01*
X184303750Y-106913000D01*
X185288000Y-106913000D01*
X185288000Y-107865500D01*
X185288000Y-107865500D01*
G37*
X185288000Y-107865500D02*
X184303750Y-107865500D01*
X184303750Y-106913000D01*
X185288000Y-106913000D01*
X185288000Y-107865500D01*
G36*
X183351250Y-108818000D02*
G01*
X182398750Y-108818000D01*
X182398750Y-109802250D01*
X181446250Y-109802250D01*
X181446250Y-107865500D01*
X183351250Y-107865500D01*
X183351250Y-108818000D01*
X183351250Y-108818000D01*
G37*
X183351250Y-108818000D02*
X182398750Y-108818000D01*
X182398750Y-109802250D01*
X181446250Y-109802250D01*
X181446250Y-107865500D01*
X183351250Y-107865500D01*
X183351250Y-108818000D01*
G36*
X188177250Y-116533250D02*
G01*
X187193000Y-116533250D01*
X187193000Y-115549000D01*
X188177250Y-115549000D01*
X188177250Y-116533250D01*
X188177250Y-116533250D01*
G37*
X188177250Y-116533250D02*
X187193000Y-116533250D01*
X187193000Y-115549000D01*
X188177250Y-115549000D01*
X188177250Y-116533250D01*
G36*
X193924000Y-102087000D02*
G01*
X192971500Y-102087000D01*
X192971500Y-101134500D01*
X193924000Y-101134500D01*
X193924000Y-102087000D01*
X193924000Y-102087000D01*
G37*
X193924000Y-102087000D02*
X192971500Y-102087000D01*
X192971500Y-101134500D01*
X193924000Y-101134500D01*
X193924000Y-102087000D01*
G36*
X190082250Y-101134500D02*
G01*
X190082250Y-100182000D01*
X192971500Y-100182000D01*
X192971500Y-101134500D01*
X190082250Y-101134500D01*
X190082250Y-101134500D01*
G37*
X190082250Y-101134500D02*
X190082250Y-100182000D01*
X192971500Y-100182000D01*
X192971500Y-101134500D01*
X190082250Y-101134500D01*
G36*
X190082250Y-102087000D02*
G01*
X189129750Y-102087000D01*
X189129750Y-101134500D01*
X190082250Y-101134500D01*
X190082250Y-102087000D01*
X190082250Y-102087000D01*
G37*
X190082250Y-102087000D02*
X189129750Y-102087000D01*
X189129750Y-101134500D01*
X190082250Y-101134500D01*
X190082250Y-102087000D01*
G36*
X189129750Y-103071250D02*
G01*
X188177250Y-103071250D01*
X188177250Y-104023750D01*
X189129750Y-104023750D01*
X189129750Y-104976250D01*
X190082250Y-104976250D01*
X190082250Y-104023750D01*
X191066500Y-104023750D01*
X191066500Y-107865500D01*
X193924000Y-107865500D01*
X193924000Y-106913000D01*
X192019000Y-106913000D01*
X192019000Y-105928750D01*
X193924000Y-105928750D01*
X193924000Y-104976250D01*
X192019000Y-104976250D01*
X192019000Y-104023750D01*
X191066500Y-104023750D01*
X191066500Y-103071250D01*
X192971500Y-103071250D01*
X192971500Y-104023750D01*
X194908250Y-104023750D01*
X194908250Y-105928750D01*
X193924000Y-105928750D01*
X193924000Y-106913000D01*
X194908250Y-106913000D01*
X194908250Y-113644000D01*
X193924000Y-113644000D01*
X193924000Y-114596500D01*
X192971500Y-114596500D01*
X192971500Y-115549000D01*
X194908250Y-115549000D01*
X194908250Y-116533250D01*
X189129750Y-116533250D01*
X189129750Y-115549000D01*
X190082250Y-115549000D01*
X190082250Y-113644000D01*
X191066500Y-113644000D01*
X191066500Y-115549000D01*
X192019000Y-115549000D01*
X192019000Y-113644000D01*
X191066500Y-113644000D01*
X190082250Y-113644000D01*
X190082250Y-112691500D01*
X189129750Y-112691500D01*
X189129750Y-114596500D01*
X185288000Y-114596500D01*
X185288000Y-113644000D01*
X186240500Y-113644000D01*
X186240500Y-111707250D01*
X185288000Y-111707250D01*
X185288000Y-112691500D01*
X184303750Y-112691500D01*
X184303750Y-110754750D01*
X183351250Y-110754750D01*
X183351250Y-109802250D01*
X185288000Y-109802250D01*
X185288000Y-110754750D01*
X186240500Y-110754750D01*
X186240500Y-109802250D01*
X185288000Y-109802250D01*
X185288000Y-108818000D01*
X186240500Y-108818000D01*
X187193000Y-108818000D01*
X187193000Y-111707250D01*
X190082250Y-111707250D01*
X190082250Y-108818000D01*
X191066500Y-108818000D01*
X191066500Y-111707250D01*
X192019000Y-111707250D01*
X192019000Y-112691500D01*
X193924000Y-112691500D01*
X193924000Y-111707250D01*
X192971500Y-111707250D01*
X192971500Y-110754750D01*
X192019000Y-110754750D01*
X192019000Y-108818000D01*
X192971500Y-108818000D01*
X192971500Y-109802250D01*
X193924000Y-109802250D01*
X193924000Y-108818000D01*
X192971500Y-108818000D01*
X192019000Y-108818000D01*
X191066500Y-108818000D01*
X190082250Y-108818000D01*
X187193000Y-108818000D01*
X186240500Y-108818000D01*
X186240500Y-107865500D01*
X187193000Y-107865500D01*
X187193000Y-106913000D01*
X186240500Y-106913000D01*
X186240500Y-105928750D01*
X185288000Y-105928750D01*
X185288000Y-104976250D01*
X182398750Y-104976250D01*
X182398750Y-105928750D01*
X181446250Y-105928750D01*
X181446250Y-106913000D01*
X179509500Y-106913000D01*
X179509500Y-109802250D01*
X178557000Y-109802250D01*
X178557000Y-107865500D01*
X177572750Y-107865500D01*
X177572750Y-108818000D01*
X170841750Y-108818000D01*
X170841750Y-107865500D01*
X171826000Y-107865500D01*
X171826000Y-106913000D01*
X170841750Y-106913000D01*
X170841750Y-104976250D01*
X171826000Y-104976250D01*
X171826000Y-106913000D01*
X172778500Y-106913000D01*
X172778500Y-107865500D01*
X174683500Y-107865500D01*
X174683500Y-105928750D01*
X175667750Y-105928750D01*
X175667750Y-106913000D01*
X176620250Y-106913000D01*
X176620250Y-107865500D01*
X177572750Y-107865500D01*
X177572750Y-106913000D01*
X178557000Y-106913000D01*
X178557000Y-105928750D01*
X180462000Y-105928750D01*
X180462000Y-104976250D01*
X181446250Y-104976250D01*
X181446250Y-103071250D01*
X183351250Y-103071250D01*
X183351250Y-101134500D01*
X184303750Y-101134500D01*
X184303750Y-100182000D01*
X185288000Y-100182000D01*
X185288000Y-99197750D01*
X184303750Y-99197750D01*
X184303750Y-97292750D01*
X185288000Y-97292750D01*
X185288000Y-99197750D01*
X186240500Y-99197750D01*
X186240500Y-97292750D01*
X185288000Y-97292750D01*
X184303750Y-97292750D01*
X183351250Y-97292750D01*
X183351250Y-95356000D01*
X184303750Y-95356000D01*
X184303750Y-96308500D01*
X185288000Y-96308500D01*
X185288000Y-95356000D01*
X184303750Y-95356000D01*
X183351250Y-95356000D01*
X182398750Y-95356000D01*
X182398750Y-97292750D01*
X180462000Y-97292750D01*
X180462000Y-98245250D01*
X179509500Y-98245250D01*
X179509500Y-99197750D01*
X180462000Y-99197750D01*
X180462000Y-100182000D01*
X179509500Y-100182000D01*
X179509500Y-101134500D01*
X178557000Y-101134500D01*
X178557000Y-102087000D01*
X177572750Y-102087000D01*
X177572750Y-103071250D01*
X175667750Y-103071250D01*
X175667750Y-104976250D01*
X174683500Y-104976250D01*
X174683500Y-104023750D01*
X173731000Y-104023750D01*
X173731000Y-104976250D01*
X171826000Y-104976250D01*
X171826000Y-104023750D01*
X170841750Y-104023750D01*
X170841750Y-103071250D01*
X172778500Y-103071250D01*
X172778500Y-104023750D01*
X173731000Y-104023750D01*
X173731000Y-103071250D01*
X172778500Y-103071250D01*
X170841750Y-103071250D01*
X170841750Y-102087000D01*
X171826000Y-102087000D01*
X171826000Y-101134500D01*
X170841750Y-101134500D01*
X170841750Y-100182000D01*
X174683500Y-100182000D01*
X174683500Y-101134500D01*
X173731000Y-101134500D01*
X173731000Y-103071250D01*
X174683500Y-103071250D01*
X174683500Y-102087000D01*
X177572750Y-102087000D01*
X177572750Y-101134500D01*
X178557000Y-101134500D01*
X178557000Y-100182000D01*
X179509500Y-100182000D01*
X179509500Y-99197750D01*
X178557000Y-99197750D01*
X178557000Y-98245250D01*
X179509500Y-98245250D01*
X179509500Y-97292750D01*
X178557000Y-97292750D01*
X178557000Y-94403500D01*
X179509500Y-94403500D01*
X179509500Y-95356000D01*
X180462000Y-95356000D01*
X180462000Y-96308500D01*
X181446250Y-96308500D01*
X181446250Y-94403500D01*
X183351250Y-94403500D01*
X183351250Y-93451000D01*
X184303750Y-93451000D01*
X184303750Y-94403500D01*
X186240500Y-94403500D01*
X186240500Y-96308500D01*
X187193000Y-96308500D01*
X187193000Y-100182000D01*
X188177250Y-100182000D01*
X188177250Y-101134500D01*
X184303750Y-101134500D01*
X184303750Y-102087000D01*
X185288000Y-102087000D01*
X185288000Y-104023750D01*
X186240500Y-104023750D01*
X186240500Y-104976250D01*
X187193000Y-104976250D01*
X187193000Y-106913000D01*
X188177250Y-106913000D01*
X188177250Y-107865500D01*
X189129750Y-107865500D01*
X189129750Y-106913000D01*
X190082250Y-106913000D01*
X190082250Y-105928750D01*
X188177250Y-105928750D01*
X188177250Y-104976250D01*
X187193000Y-104976250D01*
X187193000Y-102087000D01*
X189129750Y-102087000D01*
X189129750Y-103071250D01*
X189129750Y-103071250D01*
G37*
X189129750Y-103071250D02*
X188177250Y-103071250D01*
X188177250Y-104023750D01*
X189129750Y-104023750D01*
X189129750Y-104976250D01*
X190082250Y-104976250D01*
X190082250Y-104023750D01*
X191066500Y-104023750D01*
X191066500Y-107865500D01*
X193924000Y-107865500D01*
X193924000Y-106913000D01*
X192019000Y-106913000D01*
X192019000Y-105928750D01*
X193924000Y-105928750D01*
X193924000Y-104976250D01*
X192019000Y-104976250D01*
X192019000Y-104023750D01*
X191066500Y-104023750D01*
X191066500Y-103071250D01*
X192971500Y-103071250D01*
X192971500Y-104023750D01*
X194908250Y-104023750D01*
X194908250Y-105928750D01*
X193924000Y-105928750D01*
X193924000Y-106913000D01*
X194908250Y-106913000D01*
X194908250Y-113644000D01*
X193924000Y-113644000D01*
X193924000Y-114596500D01*
X192971500Y-114596500D01*
X192971500Y-115549000D01*
X194908250Y-115549000D01*
X194908250Y-116533250D01*
X189129750Y-116533250D01*
X189129750Y-115549000D01*
X190082250Y-115549000D01*
X190082250Y-113644000D01*
X191066500Y-113644000D01*
X191066500Y-115549000D01*
X192019000Y-115549000D01*
X192019000Y-113644000D01*
X191066500Y-113644000D01*
X190082250Y-113644000D01*
X190082250Y-112691500D01*
X189129750Y-112691500D01*
X189129750Y-114596500D01*
X185288000Y-114596500D01*
X185288000Y-113644000D01*
X186240500Y-113644000D01*
X186240500Y-111707250D01*
X185288000Y-111707250D01*
X185288000Y-112691500D01*
X184303750Y-112691500D01*
X184303750Y-110754750D01*
X183351250Y-110754750D01*
X183351250Y-109802250D01*
X185288000Y-109802250D01*
X185288000Y-110754750D01*
X186240500Y-110754750D01*
X186240500Y-109802250D01*
X185288000Y-109802250D01*
X185288000Y-108818000D01*
X186240500Y-108818000D01*
X187193000Y-108818000D01*
X187193000Y-111707250D01*
X190082250Y-111707250D01*
X190082250Y-108818000D01*
X191066500Y-108818000D01*
X191066500Y-111707250D01*
X192019000Y-111707250D01*
X192019000Y-112691500D01*
X193924000Y-112691500D01*
X193924000Y-111707250D01*
X192971500Y-111707250D01*
X192971500Y-110754750D01*
X192019000Y-110754750D01*
X192019000Y-108818000D01*
X192971500Y-108818000D01*
X192971500Y-109802250D01*
X193924000Y-109802250D01*
X193924000Y-108818000D01*
X192971500Y-108818000D01*
X192019000Y-108818000D01*
X191066500Y-108818000D01*
X190082250Y-108818000D01*
X187193000Y-108818000D01*
X186240500Y-108818000D01*
X186240500Y-107865500D01*
X187193000Y-107865500D01*
X187193000Y-106913000D01*
X186240500Y-106913000D01*
X186240500Y-105928750D01*
X185288000Y-105928750D01*
X185288000Y-104976250D01*
X182398750Y-104976250D01*
X182398750Y-105928750D01*
X181446250Y-105928750D01*
X181446250Y-106913000D01*
X179509500Y-106913000D01*
X179509500Y-109802250D01*
X178557000Y-109802250D01*
X178557000Y-107865500D01*
X177572750Y-107865500D01*
X177572750Y-108818000D01*
X170841750Y-108818000D01*
X170841750Y-107865500D01*
X171826000Y-107865500D01*
X171826000Y-106913000D01*
X170841750Y-106913000D01*
X170841750Y-104976250D01*
X171826000Y-104976250D01*
X171826000Y-106913000D01*
X172778500Y-106913000D01*
X172778500Y-107865500D01*
X174683500Y-107865500D01*
X174683500Y-105928750D01*
X175667750Y-105928750D01*
X175667750Y-106913000D01*
X176620250Y-106913000D01*
X176620250Y-107865500D01*
X177572750Y-107865500D01*
X177572750Y-106913000D01*
X178557000Y-106913000D01*
X178557000Y-105928750D01*
X180462000Y-105928750D01*
X180462000Y-104976250D01*
X181446250Y-104976250D01*
X181446250Y-103071250D01*
X183351250Y-103071250D01*
X183351250Y-101134500D01*
X184303750Y-101134500D01*
X184303750Y-100182000D01*
X185288000Y-100182000D01*
X185288000Y-99197750D01*
X184303750Y-99197750D01*
X184303750Y-97292750D01*
X185288000Y-97292750D01*
X185288000Y-99197750D01*
X186240500Y-99197750D01*
X186240500Y-97292750D01*
X185288000Y-97292750D01*
X184303750Y-97292750D01*
X183351250Y-97292750D01*
X183351250Y-95356000D01*
X184303750Y-95356000D01*
X184303750Y-96308500D01*
X185288000Y-96308500D01*
X185288000Y-95356000D01*
X184303750Y-95356000D01*
X183351250Y-95356000D01*
X182398750Y-95356000D01*
X182398750Y-97292750D01*
X180462000Y-97292750D01*
X180462000Y-98245250D01*
X179509500Y-98245250D01*
X179509500Y-99197750D01*
X180462000Y-99197750D01*
X180462000Y-100182000D01*
X179509500Y-100182000D01*
X179509500Y-101134500D01*
X178557000Y-101134500D01*
X178557000Y-102087000D01*
X177572750Y-102087000D01*
X177572750Y-103071250D01*
X175667750Y-103071250D01*
X175667750Y-104976250D01*
X174683500Y-104976250D01*
X174683500Y-104023750D01*
X173731000Y-104023750D01*
X173731000Y-104976250D01*
X171826000Y-104976250D01*
X171826000Y-104023750D01*
X170841750Y-104023750D01*
X170841750Y-103071250D01*
X172778500Y-103071250D01*
X172778500Y-104023750D01*
X173731000Y-104023750D01*
X173731000Y-103071250D01*
X172778500Y-103071250D01*
X170841750Y-103071250D01*
X170841750Y-102087000D01*
X171826000Y-102087000D01*
X171826000Y-101134500D01*
X170841750Y-101134500D01*
X170841750Y-100182000D01*
X174683500Y-100182000D01*
X174683500Y-101134500D01*
X173731000Y-101134500D01*
X173731000Y-103071250D01*
X174683500Y-103071250D01*
X174683500Y-102087000D01*
X177572750Y-102087000D01*
X177572750Y-101134500D01*
X178557000Y-101134500D01*
X178557000Y-100182000D01*
X179509500Y-100182000D01*
X179509500Y-99197750D01*
X178557000Y-99197750D01*
X178557000Y-98245250D01*
X179509500Y-98245250D01*
X179509500Y-97292750D01*
X178557000Y-97292750D01*
X178557000Y-94403500D01*
X179509500Y-94403500D01*
X179509500Y-95356000D01*
X180462000Y-95356000D01*
X180462000Y-96308500D01*
X181446250Y-96308500D01*
X181446250Y-94403500D01*
X183351250Y-94403500D01*
X183351250Y-93451000D01*
X184303750Y-93451000D01*
X184303750Y-94403500D01*
X186240500Y-94403500D01*
X186240500Y-96308500D01*
X187193000Y-96308500D01*
X187193000Y-100182000D01*
X188177250Y-100182000D01*
X188177250Y-101134500D01*
X184303750Y-101134500D01*
X184303750Y-102087000D01*
X185288000Y-102087000D01*
X185288000Y-104023750D01*
X186240500Y-104023750D01*
X186240500Y-104976250D01*
X187193000Y-104976250D01*
X187193000Y-106913000D01*
X188177250Y-106913000D01*
X188177250Y-107865500D01*
X189129750Y-107865500D01*
X189129750Y-106913000D01*
X190082250Y-106913000D01*
X190082250Y-105928750D01*
X188177250Y-105928750D01*
X188177250Y-104976250D01*
X187193000Y-104976250D01*
X187193000Y-102087000D01*
X189129750Y-102087000D01*
X189129750Y-103071250D01*
G36*
X193924000Y-100182000D02*
G01*
X194908250Y-100182000D01*
X194908250Y-101134500D01*
X193924000Y-101134500D01*
X193924000Y-100182000D01*
X193924000Y-100182000D01*
G37*
X193924000Y-100182000D02*
X194908250Y-100182000D01*
X194908250Y-101134500D01*
X193924000Y-101134500D01*
X193924000Y-100182000D01*
G36*
X184303750Y-113644000D02*
G01*
X184303750Y-114596500D01*
X185288000Y-114596500D01*
X185288000Y-116533250D01*
X178557000Y-116533250D01*
X178557000Y-114596500D01*
X180462000Y-114596500D01*
X180462000Y-115549000D01*
X181446250Y-115549000D01*
X181446250Y-114596500D01*
X180462000Y-114596500D01*
X178557000Y-114596500D01*
X178557000Y-112691500D01*
X179509500Y-112691500D01*
X179509500Y-113644000D01*
X180462000Y-113644000D01*
X182398750Y-113644000D01*
X182398750Y-114596500D01*
X183351250Y-114596500D01*
X183351250Y-113644000D01*
X182398750Y-113644000D01*
X180462000Y-113644000D01*
X180462000Y-112691500D01*
X179509500Y-112691500D01*
X179509500Y-110754750D01*
X180462000Y-110754750D01*
X180462000Y-111707250D01*
X181446250Y-111707250D01*
X181446250Y-112691500D01*
X182398750Y-112691500D01*
X182398750Y-111707250D01*
X183351250Y-111707250D01*
X183351250Y-113644000D01*
X184303750Y-113644000D01*
X184303750Y-113644000D01*
G37*
X184303750Y-113644000D02*
X184303750Y-114596500D01*
X185288000Y-114596500D01*
X185288000Y-116533250D01*
X178557000Y-116533250D01*
X178557000Y-114596500D01*
X180462000Y-114596500D01*
X180462000Y-115549000D01*
X181446250Y-115549000D01*
X181446250Y-114596500D01*
X180462000Y-114596500D01*
X178557000Y-114596500D01*
X178557000Y-112691500D01*
X179509500Y-112691500D01*
X179509500Y-113644000D01*
X180462000Y-113644000D01*
X182398750Y-113644000D01*
X182398750Y-114596500D01*
X183351250Y-114596500D01*
X183351250Y-113644000D01*
X182398750Y-113644000D01*
X180462000Y-113644000D01*
X180462000Y-112691500D01*
X179509500Y-112691500D01*
X179509500Y-110754750D01*
X180462000Y-110754750D01*
X180462000Y-111707250D01*
X181446250Y-111707250D01*
X181446250Y-112691500D01*
X182398750Y-112691500D01*
X182398750Y-111707250D01*
X183351250Y-111707250D01*
X183351250Y-113644000D01*
X184303750Y-113644000D01*
G36*
X190082250Y-103071250D02*
G01*
X190082250Y-102087000D01*
X191066500Y-102087000D01*
X191066500Y-103071250D01*
X190082250Y-103071250D01*
X190082250Y-103071250D01*
G37*
X190082250Y-103071250D02*
X190082250Y-102087000D01*
X191066500Y-102087000D01*
X191066500Y-103071250D01*
X190082250Y-103071250D01*
G36*
X186240500Y-92466750D02*
G01*
X187193000Y-92466750D01*
X187193000Y-94403500D01*
X186240500Y-94403500D01*
X186240500Y-92466750D01*
X186240500Y-92466750D01*
G37*
X186240500Y-92466750D02*
X187193000Y-92466750D01*
X187193000Y-94403500D01*
X186240500Y-94403500D01*
X186240500Y-92466750D01*
G36*
X176620250Y-101134500D02*
G01*
X176620250Y-100182000D01*
X177572750Y-100182000D01*
X177572750Y-101134500D01*
X176620250Y-101134500D01*
X176620250Y-101134500D01*
G37*
X176620250Y-101134500D02*
X176620250Y-100182000D01*
X177572750Y-100182000D01*
X177572750Y-101134500D01*
X176620250Y-101134500D01*
G36*
X177572750Y-116533250D02*
G01*
X170841750Y-116533250D01*
X170841750Y-110754750D01*
X171826000Y-110754750D01*
X171826000Y-115549000D01*
X176620250Y-115549000D01*
X176620250Y-110754750D01*
X171826000Y-110754750D01*
X170841750Y-110754750D01*
X170841750Y-109802250D01*
X177572750Y-109802250D01*
X177572750Y-116533250D01*
X177572750Y-116533250D01*
G37*
X177572750Y-116533250D02*
X170841750Y-116533250D01*
X170841750Y-110754750D01*
X171826000Y-110754750D01*
X171826000Y-115549000D01*
X176620250Y-115549000D01*
X176620250Y-110754750D01*
X171826000Y-110754750D01*
X170841750Y-110754750D01*
X170841750Y-109802250D01*
X177572750Y-109802250D01*
X177572750Y-116533250D01*
G36*
X127016687Y-58336849D02*
G01*
X127131813Y-58394357D01*
X127234311Y-58475870D01*
X127334860Y-58601559D01*
X127444142Y-58791597D01*
X127572839Y-59066155D01*
X127731630Y-59445403D01*
X127931197Y-59949514D01*
X128096464Y-60376047D01*
X128491729Y-61400761D01*
X129947198Y-61020755D01*
X130569669Y-60859350D01*
X131051089Y-60739378D01*
X131413991Y-60658522D01*
X131680910Y-60614466D01*
X131874377Y-60604892D01*
X132016927Y-60627484D01*
X132131091Y-60679925D01*
X132239405Y-60759898D01*
X132266292Y-60782307D01*
X132448162Y-60984184D01*
X132561612Y-61199885D01*
X132570254Y-61234217D01*
X132561115Y-61524296D01*
X132457836Y-61831624D01*
X132291138Y-62067796D01*
X132276031Y-62080929D01*
X132155007Y-62134930D01*
X131898819Y-62218901D01*
X131537154Y-62324124D01*
X131099700Y-62441878D01*
X130717749Y-62538597D01*
X130246948Y-62656855D01*
X129833480Y-62765006D01*
X129505440Y-62855356D01*
X129290922Y-62920210D01*
X129219431Y-62948971D01*
X129233654Y-63039182D01*
X129314439Y-63249271D01*
X129447363Y-63550398D01*
X129618007Y-63913729D01*
X129811948Y-64310425D01*
X130014766Y-64711650D01*
X130212039Y-65088568D01*
X130389348Y-65412340D01*
X130532270Y-65654130D01*
X130626385Y-65785102D01*
X130644863Y-65799326D01*
X130760975Y-65793292D01*
X131007963Y-65749092D01*
X131353440Y-65673490D01*
X131765017Y-65573248D01*
X131923118Y-65532434D01*
X132383818Y-65415983D01*
X132822306Y-65312770D01*
X133194933Y-65232561D01*
X133458052Y-65185125D01*
X133498854Y-65179835D01*
X133756635Y-65162911D01*
X133924941Y-65203564D01*
X134080756Y-65328299D01*
X134155021Y-65405736D01*
X134360727Y-65723601D01*
X134399794Y-66063866D01*
X134282538Y-66418671D01*
X134140552Y-66588436D01*
X133888188Y-66746972D01*
X133510609Y-66900371D01*
X132992979Y-67054727D01*
X132364665Y-67206315D01*
X132015174Y-67290963D01*
X131737563Y-67370904D01*
X131566842Y-67435296D01*
X131529667Y-67464871D01*
X131566165Y-67561884D01*
X131666781Y-67781577D01*
X131818195Y-68096043D01*
X132007086Y-68477372D01*
X132116077Y-68693567D01*
X132491722Y-69437539D01*
X132794124Y-70047404D01*
X133028385Y-70539177D01*
X133199603Y-70928874D01*
X133312878Y-71232508D01*
X133373309Y-71466094D01*
X133385996Y-71645648D01*
X133356038Y-71787184D01*
X133288536Y-71906717D01*
X133188588Y-72020261D01*
X133178596Y-72030314D01*
X132873525Y-72239649D01*
X132518758Y-72292773D01*
X132404010Y-72280740D01*
X132180903Y-72187387D01*
X131959724Y-71967192D01*
X131730039Y-71606767D01*
X131485570Y-71102166D01*
X131288852Y-70671071D01*
X131063102Y-70201534D01*
X130820858Y-69716941D01*
X130574657Y-69240679D01*
X130337039Y-68796135D01*
X130120541Y-68406694D01*
X129937700Y-68095743D01*
X129801055Y-67886668D01*
X129723144Y-67802857D01*
X129716673Y-67802737D01*
X129589037Y-67837772D01*
X129322868Y-67901830D01*
X128945311Y-67988947D01*
X128483510Y-68093155D01*
X127964610Y-68208487D01*
X127415757Y-68328978D01*
X126864096Y-68448661D01*
X126336772Y-68561569D01*
X125860929Y-68661737D01*
X125463714Y-68743197D01*
X125222000Y-68790657D01*
X124795093Y-68876727D01*
X124384580Y-68968274D01*
X124046374Y-69052394D01*
X123884429Y-69099352D01*
X123601281Y-69167052D01*
X123348854Y-69187546D01*
X123263379Y-69177399D01*
X122960365Y-69024068D01*
X122749951Y-68766951D01*
X122644602Y-68450480D01*
X122656782Y-68119085D01*
X122798957Y-67817197D01*
X122861785Y-67745973D01*
X122974590Y-67644424D01*
X123104344Y-67560147D01*
X123276680Y-67485069D01*
X123517231Y-67411119D01*
X123851629Y-67330227D01*
X124305509Y-67234321D01*
X124798667Y-67136093D01*
X125273009Y-67040369D01*
X125853471Y-66919378D01*
X126481103Y-66785622D01*
X127096957Y-66651600D01*
X127393951Y-66585736D01*
X127873666Y-66478980D01*
X128293936Y-66386342D01*
X128627834Y-66313685D01*
X128848433Y-66266871D01*
X128928276Y-66251667D01*
X128903000Y-66180853D01*
X128815289Y-65987359D01*
X128679139Y-65699608D01*
X128508547Y-65346022D01*
X128317509Y-64955024D01*
X128120022Y-64555037D01*
X127930082Y-64174482D01*
X127761687Y-63841782D01*
X127628833Y-63585360D01*
X127545516Y-63433638D01*
X127526965Y-63406076D01*
X127435975Y-63413854D01*
X127232482Y-63467566D01*
X126997701Y-63543125D01*
X126738458Y-63616112D01*
X126345734Y-63706429D01*
X125853759Y-63808024D01*
X125296763Y-63914845D01*
X124708977Y-64020839D01*
X124124629Y-64119954D01*
X123577952Y-64206139D01*
X123103173Y-64273340D01*
X122734525Y-64315506D01*
X122566072Y-64326678D01*
X122287295Y-64323769D01*
X122107602Y-64277818D01*
X121957622Y-64163000D01*
X121867572Y-64066639D01*
X121670308Y-63758239D01*
X121636288Y-63441390D01*
X121720065Y-63169398D01*
X121917701Y-62938440D01*
X122271326Y-62767411D01*
X122778044Y-62657682D01*
X122809000Y-62653618D01*
X123377044Y-62574144D01*
X123970405Y-62478819D01*
X124565689Y-62372679D01*
X125139506Y-62260761D01*
X125668461Y-62148102D01*
X126129163Y-62039739D01*
X126498220Y-61940708D01*
X126752238Y-61856048D01*
X126867825Y-61790794D01*
X126872371Y-61778696D01*
X126842725Y-61684659D01*
X126761102Y-61460576D01*
X126637809Y-61133865D01*
X126483155Y-60731942D01*
X126360572Y-60417499D01*
X126151250Y-59870192D01*
X126007713Y-59452903D01*
X125927089Y-59140856D01*
X125906507Y-58909279D01*
X125943097Y-58733397D01*
X126033986Y-58588436D01*
X126136559Y-58484653D01*
X126450676Y-58294246D01*
X126792130Y-58270449D01*
X127016687Y-58336849D01*
X127016687Y-58336849D01*
G37*
X127016687Y-58336849D02*
X127131813Y-58394357D01*
X127234311Y-58475870D01*
X127334860Y-58601559D01*
X127444142Y-58791597D01*
X127572839Y-59066155D01*
X127731630Y-59445403D01*
X127931197Y-59949514D01*
X128096464Y-60376047D01*
X128491729Y-61400761D01*
X129947198Y-61020755D01*
X130569669Y-60859350D01*
X131051089Y-60739378D01*
X131413991Y-60658522D01*
X131680910Y-60614466D01*
X131874377Y-60604892D01*
X132016927Y-60627484D01*
X132131091Y-60679925D01*
X132239405Y-60759898D01*
X132266292Y-60782307D01*
X132448162Y-60984184D01*
X132561612Y-61199885D01*
X132570254Y-61234217D01*
X132561115Y-61524296D01*
X132457836Y-61831624D01*
X132291138Y-62067796D01*
X132276031Y-62080929D01*
X132155007Y-62134930D01*
X131898819Y-62218901D01*
X131537154Y-62324124D01*
X131099700Y-62441878D01*
X130717749Y-62538597D01*
X130246948Y-62656855D01*
X129833480Y-62765006D01*
X129505440Y-62855356D01*
X129290922Y-62920210D01*
X129219431Y-62948971D01*
X129233654Y-63039182D01*
X129314439Y-63249271D01*
X129447363Y-63550398D01*
X129618007Y-63913729D01*
X129811948Y-64310425D01*
X130014766Y-64711650D01*
X130212039Y-65088568D01*
X130389348Y-65412340D01*
X130532270Y-65654130D01*
X130626385Y-65785102D01*
X130644863Y-65799326D01*
X130760975Y-65793292D01*
X131007963Y-65749092D01*
X131353440Y-65673490D01*
X131765017Y-65573248D01*
X131923118Y-65532434D01*
X132383818Y-65415983D01*
X132822306Y-65312770D01*
X133194933Y-65232561D01*
X133458052Y-65185125D01*
X133498854Y-65179835D01*
X133756635Y-65162911D01*
X133924941Y-65203564D01*
X134080756Y-65328299D01*
X134155021Y-65405736D01*
X134360727Y-65723601D01*
X134399794Y-66063866D01*
X134282538Y-66418671D01*
X134140552Y-66588436D01*
X133888188Y-66746972D01*
X133510609Y-66900371D01*
X132992979Y-67054727D01*
X132364665Y-67206315D01*
X132015174Y-67290963D01*
X131737563Y-67370904D01*
X131566842Y-67435296D01*
X131529667Y-67464871D01*
X131566165Y-67561884D01*
X131666781Y-67781577D01*
X131818195Y-68096043D01*
X132007086Y-68477372D01*
X132116077Y-68693567D01*
X132491722Y-69437539D01*
X132794124Y-70047404D01*
X133028385Y-70539177D01*
X133199603Y-70928874D01*
X133312878Y-71232508D01*
X133373309Y-71466094D01*
X133385996Y-71645648D01*
X133356038Y-71787184D01*
X133288536Y-71906717D01*
X133188588Y-72020261D01*
X133178596Y-72030314D01*
X132873525Y-72239649D01*
X132518758Y-72292773D01*
X132404010Y-72280740D01*
X132180903Y-72187387D01*
X131959724Y-71967192D01*
X131730039Y-71606767D01*
X131485570Y-71102166D01*
X131288852Y-70671071D01*
X131063102Y-70201534D01*
X130820858Y-69716941D01*
X130574657Y-69240679D01*
X130337039Y-68796135D01*
X130120541Y-68406694D01*
X129937700Y-68095743D01*
X129801055Y-67886668D01*
X129723144Y-67802857D01*
X129716673Y-67802737D01*
X129589037Y-67837772D01*
X129322868Y-67901830D01*
X128945311Y-67988947D01*
X128483510Y-68093155D01*
X127964610Y-68208487D01*
X127415757Y-68328978D01*
X126864096Y-68448661D01*
X126336772Y-68561569D01*
X125860929Y-68661737D01*
X125463714Y-68743197D01*
X125222000Y-68790657D01*
X124795093Y-68876727D01*
X124384580Y-68968274D01*
X124046374Y-69052394D01*
X123884429Y-69099352D01*
X123601281Y-69167052D01*
X123348854Y-69187546D01*
X123263379Y-69177399D01*
X122960365Y-69024068D01*
X122749951Y-68766951D01*
X122644602Y-68450480D01*
X122656782Y-68119085D01*
X122798957Y-67817197D01*
X122861785Y-67745973D01*
X122974590Y-67644424D01*
X123104344Y-67560147D01*
X123276680Y-67485069D01*
X123517231Y-67411119D01*
X123851629Y-67330227D01*
X124305509Y-67234321D01*
X124798667Y-67136093D01*
X125273009Y-67040369D01*
X125853471Y-66919378D01*
X126481103Y-66785622D01*
X127096957Y-66651600D01*
X127393951Y-66585736D01*
X127873666Y-66478980D01*
X128293936Y-66386342D01*
X128627834Y-66313685D01*
X128848433Y-66266871D01*
X128928276Y-66251667D01*
X128903000Y-66180853D01*
X128815289Y-65987359D01*
X128679139Y-65699608D01*
X128508547Y-65346022D01*
X128317509Y-64955024D01*
X128120022Y-64555037D01*
X127930082Y-64174482D01*
X127761687Y-63841782D01*
X127628833Y-63585360D01*
X127545516Y-63433638D01*
X127526965Y-63406076D01*
X127435975Y-63413854D01*
X127232482Y-63467566D01*
X126997701Y-63543125D01*
X126738458Y-63616112D01*
X126345734Y-63706429D01*
X125853759Y-63808024D01*
X125296763Y-63914845D01*
X124708977Y-64020839D01*
X124124629Y-64119954D01*
X123577952Y-64206139D01*
X123103173Y-64273340D01*
X122734525Y-64315506D01*
X122566072Y-64326678D01*
X122287295Y-64323769D01*
X122107602Y-64277818D01*
X121957622Y-64163000D01*
X121867572Y-64066639D01*
X121670308Y-63758239D01*
X121636288Y-63441390D01*
X121720065Y-63169398D01*
X121917701Y-62938440D01*
X122271326Y-62767411D01*
X122778044Y-62657682D01*
X122809000Y-62653618D01*
X123377044Y-62574144D01*
X123970405Y-62478819D01*
X124565689Y-62372679D01*
X125139506Y-62260761D01*
X125668461Y-62148102D01*
X126129163Y-62039739D01*
X126498220Y-61940708D01*
X126752238Y-61856048D01*
X126867825Y-61790794D01*
X126872371Y-61778696D01*
X126842725Y-61684659D01*
X126761102Y-61460576D01*
X126637809Y-61133865D01*
X126483155Y-60731942D01*
X126360572Y-60417499D01*
X126151250Y-59870192D01*
X126007713Y-59452903D01*
X125927089Y-59140856D01*
X125906507Y-58909279D01*
X125943097Y-58733397D01*
X126033986Y-58588436D01*
X126136559Y-58484653D01*
X126450676Y-58294246D01*
X126792130Y-58270449D01*
X127016687Y-58336849D01*
G36*
X150824540Y-61961696D02*
G01*
X151103790Y-62114635D01*
X151114259Y-62124167D01*
X151212454Y-62238837D01*
X151295740Y-62398194D01*
X151369020Y-62623809D01*
X151437200Y-62937253D01*
X151505183Y-63360095D01*
X151577873Y-63913908D01*
X151638789Y-64431334D01*
X151706250Y-65001352D01*
X151776950Y-65561854D01*
X151847214Y-66087212D01*
X151913370Y-66551797D01*
X151971742Y-66929980D01*
X152018658Y-67196131D01*
X152050444Y-67324622D01*
X152054505Y-67331394D01*
X152143858Y-67327565D01*
X152372935Y-67297752D01*
X152714815Y-67246018D01*
X153142575Y-67176424D01*
X153597654Y-67098571D01*
X154723175Y-66875796D01*
X155942423Y-66583655D01*
X157272829Y-66217626D01*
X158731824Y-65773184D01*
X158855784Y-65733734D01*
X159285585Y-65598378D01*
X159588539Y-65510919D01*
X159798582Y-65466129D01*
X159949653Y-65458779D01*
X160075687Y-65483639D01*
X160192331Y-65527796D01*
X160474801Y-65722135D01*
X160619573Y-65958804D01*
X160695093Y-66174970D01*
X160691874Y-66341804D01*
X160606238Y-66552920D01*
X160595359Y-66575257D01*
X160526364Y-66702462D01*
X160443393Y-66801487D01*
X160317447Y-66887690D01*
X160119527Y-66976429D01*
X159820635Y-67083063D01*
X159391771Y-67222950D01*
X159342667Y-67238702D01*
X157649844Y-67755200D01*
X156091116Y-68176021D01*
X154661717Y-68502396D01*
X153896417Y-68647793D01*
X152344834Y-68918667D01*
X152383916Y-69299667D01*
X152402377Y-69496437D01*
X152431883Y-69831051D01*
X152469786Y-70272574D01*
X152513441Y-70790073D01*
X152560202Y-71352612D01*
X152576744Y-71553592D01*
X152730489Y-73426518D01*
X153242578Y-73579642D01*
X153792153Y-73780448D01*
X154426772Y-74073822D01*
X155105765Y-74438890D01*
X155788461Y-74854775D01*
X156003050Y-74996521D01*
X156404001Y-75266207D01*
X156828676Y-75550798D01*
X157213657Y-75807837D01*
X157395334Y-75928603D01*
X157765114Y-76177297D01*
X158015248Y-76360024D01*
X158168973Y-76501692D01*
X158249529Y-76627205D01*
X158280153Y-76761469D01*
X158284334Y-76881376D01*
X158224856Y-77177487D01*
X158060304Y-77389376D01*
X157850131Y-77540960D01*
X157630973Y-77593902D01*
X157375508Y-77542661D01*
X157056415Y-77381696D01*
X156646370Y-77105467D01*
X156640912Y-77101521D01*
X155776314Y-76489966D01*
X155025364Y-75989006D01*
X154378795Y-75592761D01*
X153827340Y-75295355D01*
X153688150Y-75228731D01*
X153273271Y-75035227D01*
X152986111Y-74913388D01*
X152797284Y-74871701D01*
X152677403Y-74918653D01*
X152597082Y-75062731D01*
X152526933Y-75312424D01*
X152461079Y-75583131D01*
X152346653Y-75998234D01*
X152212481Y-76418024D01*
X152082707Y-76768453D01*
X152048399Y-76848637D01*
X151760540Y-77326381D01*
X151354013Y-77781819D01*
X150877573Y-78167283D01*
X150459938Y-78401709D01*
X149999771Y-78548612D01*
X149452466Y-78637851D01*
X148892606Y-78661960D01*
X148394776Y-78613469D01*
X148378334Y-78610147D01*
X147924470Y-78470163D01*
X147416251Y-78240091D01*
X146915574Y-77952969D01*
X146484334Y-77641832D01*
X146361687Y-77533777D01*
X145966029Y-77075352D01*
X145684758Y-76567110D01*
X145526711Y-76039934D01*
X145511729Y-75742847D01*
X146854334Y-75742847D01*
X146932901Y-76061039D01*
X147150299Y-76387554D01*
X147479071Y-76698742D01*
X147891759Y-76970955D01*
X148360906Y-77180542D01*
X148609852Y-77254903D01*
X148970366Y-77299567D01*
X149379794Y-77284152D01*
X149760472Y-77215519D01*
X149979074Y-77133942D01*
X150370405Y-76846053D01*
X150701113Y-76444647D01*
X150903270Y-76045370D01*
X151025436Y-75683531D01*
X151127461Y-75324709D01*
X151200392Y-75007901D01*
X151235275Y-74772102D01*
X151223157Y-74656308D01*
X151222395Y-74655507D01*
X151107255Y-74630651D01*
X150856967Y-74627545D01*
X150503873Y-74643019D01*
X150080315Y-74673907D01*
X149618635Y-74717042D01*
X149151176Y-74769255D01*
X148710279Y-74827380D01*
X148328286Y-74888249D01*
X148037540Y-74948695D01*
X147938418Y-74977120D01*
X147504933Y-75151862D01*
X147163367Y-75348411D01*
X146938326Y-75549389D01*
X146854413Y-75737416D01*
X146854334Y-75742847D01*
X145511729Y-75742847D01*
X145500727Y-75524708D01*
X145615642Y-75052317D01*
X145637640Y-75003500D01*
X145877516Y-74659965D01*
X146251927Y-74323500D01*
X146726727Y-74016034D01*
X147267770Y-73759494D01*
X147840912Y-73575811D01*
X147872346Y-73568338D01*
X148192000Y-73509375D01*
X148633662Y-73448865D01*
X149150117Y-73391374D01*
X149694150Y-73341469D01*
X150218546Y-73303717D01*
X150676090Y-73282685D01*
X150854834Y-73279874D01*
X151134702Y-73271212D01*
X151283082Y-73238869D01*
X151337377Y-73171381D01*
X151341128Y-73130834D01*
X151333343Y-72957600D01*
X151312638Y-72652914D01*
X151281939Y-72250782D01*
X151244171Y-71785208D01*
X151202259Y-71290199D01*
X151159128Y-70799759D01*
X151117703Y-70347895D01*
X151080910Y-69968613D01*
X151051674Y-69695917D01*
X151035233Y-69574834D01*
X150963869Y-69376635D01*
X150860294Y-69299667D01*
X150860065Y-69299667D01*
X150688178Y-69230700D01*
X150497335Y-69060024D01*
X150334339Y-68841973D01*
X150245988Y-68630882D01*
X150241000Y-68580947D01*
X150320795Y-68221170D01*
X150541438Y-67907847D01*
X150590354Y-67863839D01*
X150685408Y-67752150D01*
X150704371Y-67603563D01*
X150664943Y-67385872D01*
X150630872Y-67198223D01*
X150581877Y-66873206D01*
X150522193Y-66441699D01*
X150456050Y-65934580D01*
X150387681Y-65382726D01*
X150369009Y-65226872D01*
X150300135Y-64667345D01*
X150231265Y-64143369D01*
X150166823Y-63686012D01*
X150111233Y-63326341D01*
X150068920Y-63095422D01*
X150060282Y-63058937D01*
X150007293Y-62646058D01*
X150092658Y-62316786D01*
X150257990Y-62105343D01*
X150526966Y-61958255D01*
X150824540Y-61961696D01*
X150824540Y-61961696D01*
G37*
X150824540Y-61961696D02*
X151103790Y-62114635D01*
X151114259Y-62124167D01*
X151212454Y-62238837D01*
X151295740Y-62398194D01*
X151369020Y-62623809D01*
X151437200Y-62937253D01*
X151505183Y-63360095D01*
X151577873Y-63913908D01*
X151638789Y-64431334D01*
X151706250Y-65001352D01*
X151776950Y-65561854D01*
X151847214Y-66087212D01*
X151913370Y-66551797D01*
X151971742Y-66929980D01*
X152018658Y-67196131D01*
X152050444Y-67324622D01*
X152054505Y-67331394D01*
X152143858Y-67327565D01*
X152372935Y-67297752D01*
X152714815Y-67246018D01*
X153142575Y-67176424D01*
X153597654Y-67098571D01*
X154723175Y-66875796D01*
X155942423Y-66583655D01*
X157272829Y-66217626D01*
X158731824Y-65773184D01*
X158855784Y-65733734D01*
X159285585Y-65598378D01*
X159588539Y-65510919D01*
X159798582Y-65466129D01*
X159949653Y-65458779D01*
X160075687Y-65483639D01*
X160192331Y-65527796D01*
X160474801Y-65722135D01*
X160619573Y-65958804D01*
X160695093Y-66174970D01*
X160691874Y-66341804D01*
X160606238Y-66552920D01*
X160595359Y-66575257D01*
X160526364Y-66702462D01*
X160443393Y-66801487D01*
X160317447Y-66887690D01*
X160119527Y-66976429D01*
X159820635Y-67083063D01*
X159391771Y-67222950D01*
X159342667Y-67238702D01*
X157649844Y-67755200D01*
X156091116Y-68176021D01*
X154661717Y-68502396D01*
X153896417Y-68647793D01*
X152344834Y-68918667D01*
X152383916Y-69299667D01*
X152402377Y-69496437D01*
X152431883Y-69831051D01*
X152469786Y-70272574D01*
X152513441Y-70790073D01*
X152560202Y-71352612D01*
X152576744Y-71553592D01*
X152730489Y-73426518D01*
X153242578Y-73579642D01*
X153792153Y-73780448D01*
X154426772Y-74073822D01*
X155105765Y-74438890D01*
X155788461Y-74854775D01*
X156003050Y-74996521D01*
X156404001Y-75266207D01*
X156828676Y-75550798D01*
X157213657Y-75807837D01*
X157395334Y-75928603D01*
X157765114Y-76177297D01*
X158015248Y-76360024D01*
X158168973Y-76501692D01*
X158249529Y-76627205D01*
X158280153Y-76761469D01*
X158284334Y-76881376D01*
X158224856Y-77177487D01*
X158060304Y-77389376D01*
X157850131Y-77540960D01*
X157630973Y-77593902D01*
X157375508Y-77542661D01*
X157056415Y-77381696D01*
X156646370Y-77105467D01*
X156640912Y-77101521D01*
X155776314Y-76489966D01*
X155025364Y-75989006D01*
X154378795Y-75592761D01*
X153827340Y-75295355D01*
X153688150Y-75228731D01*
X153273271Y-75035227D01*
X152986111Y-74913388D01*
X152797284Y-74871701D01*
X152677403Y-74918653D01*
X152597082Y-75062731D01*
X152526933Y-75312424D01*
X152461079Y-75583131D01*
X152346653Y-75998234D01*
X152212481Y-76418024D01*
X152082707Y-76768453D01*
X152048399Y-76848637D01*
X151760540Y-77326381D01*
X151354013Y-77781819D01*
X150877573Y-78167283D01*
X150459938Y-78401709D01*
X149999771Y-78548612D01*
X149452466Y-78637851D01*
X148892606Y-78661960D01*
X148394776Y-78613469D01*
X148378334Y-78610147D01*
X147924470Y-78470163D01*
X147416251Y-78240091D01*
X146915574Y-77952969D01*
X146484334Y-77641832D01*
X146361687Y-77533777D01*
X145966029Y-77075352D01*
X145684758Y-76567110D01*
X145526711Y-76039934D01*
X145511729Y-75742847D01*
X146854334Y-75742847D01*
X146932901Y-76061039D01*
X147150299Y-76387554D01*
X147479071Y-76698742D01*
X147891759Y-76970955D01*
X148360906Y-77180542D01*
X148609852Y-77254903D01*
X148970366Y-77299567D01*
X149379794Y-77284152D01*
X149760472Y-77215519D01*
X149979074Y-77133942D01*
X150370405Y-76846053D01*
X150701113Y-76444647D01*
X150903270Y-76045370D01*
X151025436Y-75683531D01*
X151127461Y-75324709D01*
X151200392Y-75007901D01*
X151235275Y-74772102D01*
X151223157Y-74656308D01*
X151222395Y-74655507D01*
X151107255Y-74630651D01*
X150856967Y-74627545D01*
X150503873Y-74643019D01*
X150080315Y-74673907D01*
X149618635Y-74717042D01*
X149151176Y-74769255D01*
X148710279Y-74827380D01*
X148328286Y-74888249D01*
X148037540Y-74948695D01*
X147938418Y-74977120D01*
X147504933Y-75151862D01*
X147163367Y-75348411D01*
X146938326Y-75549389D01*
X146854413Y-75737416D01*
X146854334Y-75742847D01*
X145511729Y-75742847D01*
X145500727Y-75524708D01*
X145615642Y-75052317D01*
X145637640Y-75003500D01*
X145877516Y-74659965D01*
X146251927Y-74323500D01*
X146726727Y-74016034D01*
X147267770Y-73759494D01*
X147840912Y-73575811D01*
X147872346Y-73568338D01*
X148192000Y-73509375D01*
X148633662Y-73448865D01*
X149150117Y-73391374D01*
X149694150Y-73341469D01*
X150218546Y-73303717D01*
X150676090Y-73282685D01*
X150854834Y-73279874D01*
X151134702Y-73271212D01*
X151283082Y-73238869D01*
X151337377Y-73171381D01*
X151341128Y-73130834D01*
X151333343Y-72957600D01*
X151312638Y-72652914D01*
X151281939Y-72250782D01*
X151244171Y-71785208D01*
X151202259Y-71290199D01*
X151159128Y-70799759D01*
X151117703Y-70347895D01*
X151080910Y-69968613D01*
X151051674Y-69695917D01*
X151035233Y-69574834D01*
X150963869Y-69376635D01*
X150860294Y-69299667D01*
X150860065Y-69299667D01*
X150688178Y-69230700D01*
X150497335Y-69060024D01*
X150334339Y-68841973D01*
X150245988Y-68630882D01*
X150241000Y-68580947D01*
X150320795Y-68221170D01*
X150541438Y-67907847D01*
X150590354Y-67863839D01*
X150685408Y-67752150D01*
X150704371Y-67603563D01*
X150664943Y-67385872D01*
X150630872Y-67198223D01*
X150581877Y-66873206D01*
X150522193Y-66441699D01*
X150456050Y-65934580D01*
X150387681Y-65382726D01*
X150369009Y-65226872D01*
X150300135Y-64667345D01*
X150231265Y-64143369D01*
X150166823Y-63686012D01*
X150111233Y-63326341D01*
X150068920Y-63095422D01*
X150060282Y-63058937D01*
X150007293Y-62646058D01*
X150092658Y-62316786D01*
X150257990Y-62105343D01*
X150526966Y-61958255D01*
X150824540Y-61961696D01*
G36*
X129965751Y-73643737D02*
G01*
X130233865Y-73834528D01*
X130292826Y-73911881D01*
X130355321Y-74086736D01*
X130412429Y-74413857D01*
X130464316Y-74895806D01*
X130511152Y-75535148D01*
X130553104Y-76334446D01*
X130590341Y-77296262D01*
X130623030Y-78423162D01*
X130641564Y-79228447D01*
X130692799Y-81664227D01*
X130440412Y-81916614D01*
X130133429Y-82127403D01*
X129812365Y-82176004D01*
X129501382Y-82062429D01*
X129329321Y-81916057D01*
X129093037Y-81663114D01*
X129043429Y-79905224D01*
X129023509Y-79252895D01*
X128997871Y-78493358D01*
X128968756Y-77688552D01*
X128938407Y-76900416D01*
X128909065Y-76190887D01*
X128908574Y-76179533D01*
X128880533Y-75496296D01*
X128864789Y-74961387D01*
X128864573Y-74554042D01*
X128883117Y-74253499D01*
X128923652Y-74038994D01*
X128989410Y-73889765D01*
X129083623Y-73785049D01*
X129209523Y-73704082D01*
X129300955Y-73658578D01*
X129637195Y-73580596D01*
X129965751Y-73643737D01*
X129965751Y-73643737D01*
G37*
X129965751Y-73643737D02*
X130233865Y-73834528D01*
X130292826Y-73911881D01*
X130355321Y-74086736D01*
X130412429Y-74413857D01*
X130464316Y-74895806D01*
X130511152Y-75535148D01*
X130553104Y-76334446D01*
X130590341Y-77296262D01*
X130623030Y-78423162D01*
X130641564Y-79228447D01*
X130692799Y-81664227D01*
X130440412Y-81916614D01*
X130133429Y-82127403D01*
X129812365Y-82176004D01*
X129501382Y-82062429D01*
X129329321Y-81916057D01*
X129093037Y-81663114D01*
X129043429Y-79905224D01*
X129023509Y-79252895D01*
X128997871Y-78493358D01*
X128968756Y-77688552D01*
X128938407Y-76900416D01*
X128909065Y-76190887D01*
X128908574Y-76179533D01*
X128880533Y-75496296D01*
X128864789Y-74961387D01*
X128864573Y-74554042D01*
X128883117Y-74253499D01*
X128923652Y-74038994D01*
X128989410Y-73889765D01*
X129083623Y-73785049D01*
X129209523Y-73704082D01*
X129300955Y-73658578D01*
X129637195Y-73580596D01*
X129965751Y-73643737D01*
G36*
X151092293Y-81745481D02*
G01*
X151436126Y-81808062D01*
X151555088Y-81832371D01*
X152528393Y-82057406D01*
X153372997Y-82301698D01*
X154078413Y-82561451D01*
X154634151Y-82832867D01*
X154987115Y-83075016D01*
X155238128Y-83352754D01*
X155428505Y-83689234D01*
X155532791Y-84028103D01*
X155533105Y-84283670D01*
X155379755Y-84623521D01*
X155108377Y-84856448D01*
X154747789Y-84959851D01*
X154666903Y-84963000D01*
X154438961Y-84948506D01*
X154263351Y-84884707D01*
X154079897Y-84741125D01*
X153924404Y-84586936D01*
X153728686Y-84401667D01*
X153531223Y-84262384D01*
X153285469Y-84144537D01*
X152944874Y-84023574D01*
X152725456Y-83954556D01*
X152275168Y-83824234D01*
X151790708Y-83697010D01*
X151353708Y-83593936D01*
X151214667Y-83565004D01*
X150850484Y-83484280D01*
X150602715Y-83399674D01*
X150419534Y-83288078D01*
X150262167Y-83140294D01*
X150047718Y-82813841D01*
X149988673Y-82478625D01*
X150078866Y-82165937D01*
X150312133Y-81907069D01*
X150528987Y-81786031D01*
X150683046Y-81736467D01*
X150856040Y-81722283D01*
X151092293Y-81745481D01*
X151092293Y-81745481D01*
G37*
X151092293Y-81745481D02*
X151436126Y-81808062D01*
X151555088Y-81832371D01*
X152528393Y-82057406D01*
X153372997Y-82301698D01*
X154078413Y-82561451D01*
X154634151Y-82832867D01*
X154987115Y-83075016D01*
X155238128Y-83352754D01*
X155428505Y-83689234D01*
X155532791Y-84028103D01*
X155533105Y-84283670D01*
X155379755Y-84623521D01*
X155108377Y-84856448D01*
X154747789Y-84959851D01*
X154666903Y-84963000D01*
X154438961Y-84948506D01*
X154263351Y-84884707D01*
X154079897Y-84741125D01*
X153924404Y-84586936D01*
X153728686Y-84401667D01*
X153531223Y-84262384D01*
X153285469Y-84144537D01*
X152944874Y-84023574D01*
X152725456Y-83954556D01*
X152275168Y-83824234D01*
X151790708Y-83697010D01*
X151353708Y-83593936D01*
X151214667Y-83565004D01*
X150850484Y-83484280D01*
X150602715Y-83399674D01*
X150419534Y-83288078D01*
X150262167Y-83140294D01*
X150047718Y-82813841D01*
X149988673Y-82478625D01*
X150078866Y-82165937D01*
X150312133Y-81907069D01*
X150528987Y-81786031D01*
X150683046Y-81736467D01*
X150856040Y-81722283D01*
X151092293Y-81745481D01*
G36*
X139447359Y-84415229D02*
G01*
X139697496Y-84560020D01*
X139946878Y-84819866D01*
X140209432Y-85209925D01*
X140499084Y-85745357D01*
X140561588Y-85871418D01*
X140792040Y-86363608D01*
X140939499Y-86740438D01*
X141010329Y-87030384D01*
X141010896Y-87261923D01*
X140947562Y-87463533D01*
X140926665Y-87504872D01*
X140795223Y-87643768D01*
X140581457Y-87784178D01*
X140355203Y-87887263D01*
X140189553Y-87914803D01*
X140059298Y-87890410D01*
X139944496Y-87868110D01*
X139692553Y-87736090D01*
X139445724Y-87447094D01*
X139213326Y-87013428D01*
X139115329Y-86772741D01*
X138966217Y-86421660D01*
X138794582Y-86085462D01*
X138640661Y-85841408D01*
X138432684Y-85464770D01*
X138387333Y-85106726D01*
X138504658Y-84778368D01*
X138635154Y-84617821D01*
X138889150Y-84428895D01*
X139169114Y-84370419D01*
X139182541Y-84370334D01*
X139447359Y-84415229D01*
X139447359Y-84415229D01*
G37*
X139447359Y-84415229D02*
X139697496Y-84560020D01*
X139946878Y-84819866D01*
X140209432Y-85209925D01*
X140499084Y-85745357D01*
X140561588Y-85871418D01*
X140792040Y-86363608D01*
X140939499Y-86740438D01*
X141010329Y-87030384D01*
X141010896Y-87261923D01*
X140947562Y-87463533D01*
X140926665Y-87504872D01*
X140795223Y-87643768D01*
X140581457Y-87784178D01*
X140355203Y-87887263D01*
X140189553Y-87914803D01*
X140059298Y-87890410D01*
X139944496Y-87868110D01*
X139692553Y-87736090D01*
X139445724Y-87447094D01*
X139213326Y-87013428D01*
X139115329Y-86772741D01*
X138966217Y-86421660D01*
X138794582Y-86085462D01*
X138640661Y-85841408D01*
X138432684Y-85464770D01*
X138387333Y-85106726D01*
X138504658Y-84778368D01*
X138635154Y-84617821D01*
X138889150Y-84428895D01*
X139169114Y-84370419D01*
X139182541Y-84370334D01*
X139447359Y-84415229D01*
G36*
X137216012Y-84651246D02*
G01*
X137354349Y-84747213D01*
X137487234Y-84935085D01*
X137630247Y-85237706D01*
X137798965Y-85677926D01*
X137825640Y-85752162D01*
X137974193Y-86136527D01*
X138131064Y-86491111D01*
X138272881Y-86765179D01*
X138339857Y-86868346D01*
X138479781Y-87110178D01*
X138553595Y-87351617D01*
X138557000Y-87399562D01*
X138486923Y-87674040D01*
X138305448Y-87854960D01*
X138055708Y-87918000D01*
X137780840Y-87838837D01*
X137779433Y-87838019D01*
X137626927Y-87686124D01*
X137442732Y-87404907D01*
X137244297Y-87027094D01*
X137049075Y-86585410D01*
X136900922Y-86190667D01*
X136785754Y-85870538D01*
X136683202Y-85610695D01*
X136610630Y-85454329D01*
X136596310Y-85432900D01*
X136546567Y-85297969D01*
X136525024Y-85083300D01*
X136525000Y-85076046D01*
X136589313Y-84816161D01*
X136782461Y-84665972D01*
X137056645Y-84624334D01*
X137216012Y-84651246D01*
X137216012Y-84651246D01*
G37*
X137216012Y-84651246D02*
X137354349Y-84747213D01*
X137487234Y-84935085D01*
X137630247Y-85237706D01*
X137798965Y-85677926D01*
X137825640Y-85752162D01*
X137974193Y-86136527D01*
X138131064Y-86491111D01*
X138272881Y-86765179D01*
X138339857Y-86868346D01*
X138479781Y-87110178D01*
X138553595Y-87351617D01*
X138557000Y-87399562D01*
X138486923Y-87674040D01*
X138305448Y-87854960D01*
X138055708Y-87918000D01*
X137780840Y-87838837D01*
X137779433Y-87838019D01*
X137626927Y-87686124D01*
X137442732Y-87404907D01*
X137244297Y-87027094D01*
X137049075Y-86585410D01*
X136900922Y-86190667D01*
X136785754Y-85870538D01*
X136683202Y-85610695D01*
X136610630Y-85454329D01*
X136596310Y-85432900D01*
X136546567Y-85297969D01*
X136525024Y-85083300D01*
X136525000Y-85076046D01*
X136589313Y-84816161D01*
X136782461Y-84665972D01*
X137056645Y-84624334D01*
X137216012Y-84651246D01*
G36*
X133538581Y-90779826D02*
G01*
X133771385Y-90954930D01*
X134025690Y-91152558D01*
X134407401Y-91414147D01*
X134893530Y-91725845D01*
X135461087Y-92073798D01*
X136087085Y-92444152D01*
X136748533Y-92823055D01*
X137422443Y-93196653D01*
X138037944Y-93526004D01*
X138416678Y-93771603D01*
X138632365Y-94031500D01*
X138691283Y-94318288D01*
X138599711Y-94644561D01*
X138597683Y-94648854D01*
X138385795Y-94926445D01*
X138090773Y-95092080D01*
X137890032Y-95123000D01*
X137728752Y-95085238D01*
X137490980Y-94989411D01*
X137364849Y-94927615D01*
X136938288Y-94698419D01*
X136411183Y-94405366D01*
X135827084Y-94073539D01*
X135229542Y-93728025D01*
X134662107Y-93393907D01*
X134168329Y-93096272D01*
X133942667Y-92956421D01*
X133316537Y-92535005D01*
X132849294Y-92155440D01*
X132537297Y-91812061D01*
X132376902Y-91499202D01*
X132364467Y-91211199D01*
X132496350Y-90942386D01*
X132584152Y-90843485D01*
X132870197Y-90659009D01*
X133190713Y-90638012D01*
X133538581Y-90779826D01*
X133538581Y-90779826D01*
G37*
X133538581Y-90779826D02*
X133771385Y-90954930D01*
X134025690Y-91152558D01*
X134407401Y-91414147D01*
X134893530Y-91725845D01*
X135461087Y-92073798D01*
X136087085Y-92444152D01*
X136748533Y-92823055D01*
X137422443Y-93196653D01*
X138037944Y-93526004D01*
X138416678Y-93771603D01*
X138632365Y-94031500D01*
X138691283Y-94318288D01*
X138599711Y-94644561D01*
X138597683Y-94648854D01*
X138385795Y-94926445D01*
X138090773Y-95092080D01*
X137890032Y-95123000D01*
X137728752Y-95085238D01*
X137490980Y-94989411D01*
X137364849Y-94927615D01*
X136938288Y-94698419D01*
X136411183Y-94405366D01*
X135827084Y-94073539D01*
X135229542Y-93728025D01*
X134662107Y-93393907D01*
X134168329Y-93096272D01*
X133942667Y-92956421D01*
X133316537Y-92535005D01*
X132849294Y-92155440D01*
X132537297Y-91812061D01*
X132376902Y-91499202D01*
X132364467Y-91211199D01*
X132496350Y-90942386D01*
X132584152Y-90843485D01*
X132870197Y-90659009D01*
X133190713Y-90638012D01*
X133538581Y-90779826D01*
G36*
X126828667Y-89810052D02*
G01*
X126988455Y-89927546D01*
X127163975Y-90162596D01*
X127225904Y-90435191D01*
X127218001Y-90645581D01*
X127171953Y-90777081D01*
X127056178Y-91026606D01*
X126886049Y-91365782D01*
X126676938Y-91766239D01*
X126444216Y-92199603D01*
X126203256Y-92637503D01*
X125969429Y-93051566D01*
X125758107Y-93413420D01*
X125584663Y-93694693D01*
X125492168Y-93830975D01*
X125224571Y-94157990D01*
X124872187Y-94535675D01*
X124470825Y-94930581D01*
X124056293Y-95309256D01*
X123664397Y-95638251D01*
X123330947Y-95884116D01*
X123222027Y-95951649D01*
X122781120Y-96158231D01*
X122415162Y-96224213D01*
X122105246Y-96149939D01*
X121871154Y-95976180D01*
X121675188Y-95678344D01*
X121622596Y-95347248D01*
X121718914Y-95029087D01*
X121751550Y-94978100D01*
X121888818Y-94840744D01*
X122121623Y-94661463D01*
X122377570Y-94492919D01*
X122642253Y-94304520D01*
X122972463Y-94029187D01*
X123321929Y-93707171D01*
X123583187Y-93444141D01*
X123861223Y-93142463D01*
X124090681Y-92868150D01*
X124296155Y-92584761D01*
X124502241Y-92255855D01*
X124733534Y-91844993D01*
X124997049Y-91349316D01*
X125236131Y-90903849D01*
X125461788Y-90503520D01*
X125657651Y-90175855D01*
X125807352Y-89948380D01*
X125886049Y-89854383D01*
X126172940Y-89722950D01*
X126509520Y-89709658D01*
X126828667Y-89810052D01*
X126828667Y-89810052D01*
G37*
X126828667Y-89810052D02*
X126988455Y-89927546D01*
X127163975Y-90162596D01*
X127225904Y-90435191D01*
X127218001Y-90645581D01*
X127171953Y-90777081D01*
X127056178Y-91026606D01*
X126886049Y-91365782D01*
X126676938Y-91766239D01*
X126444216Y-92199603D01*
X126203256Y-92637503D01*
X125969429Y-93051566D01*
X125758107Y-93413420D01*
X125584663Y-93694693D01*
X125492168Y-93830975D01*
X125224571Y-94157990D01*
X124872187Y-94535675D01*
X124470825Y-94930581D01*
X124056293Y-95309256D01*
X123664397Y-95638251D01*
X123330947Y-95884116D01*
X123222027Y-95951649D01*
X122781120Y-96158231D01*
X122415162Y-96224213D01*
X122105246Y-96149939D01*
X121871154Y-95976180D01*
X121675188Y-95678344D01*
X121622596Y-95347248D01*
X121718914Y-95029087D01*
X121751550Y-94978100D01*
X121888818Y-94840744D01*
X122121623Y-94661463D01*
X122377570Y-94492919D01*
X122642253Y-94304520D01*
X122972463Y-94029187D01*
X123321929Y-93707171D01*
X123583187Y-93444141D01*
X123861223Y-93142463D01*
X124090681Y-92868150D01*
X124296155Y-92584761D01*
X124502241Y-92255855D01*
X124733534Y-91844993D01*
X124997049Y-91349316D01*
X125236131Y-90903849D01*
X125461788Y-90503520D01*
X125657651Y-90175855D01*
X125807352Y-89948380D01*
X125886049Y-89854383D01*
X126172940Y-89722950D01*
X126509520Y-89709658D01*
X126828667Y-89810052D01*
G36*
X129892335Y-83274178D02*
G01*
X130094879Y-83370556D01*
X130244573Y-83523183D01*
X130350789Y-83757087D01*
X130422895Y-84097300D01*
X130470263Y-84568849D01*
X130487745Y-84864635D01*
X130537710Y-85858366D01*
X131139522Y-85785381D01*
X131519501Y-85735021D01*
X131977959Y-85668100D01*
X132426633Y-85597594D01*
X132503334Y-85584889D01*
X133020607Y-85499086D01*
X133398416Y-85441396D01*
X133664329Y-85412110D01*
X133845912Y-85411517D01*
X133970733Y-85439907D01*
X134066359Y-85497569D01*
X134160359Y-85584795D01*
X134178075Y-85602499D01*
X134363296Y-85892981D01*
X134408008Y-86218819D01*
X134322475Y-86538294D01*
X134116964Y-86809684D01*
X133839703Y-86977658D01*
X133559882Y-87056930D01*
X133125080Y-87139154D01*
X132530921Y-87225022D01*
X131773029Y-87315225D01*
X131547348Y-87339607D01*
X130591363Y-87441043D01*
X130637398Y-87789522D01*
X130757489Y-88770055D01*
X130860805Y-89757584D01*
X130945873Y-90727625D01*
X131011220Y-91655691D01*
X131055376Y-92517298D01*
X131076868Y-93287960D01*
X131074225Y-93943191D01*
X131045973Y-94458508D01*
X131041179Y-94506170D01*
X130945066Y-95182827D01*
X130814064Y-95760373D01*
X130654377Y-96219089D01*
X130472211Y-96539255D01*
X130367490Y-96646958D01*
X130050461Y-96799711D01*
X129714977Y-96795967D01*
X129399762Y-96638619D01*
X129321821Y-96568846D01*
X129120185Y-96259885D01*
X129078549Y-95900093D01*
X129197520Y-95495808D01*
X129215284Y-95459142D01*
X129341273Y-95108248D01*
X129426729Y-94636000D01*
X129472301Y-94032221D01*
X129478635Y-93286733D01*
X129446380Y-92389360D01*
X129429548Y-92093478D01*
X129395454Y-91578601D01*
X129353096Y-91007444D01*
X129304971Y-90407353D01*
X129253572Y-89805673D01*
X129201395Y-89229749D01*
X129150934Y-88706927D01*
X129104685Y-88264552D01*
X129065142Y-87929969D01*
X129034800Y-87730525D01*
X129029292Y-87706291D01*
X128934487Y-87667469D01*
X128672856Y-87631394D01*
X128246889Y-87598280D01*
X127659075Y-87568340D01*
X127240399Y-87552357D01*
X126342558Y-87519223D01*
X125598593Y-87485452D01*
X124993066Y-87448038D01*
X124510535Y-87403974D01*
X124135561Y-87350252D01*
X123852704Y-87283865D01*
X123646524Y-87201807D01*
X123501580Y-87101070D01*
X123402434Y-86978648D01*
X123333645Y-86831533D01*
X123318736Y-86788594D01*
X123278774Y-86438560D01*
X123403571Y-86122860D01*
X123570222Y-85936667D01*
X123642635Y-85877151D01*
X123724536Y-85833183D01*
X123837473Y-85804357D01*
X124002997Y-85790267D01*
X124242656Y-85790509D01*
X124577998Y-85804678D01*
X125030574Y-85832367D01*
X125621932Y-85873173D01*
X125899334Y-85892876D01*
X126437142Y-85926013D01*
X127016368Y-85953191D01*
X127566103Y-85971534D01*
X128001586Y-85978163D01*
X128918506Y-85979000D01*
X128890586Y-84845328D01*
X128881209Y-84381256D01*
X128882089Y-84054919D01*
X128896589Y-83834860D01*
X128928074Y-83689622D01*
X128979911Y-83587747D01*
X129032000Y-83523278D01*
X129326522Y-83292820D01*
X129652388Y-83227427D01*
X129892335Y-83274178D01*
X129892335Y-83274178D01*
G37*
X129892335Y-83274178D02*
X130094879Y-83370556D01*
X130244573Y-83523183D01*
X130350789Y-83757087D01*
X130422895Y-84097300D01*
X130470263Y-84568849D01*
X130487745Y-84864635D01*
X130537710Y-85858366D01*
X131139522Y-85785381D01*
X131519501Y-85735021D01*
X131977959Y-85668100D01*
X132426633Y-85597594D01*
X132503334Y-85584889D01*
X133020607Y-85499086D01*
X133398416Y-85441396D01*
X133664329Y-85412110D01*
X133845912Y-85411517D01*
X133970733Y-85439907D01*
X134066359Y-85497569D01*
X134160359Y-85584795D01*
X134178075Y-85602499D01*
X134363296Y-85892981D01*
X134408008Y-86218819D01*
X134322475Y-86538294D01*
X134116964Y-86809684D01*
X133839703Y-86977658D01*
X133559882Y-87056930D01*
X133125080Y-87139154D01*
X132530921Y-87225022D01*
X131773029Y-87315225D01*
X131547348Y-87339607D01*
X130591363Y-87441043D01*
X130637398Y-87789522D01*
X130757489Y-88770055D01*
X130860805Y-89757584D01*
X130945873Y-90727625D01*
X131011220Y-91655691D01*
X131055376Y-92517298D01*
X131076868Y-93287960D01*
X131074225Y-93943191D01*
X131045973Y-94458508D01*
X131041179Y-94506170D01*
X130945066Y-95182827D01*
X130814064Y-95760373D01*
X130654377Y-96219089D01*
X130472211Y-96539255D01*
X130367490Y-96646958D01*
X130050461Y-96799711D01*
X129714977Y-96795967D01*
X129399762Y-96638619D01*
X129321821Y-96568846D01*
X129120185Y-96259885D01*
X129078549Y-95900093D01*
X129197520Y-95495808D01*
X129215284Y-95459142D01*
X129341273Y-95108248D01*
X129426729Y-94636000D01*
X129472301Y-94032221D01*
X129478635Y-93286733D01*
X129446380Y-92389360D01*
X129429548Y-92093478D01*
X129395454Y-91578601D01*
X129353096Y-91007444D01*
X129304971Y-90407353D01*
X129253572Y-89805673D01*
X129201395Y-89229749D01*
X129150934Y-88706927D01*
X129104685Y-88264552D01*
X129065142Y-87929969D01*
X129034800Y-87730525D01*
X129029292Y-87706291D01*
X128934487Y-87667469D01*
X128672856Y-87631394D01*
X128246889Y-87598280D01*
X127659075Y-87568340D01*
X127240399Y-87552357D01*
X126342558Y-87519223D01*
X125598593Y-87485452D01*
X124993066Y-87448038D01*
X124510535Y-87403974D01*
X124135561Y-87350252D01*
X123852704Y-87283865D01*
X123646524Y-87201807D01*
X123501580Y-87101070D01*
X123402434Y-86978648D01*
X123333645Y-86831533D01*
X123318736Y-86788594D01*
X123278774Y-86438560D01*
X123403571Y-86122860D01*
X123570222Y-85936667D01*
X123642635Y-85877151D01*
X123724536Y-85833183D01*
X123837473Y-85804357D01*
X124002997Y-85790267D01*
X124242656Y-85790509D01*
X124577998Y-85804678D01*
X125030574Y-85832367D01*
X125621932Y-85873173D01*
X125899334Y-85892876D01*
X126437142Y-85926013D01*
X127016368Y-85953191D01*
X127566103Y-85971534D01*
X128001586Y-85978163D01*
X128918506Y-85979000D01*
X128890586Y-84845328D01*
X128881209Y-84381256D01*
X128882089Y-84054919D01*
X128896589Y-83834860D01*
X128928074Y-83689622D01*
X128979911Y-83587747D01*
X129032000Y-83523278D01*
X129326522Y-83292820D01*
X129652388Y-83227427D01*
X129892335Y-83274178D01*
G36*
X154529059Y-87366021D02*
G01*
X155378771Y-87494748D01*
X156209622Y-87757093D01*
X156374051Y-87824631D01*
X157151402Y-88209967D01*
X157777603Y-88647612D01*
X158267136Y-89154671D01*
X158634485Y-89748249D01*
X158894132Y-90445448D01*
X159006733Y-90933808D01*
X159100154Y-91821983D01*
X159039491Y-92679928D01*
X158822189Y-93513233D01*
X158445691Y-94327484D01*
X157907438Y-95128268D01*
X157204876Y-95921172D01*
X156379334Y-96675223D01*
X155705417Y-97191983D01*
X154960651Y-97682316D01*
X154192471Y-98118811D01*
X153448315Y-98474055D01*
X152915162Y-98677075D01*
X152684458Y-98741662D01*
X152344801Y-98822608D01*
X151930264Y-98913271D01*
X151474918Y-99007012D01*
X151012834Y-99097189D01*
X150578084Y-99177161D01*
X150204739Y-99240289D01*
X149926871Y-99279932D01*
X149778551Y-99289448D01*
X149775334Y-99289041D01*
X149488253Y-99172857D01*
X149276946Y-98947845D01*
X149151894Y-98657171D01*
X149123578Y-98344000D01*
X149202482Y-98051498D01*
X149399087Y-97822829D01*
X149416430Y-97811046D01*
X149567329Y-97749777D01*
X149848650Y-97668609D01*
X150224025Y-97576889D01*
X150657087Y-97483967D01*
X150792386Y-97457337D01*
X151547797Y-97302204D01*
X152173436Y-97147799D01*
X152708134Y-96979114D01*
X153190720Y-96781142D01*
X153660023Y-96538876D01*
X154154873Y-96237308D01*
X154444482Y-96045803D01*
X155361444Y-95367440D01*
X156112984Y-94680189D01*
X156702943Y-93980030D01*
X157135162Y-93262945D01*
X157166342Y-93197682D01*
X157275248Y-92943783D01*
X157343141Y-92712501D01*
X157379312Y-92449468D01*
X157393057Y-92100312D01*
X157394426Y-91863334D01*
X157362161Y-91226688D01*
X157253191Y-90711197D01*
X157049252Y-90290032D01*
X156732083Y-89936366D01*
X156283419Y-89623371D01*
X155684998Y-89324218D01*
X155657747Y-89312187D01*
X155427917Y-89215525D01*
X155228102Y-89148848D01*
X155018590Y-89106649D01*
X154759666Y-89083426D01*
X154411619Y-89073674D01*
X153934734Y-89071890D01*
X153924000Y-89071897D01*
X152583023Y-89152601D01*
X151219586Y-89389153D01*
X149862865Y-89776131D01*
X149566404Y-89881573D01*
X149065155Y-90057136D01*
X148688513Y-90162368D01*
X148407914Y-90199141D01*
X148194795Y-90169323D01*
X148020594Y-90074787D01*
X147924212Y-89989121D01*
X147738811Y-89699870D01*
X147698383Y-89377968D01*
X147792558Y-89058158D01*
X148010964Y-88775186D01*
X148343232Y-88563795D01*
X148350575Y-88560700D01*
X149124167Y-88274304D01*
X150014148Y-88006251D01*
X150967691Y-87768585D01*
X151931970Y-87573346D01*
X152854159Y-87432577D01*
X153608317Y-87362189D01*
X154529059Y-87366021D01*
X154529059Y-87366021D01*
G37*
X154529059Y-87366021D02*
X155378771Y-87494748D01*
X156209622Y-87757093D01*
X156374051Y-87824631D01*
X157151402Y-88209967D01*
X157777603Y-88647612D01*
X158267136Y-89154671D01*
X158634485Y-89748249D01*
X158894132Y-90445448D01*
X159006733Y-90933808D01*
X159100154Y-91821983D01*
X159039491Y-92679928D01*
X158822189Y-93513233D01*
X158445691Y-94327484D01*
X157907438Y-95128268D01*
X157204876Y-95921172D01*
X156379334Y-96675223D01*
X155705417Y-97191983D01*
X154960651Y-97682316D01*
X154192471Y-98118811D01*
X153448315Y-98474055D01*
X152915162Y-98677075D01*
X152684458Y-98741662D01*
X152344801Y-98822608D01*
X151930264Y-98913271D01*
X151474918Y-99007012D01*
X151012834Y-99097189D01*
X150578084Y-99177161D01*
X150204739Y-99240289D01*
X149926871Y-99279932D01*
X149778551Y-99289448D01*
X149775334Y-99289041D01*
X149488253Y-99172857D01*
X149276946Y-98947845D01*
X149151894Y-98657171D01*
X149123578Y-98344000D01*
X149202482Y-98051498D01*
X149399087Y-97822829D01*
X149416430Y-97811046D01*
X149567329Y-97749777D01*
X149848650Y-97668609D01*
X150224025Y-97576889D01*
X150657087Y-97483967D01*
X150792386Y-97457337D01*
X151547797Y-97302204D01*
X152173436Y-97147799D01*
X152708134Y-96979114D01*
X153190720Y-96781142D01*
X153660023Y-96538876D01*
X154154873Y-96237308D01*
X154444482Y-96045803D01*
X155361444Y-95367440D01*
X156112984Y-94680189D01*
X156702943Y-93980030D01*
X157135162Y-93262945D01*
X157166342Y-93197682D01*
X157275248Y-92943783D01*
X157343141Y-92712501D01*
X157379312Y-92449468D01*
X157393057Y-92100312D01*
X157394426Y-91863334D01*
X157362161Y-91226688D01*
X157253191Y-90711197D01*
X157049252Y-90290032D01*
X156732083Y-89936366D01*
X156283419Y-89623371D01*
X155684998Y-89324218D01*
X155657747Y-89312187D01*
X155427917Y-89215525D01*
X155228102Y-89148848D01*
X155018590Y-89106649D01*
X154759666Y-89083426D01*
X154411619Y-89073674D01*
X153934734Y-89071890D01*
X153924000Y-89071897D01*
X152583023Y-89152601D01*
X151219586Y-89389153D01*
X149862865Y-89776131D01*
X149566404Y-89881573D01*
X149065155Y-90057136D01*
X148688513Y-90162368D01*
X148407914Y-90199141D01*
X148194795Y-90169323D01*
X148020594Y-90074787D01*
X147924212Y-89989121D01*
X147738811Y-89699870D01*
X147698383Y-89377968D01*
X147792558Y-89058158D01*
X148010964Y-88775186D01*
X148343232Y-88563795D01*
X148350575Y-88560700D01*
X149124167Y-88274304D01*
X150014148Y-88006251D01*
X150967691Y-87768585D01*
X151931970Y-87573346D01*
X152854159Y-87432577D01*
X153608317Y-87362189D01*
X154529059Y-87366021D01*
G36*
X155946153Y-102920860D02*
G01*
X156328508Y-102947469D01*
X156634145Y-103000458D01*
X156878240Y-103080387D01*
X157075966Y-103187816D01*
X157242497Y-103323306D01*
X157264834Y-103345193D01*
X157466944Y-103638106D01*
X157535604Y-103948417D01*
X157491059Y-104250241D01*
X157353559Y-104517691D01*
X157143350Y-104724883D01*
X156880680Y-104845930D01*
X156585798Y-104854947D01*
X156278949Y-104726047D01*
X156218982Y-104682272D01*
X156096711Y-104598809D01*
X155963523Y-104551040D01*
X155776928Y-104533816D01*
X155494437Y-104541990D01*
X155212731Y-104560361D01*
X154755145Y-104596333D01*
X154258290Y-104640774D01*
X153818020Y-104685027D01*
X153754667Y-104692024D01*
X153435925Y-104726078D01*
X152994618Y-104770756D01*
X152476831Y-104821513D01*
X151928652Y-104873808D01*
X151595667Y-104904833D01*
X151068978Y-104957633D01*
X150561030Y-105016177D01*
X150112605Y-105075214D01*
X149764485Y-105129495D01*
X149606000Y-105160979D01*
X149106818Y-105258642D01*
X148731076Y-105281454D01*
X148449161Y-105227016D01*
X148231463Y-105092925D01*
X148182507Y-105045534D01*
X147992286Y-104742181D01*
X147946353Y-104409713D01*
X148044497Y-104092752D01*
X148187834Y-103913967D01*
X148317998Y-103818571D01*
X148500624Y-103732022D01*
X148750513Y-103651654D01*
X149082469Y-103574801D01*
X149511294Y-103498797D01*
X150051790Y-103420976D01*
X150718761Y-103338673D01*
X151527008Y-103249222D01*
X152352536Y-103163922D01*
X153346086Y-103067029D01*
X154187048Y-102993716D01*
X154890598Y-102944543D01*
X155471908Y-102920071D01*
X155946153Y-102920860D01*
X155946153Y-102920860D01*
G37*
X155946153Y-102920860D02*
X156328508Y-102947469D01*
X156634145Y-103000458D01*
X156878240Y-103080387D01*
X157075966Y-103187816D01*
X157242497Y-103323306D01*
X157264834Y-103345193D01*
X157466944Y-103638106D01*
X157535604Y-103948417D01*
X157491059Y-104250241D01*
X157353559Y-104517691D01*
X157143350Y-104724883D01*
X156880680Y-104845930D01*
X156585798Y-104854947D01*
X156278949Y-104726047D01*
X156218982Y-104682272D01*
X156096711Y-104598809D01*
X155963523Y-104551040D01*
X155776928Y-104533816D01*
X155494437Y-104541990D01*
X155212731Y-104560361D01*
X154755145Y-104596333D01*
X154258290Y-104640774D01*
X153818020Y-104685027D01*
X153754667Y-104692024D01*
X153435925Y-104726078D01*
X152994618Y-104770756D01*
X152476831Y-104821513D01*
X151928652Y-104873808D01*
X151595667Y-104904833D01*
X151068978Y-104957633D01*
X150561030Y-105016177D01*
X150112605Y-105075214D01*
X149764485Y-105129495D01*
X149606000Y-105160979D01*
X149106818Y-105258642D01*
X148731076Y-105281454D01*
X148449161Y-105227016D01*
X148231463Y-105092925D01*
X148182507Y-105045534D01*
X147992286Y-104742181D01*
X147946353Y-104409713D01*
X148044497Y-104092752D01*
X148187834Y-103913967D01*
X148317998Y-103818571D01*
X148500624Y-103732022D01*
X148750513Y-103651654D01*
X149082469Y-103574801D01*
X149511294Y-103498797D01*
X150051790Y-103420976D01*
X150718761Y-103338673D01*
X151527008Y-103249222D01*
X152352536Y-103163922D01*
X153346086Y-103067029D01*
X154187048Y-102993716D01*
X154890598Y-102944543D01*
X155471908Y-102920071D01*
X155946153Y-102920860D01*
G36*
X130824257Y-99001577D02*
G01*
X131077282Y-99172121D01*
X131247467Y-99391847D01*
X131257529Y-99415841D01*
X131290262Y-99576770D01*
X131325826Y-99880337D01*
X131362701Y-100299902D01*
X131399364Y-100808827D01*
X131434294Y-101380471D01*
X131465969Y-101988195D01*
X131492867Y-102605360D01*
X131513466Y-103205327D01*
X131526244Y-103761455D01*
X131529819Y-104182334D01*
X131519387Y-104589711D01*
X131490778Y-105095151D01*
X131447589Y-105663271D01*
X131393418Y-106258690D01*
X131331860Y-106846026D01*
X131266514Y-107389898D01*
X131200977Y-107854923D01*
X131138846Y-108205720D01*
X131107390Y-108337287D01*
X130937848Y-108693984D01*
X130680380Y-108934517D01*
X130364996Y-109042260D01*
X130021705Y-109000589D01*
X129956655Y-108974787D01*
X129684986Y-108772224D01*
X129545291Y-108464891D01*
X129538405Y-108055151D01*
X129568937Y-107881483D01*
X129721189Y-107006411D01*
X129829429Y-105988784D01*
X129892842Y-104849776D01*
X129910611Y-103610564D01*
X129881919Y-102292323D01*
X129826080Y-101212265D01*
X129792438Y-100666673D01*
X129772700Y-100261568D01*
X129767594Y-99968619D01*
X129777846Y-99759493D01*
X129804183Y-99605857D01*
X129847332Y-99479379D01*
X129871927Y-99424829D01*
X130077229Y-99145697D01*
X130355077Y-98971977D01*
X130564189Y-98933000D01*
X130824257Y-99001577D01*
X130824257Y-99001577D01*
G37*
X130824257Y-99001577D02*
X131077282Y-99172121D01*
X131247467Y-99391847D01*
X131257529Y-99415841D01*
X131290262Y-99576770D01*
X131325826Y-99880337D01*
X131362701Y-100299902D01*
X131399364Y-100808827D01*
X131434294Y-101380471D01*
X131465969Y-101988195D01*
X131492867Y-102605360D01*
X131513466Y-103205327D01*
X131526244Y-103761455D01*
X131529819Y-104182334D01*
X131519387Y-104589711D01*
X131490778Y-105095151D01*
X131447589Y-105663271D01*
X131393418Y-106258690D01*
X131331860Y-106846026D01*
X131266514Y-107389898D01*
X131200977Y-107854923D01*
X131138846Y-108205720D01*
X131107390Y-108337287D01*
X130937848Y-108693984D01*
X130680380Y-108934517D01*
X130364996Y-109042260D01*
X130021705Y-109000589D01*
X129956655Y-108974787D01*
X129684986Y-108772224D01*
X129545291Y-108464891D01*
X129538405Y-108055151D01*
X129568937Y-107881483D01*
X129721189Y-107006411D01*
X129829429Y-105988784D01*
X129892842Y-104849776D01*
X129910611Y-103610564D01*
X129881919Y-102292323D01*
X129826080Y-101212265D01*
X129792438Y-100666673D01*
X129772700Y-100261568D01*
X129767594Y-99968619D01*
X129777846Y-99759493D01*
X129804183Y-99605857D01*
X129847332Y-99479379D01*
X129871927Y-99424829D01*
X130077229Y-99145697D01*
X130355077Y-98971977D01*
X130564189Y-98933000D01*
X130824257Y-99001577D01*
G36*
X137653994Y-109003008D02*
G01*
X137793948Y-109070925D01*
X137935645Y-109178503D01*
X138098705Y-109347582D01*
X138302750Y-109600003D01*
X138567399Y-109957604D01*
X138784383Y-110261264D01*
X139033552Y-110604692D01*
X139271273Y-110918170D01*
X139467289Y-111162566D01*
X139573503Y-111281811D01*
X139864378Y-111641139D01*
X139989312Y-111973838D01*
X139948873Y-112284079D01*
X139748846Y-112570846D01*
X139454389Y-112771903D01*
X139136218Y-112806319D01*
X138788451Y-112674647D01*
X138768667Y-112662791D01*
X138670286Y-112595952D01*
X138566709Y-112506409D01*
X138443621Y-112376647D01*
X138286704Y-112189152D01*
X138081643Y-111926406D01*
X137814121Y-111570894D01*
X137469821Y-111105101D01*
X137243005Y-110796191D01*
X136968395Y-110408432D01*
X136789885Y-110120355D01*
X136692337Y-109903970D01*
X136660615Y-109731285D01*
X136660467Y-109719006D01*
X136733852Y-109404174D01*
X136926596Y-109153967D01*
X137197581Y-108998018D01*
X137505691Y-108965959D01*
X137653994Y-109003008D01*
X137653994Y-109003008D01*
G37*
X137653994Y-109003008D02*
X137793948Y-109070925D01*
X137935645Y-109178503D01*
X138098705Y-109347582D01*
X138302750Y-109600003D01*
X138567399Y-109957604D01*
X138784383Y-110261264D01*
X139033552Y-110604692D01*
X139271273Y-110918170D01*
X139467289Y-111162566D01*
X139573503Y-111281811D01*
X139864378Y-111641139D01*
X139989312Y-111973838D01*
X139948873Y-112284079D01*
X139748846Y-112570846D01*
X139454389Y-112771903D01*
X139136218Y-112806319D01*
X138788451Y-112674647D01*
X138768667Y-112662791D01*
X138670286Y-112595952D01*
X138566709Y-112506409D01*
X138443621Y-112376647D01*
X138286704Y-112189152D01*
X138081643Y-111926406D01*
X137814121Y-111570894D01*
X137469821Y-111105101D01*
X137243005Y-110796191D01*
X136968395Y-110408432D01*
X136789885Y-110120355D01*
X136692337Y-109903970D01*
X136660615Y-109731285D01*
X136660467Y-109719006D01*
X136733852Y-109404174D01*
X136926596Y-109153967D01*
X137197581Y-108998018D01*
X137505691Y-108965959D01*
X137653994Y-109003008D01*
G36*
X135401409Y-109660065D02*
G01*
X135507311Y-109739571D01*
X135675538Y-109932798D01*
X135882759Y-110251853D01*
X136108500Y-110664019D01*
X136195039Y-110838584D01*
X136436593Y-111302255D01*
X136672945Y-111688153D01*
X136881321Y-111959940D01*
X136926832Y-112006230D01*
X137127808Y-112225970D01*
X137218947Y-112425878D01*
X137236200Y-112611523D01*
X137165276Y-112929351D01*
X136975206Y-113160722D01*
X136700048Y-113291315D01*
X136373856Y-113306808D01*
X136030686Y-113192877D01*
X135957016Y-113149486D01*
X135712467Y-112933300D01*
X135452870Y-112583905D01*
X135170482Y-112089630D01*
X134936975Y-111612307D01*
X134771818Y-111282285D01*
X134597110Y-110972866D01*
X134455337Y-110757648D01*
X134274209Y-110417760D01*
X134257604Y-110095655D01*
X134405453Y-109801621D01*
X134462212Y-109739546D01*
X134752726Y-109551975D01*
X135073210Y-109525482D01*
X135401409Y-109660065D01*
X135401409Y-109660065D01*
G37*
X135401409Y-109660065D02*
X135507311Y-109739571D01*
X135675538Y-109932798D01*
X135882759Y-110251853D01*
X136108500Y-110664019D01*
X136195039Y-110838584D01*
X136436593Y-111302255D01*
X136672945Y-111688153D01*
X136881321Y-111959940D01*
X136926832Y-112006230D01*
X137127808Y-112225970D01*
X137218947Y-112425878D01*
X137236200Y-112611523D01*
X137165276Y-112929351D01*
X136975206Y-113160722D01*
X136700048Y-113291315D01*
X136373856Y-113306808D01*
X136030686Y-113192877D01*
X135957016Y-113149486D01*
X135712467Y-112933300D01*
X135452870Y-112583905D01*
X135170482Y-112089630D01*
X134936975Y-111612307D01*
X134771818Y-111282285D01*
X134597110Y-110972866D01*
X134455337Y-110757648D01*
X134274209Y-110417760D01*
X134257604Y-110095655D01*
X134405453Y-109801621D01*
X134462212Y-109739546D01*
X134752726Y-109551975D01*
X135073210Y-109525482D01*
X135401409Y-109660065D01*
G36*
X148751105Y-109862406D02*
G01*
X148896932Y-109892332D01*
X149055330Y-109959475D01*
X149249517Y-110078086D01*
X149502711Y-110262414D01*
X149838127Y-110526710D01*
X150278984Y-110885223D01*
X150298691Y-110901358D01*
X150673029Y-111197204D01*
X151042538Y-111470596D01*
X151368028Y-111693703D01*
X151610307Y-111838693D01*
X151638000Y-111852437D01*
X152193761Y-112059244D01*
X152879758Y-112222887D01*
X153661901Y-112341078D01*
X154506101Y-112411526D01*
X155378268Y-112431944D01*
X156244311Y-112400042D01*
X157070141Y-112313530D01*
X157480000Y-112244730D01*
X157923065Y-112165596D01*
X158238674Y-112131202D01*
X158463578Y-112144941D01*
X158634528Y-112210208D01*
X158788276Y-112330397D01*
X158828157Y-112369248D01*
X159011735Y-112661004D01*
X159056454Y-112994944D01*
X158962983Y-113318771D01*
X158813500Y-113513494D01*
X158569411Y-113659316D01*
X158181215Y-113787273D01*
X157673414Y-113895163D01*
X157070507Y-113980786D01*
X156396996Y-114041939D01*
X155677382Y-114076422D01*
X154936165Y-114082033D01*
X154197846Y-114056571D01*
X153486926Y-113997834D01*
X153458334Y-113994640D01*
X152597399Y-113871116D01*
X151857744Y-113699545D01*
X151193838Y-113461003D01*
X150560150Y-113136568D01*
X149911151Y-112707317D01*
X149380067Y-112299672D01*
X149004081Y-111998101D01*
X148649251Y-111714367D01*
X148348723Y-111474918D01*
X148135646Y-111306197D01*
X148088900Y-111269557D01*
X147894096Y-111094173D01*
X147806385Y-110923449D01*
X147785673Y-110678318D01*
X147785667Y-110671564D01*
X147857595Y-110304956D01*
X148058934Y-110034313D01*
X148368018Y-109881493D01*
X148594633Y-109855446D01*
X148751105Y-109862406D01*
X148751105Y-109862406D01*
G37*
X148751105Y-109862406D02*
X148896932Y-109892332D01*
X149055330Y-109959475D01*
X149249517Y-110078086D01*
X149502711Y-110262414D01*
X149838127Y-110526710D01*
X150278984Y-110885223D01*
X150298691Y-110901358D01*
X150673029Y-111197204D01*
X151042538Y-111470596D01*
X151368028Y-111693703D01*
X151610307Y-111838693D01*
X151638000Y-111852437D01*
X152193761Y-112059244D01*
X152879758Y-112222887D01*
X153661901Y-112341078D01*
X154506101Y-112411526D01*
X155378268Y-112431944D01*
X156244311Y-112400042D01*
X157070141Y-112313530D01*
X157480000Y-112244730D01*
X157923065Y-112165596D01*
X158238674Y-112131202D01*
X158463578Y-112144941D01*
X158634528Y-112210208D01*
X158788276Y-112330397D01*
X158828157Y-112369248D01*
X159011735Y-112661004D01*
X159056454Y-112994944D01*
X158962983Y-113318771D01*
X158813500Y-113513494D01*
X158569411Y-113659316D01*
X158181215Y-113787273D01*
X157673414Y-113895163D01*
X157070507Y-113980786D01*
X156396996Y-114041939D01*
X155677382Y-114076422D01*
X154936165Y-114082033D01*
X154197846Y-114056571D01*
X153486926Y-113997834D01*
X153458334Y-113994640D01*
X152597399Y-113871116D01*
X151857744Y-113699545D01*
X151193838Y-113461003D01*
X150560150Y-113136568D01*
X149911151Y-112707317D01*
X149380067Y-112299672D01*
X149004081Y-111998101D01*
X148649251Y-111714367D01*
X148348723Y-111474918D01*
X148135646Y-111306197D01*
X148088900Y-111269557D01*
X147894096Y-111094173D01*
X147806385Y-110923449D01*
X147785673Y-110678318D01*
X147785667Y-110671564D01*
X147857595Y-110304956D01*
X148058934Y-110034313D01*
X148368018Y-109881493D01*
X148594633Y-109855446D01*
X148751105Y-109862406D01*
G36*
X129907294Y-109842496D02*
G01*
X130180377Y-110055591D01*
X130357204Y-110404532D01*
X130403767Y-110603313D01*
X130419586Y-110779612D01*
X130434089Y-111102770D01*
X130446832Y-111550317D01*
X130457367Y-112099782D01*
X130465250Y-112728693D01*
X130470035Y-113414578D01*
X130471334Y-114009501D01*
X130471334Y-117021002D01*
X131275667Y-117128914D01*
X131558180Y-117172995D01*
X131977142Y-117246503D01*
X132503365Y-117343671D01*
X133107664Y-117458732D01*
X133760850Y-117585919D01*
X134433738Y-117719464D01*
X135097140Y-117853601D01*
X135721869Y-117982562D01*
X136278739Y-118100580D01*
X136738563Y-118201889D01*
X136931062Y-118246390D01*
X137360844Y-118399736D01*
X137640849Y-118624303D01*
X137777922Y-118926948D01*
X137795000Y-119111746D01*
X137728404Y-119446327D01*
X137551234Y-119719338D01*
X137297415Y-119891274D01*
X137092047Y-119930334D01*
X136936208Y-119912392D01*
X136644250Y-119862306D01*
X136245124Y-119785683D01*
X135767781Y-119688131D01*
X135241174Y-119575257D01*
X135112710Y-119546962D01*
X134644640Y-119446159D01*
X134106449Y-119334933D01*
X133524254Y-119218206D01*
X132924174Y-119100898D01*
X132332324Y-118987931D01*
X131774823Y-118884226D01*
X131277786Y-118794704D01*
X130867332Y-118724286D01*
X130569578Y-118677894D01*
X130410640Y-118660450D01*
X130407834Y-118660424D01*
X130390650Y-118741325D01*
X130375231Y-118969124D01*
X130362235Y-119321392D01*
X130352321Y-119775696D01*
X130346148Y-120309605D01*
X130344334Y-120822053D01*
X130342260Y-121566632D01*
X130333646Y-122160882D01*
X130314902Y-122623782D01*
X130282437Y-122974311D01*
X130232662Y-123231449D01*
X130161988Y-123414173D01*
X130066823Y-123541463D01*
X129943579Y-123632298D01*
X129799767Y-123701047D01*
X129603310Y-123778059D01*
X129488324Y-123813526D01*
X129479220Y-123813470D01*
X129387580Y-123790154D01*
X129271343Y-123766101D01*
X129088143Y-123683057D01*
X128885680Y-123528005D01*
X128865204Y-123508113D01*
X128643055Y-123285964D01*
X128637311Y-120697982D01*
X128635896Y-120032778D01*
X128634680Y-119405427D01*
X128633701Y-118840655D01*
X128632997Y-118363185D01*
X128632608Y-117997742D01*
X128632572Y-117769048D01*
X128632641Y-117729000D01*
X128650118Y-117424537D01*
X128693738Y-117057457D01*
X128729644Y-116840000D01*
X128760036Y-116574811D01*
X128782844Y-116142526D01*
X128798026Y-115545214D01*
X128805541Y-114784944D01*
X128805346Y-113863784D01*
X128801786Y-113269736D01*
X128778000Y-110207471D01*
X128983259Y-109988902D01*
X129186618Y-109831334D01*
X129442042Y-109773183D01*
X129543213Y-109770334D01*
X129907294Y-109842496D01*
X129907294Y-109842496D01*
G37*
X129907294Y-109842496D02*
X130180377Y-110055591D01*
X130357204Y-110404532D01*
X130403767Y-110603313D01*
X130419586Y-110779612D01*
X130434089Y-111102770D01*
X130446832Y-111550317D01*
X130457367Y-112099782D01*
X130465250Y-112728693D01*
X130470035Y-113414578D01*
X130471334Y-114009501D01*
X130471334Y-117021002D01*
X131275667Y-117128914D01*
X131558180Y-117172995D01*
X131977142Y-117246503D01*
X132503365Y-117343671D01*
X133107664Y-117458732D01*
X133760850Y-117585919D01*
X134433738Y-117719464D01*
X135097140Y-117853601D01*
X135721869Y-117982562D01*
X136278739Y-118100580D01*
X136738563Y-118201889D01*
X136931062Y-118246390D01*
X137360844Y-118399736D01*
X137640849Y-118624303D01*
X137777922Y-118926948D01*
X137795000Y-119111746D01*
X137728404Y-119446327D01*
X137551234Y-119719338D01*
X137297415Y-119891274D01*
X137092047Y-119930334D01*
X136936208Y-119912392D01*
X136644250Y-119862306D01*
X136245124Y-119785683D01*
X135767781Y-119688131D01*
X135241174Y-119575257D01*
X135112710Y-119546962D01*
X134644640Y-119446159D01*
X134106449Y-119334933D01*
X133524254Y-119218206D01*
X132924174Y-119100898D01*
X132332324Y-118987931D01*
X131774823Y-118884226D01*
X131277786Y-118794704D01*
X130867332Y-118724286D01*
X130569578Y-118677894D01*
X130410640Y-118660450D01*
X130407834Y-118660424D01*
X130390650Y-118741325D01*
X130375231Y-118969124D01*
X130362235Y-119321392D01*
X130352321Y-119775696D01*
X130346148Y-120309605D01*
X130344334Y-120822053D01*
X130342260Y-121566632D01*
X130333646Y-122160882D01*
X130314902Y-122623782D01*
X130282437Y-122974311D01*
X130232662Y-123231449D01*
X130161988Y-123414173D01*
X130066823Y-123541463D01*
X129943579Y-123632298D01*
X129799767Y-123701047D01*
X129603310Y-123778059D01*
X129488324Y-123813526D01*
X129479220Y-123813470D01*
X129387580Y-123790154D01*
X129271343Y-123766101D01*
X129088143Y-123683057D01*
X128885680Y-123528005D01*
X128865204Y-123508113D01*
X128643055Y-123285964D01*
X128637311Y-120697982D01*
X128635896Y-120032778D01*
X128634680Y-119405427D01*
X128633701Y-118840655D01*
X128632997Y-118363185D01*
X128632608Y-117997742D01*
X128632572Y-117769048D01*
X128632641Y-117729000D01*
X128650118Y-117424537D01*
X128693738Y-117057457D01*
X128729644Y-116840000D01*
X128760036Y-116574811D01*
X128782844Y-116142526D01*
X128798026Y-115545214D01*
X128805541Y-114784944D01*
X128805346Y-113863784D01*
X128801786Y-113269736D01*
X128778000Y-110207471D01*
X128983259Y-109988902D01*
X129186618Y-109831334D01*
X129442042Y-109773183D01*
X129543213Y-109770334D01*
X129907294Y-109842496D01*
G36*
X122511736Y-124774958D02*
G01*
X122669420Y-124820965D01*
X122686234Y-124833105D01*
X122801833Y-124892092D01*
X123034726Y-124978486D01*
X123338750Y-125075457D01*
X123401667Y-125093954D01*
X124022654Y-125283789D01*
X124580519Y-125473385D01*
X125045428Y-125651729D01*
X125387550Y-125807811D01*
X125486749Y-125863643D01*
X125772622Y-126115210D01*
X125933654Y-126414546D01*
X125976278Y-126728353D01*
X125906926Y-127023330D01*
X125732030Y-127266179D01*
X125458024Y-127423601D01*
X125177277Y-127465667D01*
X124839525Y-127395677D01*
X124604497Y-127266909D01*
X124421351Y-127167523D01*
X124115711Y-127039602D01*
X123728520Y-126898901D01*
X123300722Y-126761180D01*
X123254548Y-126747365D01*
X122716052Y-126584070D01*
X122316339Y-126451755D01*
X122030516Y-126337989D01*
X121833693Y-126230340D01*
X121700977Y-126116377D01*
X121607477Y-125983669D01*
X121566718Y-125904442D01*
X121483267Y-125560563D01*
X121544190Y-125237723D01*
X121726802Y-124972421D01*
X122008422Y-124801159D01*
X122280218Y-124756334D01*
X122511736Y-124774958D01*
X122511736Y-124774958D01*
G37*
X122511736Y-124774958D02*
X122669420Y-124820965D01*
X122686234Y-124833105D01*
X122801833Y-124892092D01*
X123034726Y-124978486D01*
X123338750Y-125075457D01*
X123401667Y-125093954D01*
X124022654Y-125283789D01*
X124580519Y-125473385D01*
X125045428Y-125651729D01*
X125387550Y-125807811D01*
X125486749Y-125863643D01*
X125772622Y-126115210D01*
X125933654Y-126414546D01*
X125976278Y-126728353D01*
X125906926Y-127023330D01*
X125732030Y-127266179D01*
X125458024Y-127423601D01*
X125177277Y-127465667D01*
X124839525Y-127395677D01*
X124604497Y-127266909D01*
X124421351Y-127167523D01*
X124115711Y-127039602D01*
X123728520Y-126898901D01*
X123300722Y-126761180D01*
X123254548Y-126747365D01*
X122716052Y-126584070D01*
X122316339Y-126451755D01*
X122030516Y-126337989D01*
X121833693Y-126230340D01*
X121700977Y-126116377D01*
X121607477Y-125983669D01*
X121566718Y-125904442D01*
X121483267Y-125560563D01*
X121544190Y-125237723D01*
X121726802Y-124972421D01*
X122008422Y-124801159D01*
X122280218Y-124756334D01*
X122511736Y-124774958D01*
G36*
X125255655Y-129311054D02*
G01*
X125790148Y-129322422D01*
X126242102Y-129340235D01*
X126586584Y-129364703D01*
X126798660Y-129396037D01*
X126845808Y-129413386D01*
X127074239Y-129650654D01*
X127193101Y-129967893D01*
X127191175Y-130307229D01*
X127073602Y-130588438D01*
X126976522Y-130712086D01*
X126864192Y-130811919D01*
X126718236Y-130890654D01*
X126520279Y-130951010D01*
X126251945Y-130995702D01*
X125894857Y-131027447D01*
X125430641Y-131048963D01*
X124840920Y-131062966D01*
X124107319Y-131072173D01*
X123782667Y-131075015D01*
X123136336Y-131078757D01*
X122539312Y-131079332D01*
X122014168Y-131076946D01*
X121583475Y-131071804D01*
X121269805Y-131064110D01*
X121095731Y-131054069D01*
X121073334Y-131050431D01*
X120773601Y-130892085D01*
X120548956Y-130625892D01*
X120441899Y-130306213D01*
X120438334Y-130238260D01*
X120482140Y-129873923D01*
X120626718Y-129620677D01*
X120844851Y-129464030D01*
X121000223Y-129426865D01*
X121297451Y-129394251D01*
X121711602Y-129366398D01*
X122217744Y-129343517D01*
X122790942Y-129325819D01*
X123406266Y-129313513D01*
X124038781Y-129306809D01*
X124663555Y-129305920D01*
X125255655Y-129311054D01*
X125255655Y-129311054D01*
G37*
X125255655Y-129311054D02*
X125790148Y-129322422D01*
X126242102Y-129340235D01*
X126586584Y-129364703D01*
X126798660Y-129396037D01*
X126845808Y-129413386D01*
X127074239Y-129650654D01*
X127193101Y-129967893D01*
X127191175Y-130307229D01*
X127073602Y-130588438D01*
X126976522Y-130712086D01*
X126864192Y-130811919D01*
X126718236Y-130890654D01*
X126520279Y-130951010D01*
X126251945Y-130995702D01*
X125894857Y-131027447D01*
X125430641Y-131048963D01*
X124840920Y-131062966D01*
X124107319Y-131072173D01*
X123782667Y-131075015D01*
X123136336Y-131078757D01*
X122539312Y-131079332D01*
X122014168Y-131076946D01*
X121583475Y-131071804D01*
X121269805Y-131064110D01*
X121095731Y-131054069D01*
X121073334Y-131050431D01*
X120773601Y-130892085D01*
X120548956Y-130625892D01*
X120441899Y-130306213D01*
X120438334Y-130238260D01*
X120482140Y-129873923D01*
X120626718Y-129620677D01*
X120844851Y-129464030D01*
X121000223Y-129426865D01*
X121297451Y-129394251D01*
X121711602Y-129366398D01*
X122217744Y-129343517D01*
X122790942Y-129325819D01*
X123406266Y-129313513D01*
X124038781Y-129306809D01*
X124663555Y-129305920D01*
X125255655Y-129311054D01*
G36*
X157720511Y-117437049D02*
G01*
X157745679Y-117440444D01*
X158007059Y-117540264D01*
X158234016Y-117701774D01*
X158448031Y-118012867D01*
X158501152Y-118359428D01*
X158392780Y-118744158D01*
X158122314Y-119169761D01*
X157836016Y-119493659D01*
X157270362Y-120029983D01*
X156589451Y-120603861D01*
X155833487Y-121185725D01*
X155042675Y-121746008D01*
X154257219Y-122255140D01*
X153517325Y-122683556D01*
X153449245Y-122719839D01*
X153067572Y-122928643D01*
X152803433Y-123088554D01*
X152668477Y-123191849D01*
X152674351Y-123230805D01*
X152678504Y-123230925D01*
X152919836Y-123219261D01*
X153311493Y-123183278D01*
X153836529Y-123124993D01*
X154477997Y-123046420D01*
X155218948Y-122949576D01*
X156042436Y-122836477D01*
X156294667Y-122800868D01*
X157260697Y-122667670D01*
X158072343Y-122564847D01*
X158741621Y-122491399D01*
X159280550Y-122446326D01*
X159701147Y-122428628D01*
X160015427Y-122437305D01*
X160235410Y-122471357D01*
X160239990Y-122472575D01*
X160572683Y-122638005D01*
X160782226Y-122917132D01*
X160862194Y-123300977D01*
X160862818Y-123342852D01*
X160854163Y-123477092D01*
X160819216Y-123602641D01*
X160744506Y-123729520D01*
X160616563Y-123867753D01*
X160421914Y-124027363D01*
X160147090Y-124218371D01*
X159778618Y-124450801D01*
X159303027Y-124734674D01*
X158706847Y-125080015D01*
X157976606Y-125496845D01*
X157938812Y-125518334D01*
X157182473Y-125952132D01*
X156557320Y-126321000D01*
X156044577Y-126638645D01*
X155625463Y-126918776D01*
X155281201Y-127175101D01*
X154993011Y-127421327D01*
X154742116Y-127671163D01*
X154509736Y-127938318D01*
X154353977Y-128135222D01*
X154004340Y-128630927D01*
X153763179Y-129079835D01*
X153603689Y-129536994D01*
X153543467Y-129799627D01*
X153489973Y-130453469D01*
X153597367Y-131059200D01*
X153866804Y-131619640D01*
X154299438Y-132137607D01*
X154612067Y-132409101D01*
X154879006Y-132590644D01*
X155261285Y-132813241D01*
X155728125Y-133062433D01*
X156248744Y-133323759D01*
X156792361Y-133582759D01*
X157328198Y-133824971D01*
X157825472Y-134035935D01*
X158253403Y-134201192D01*
X158581212Y-134306280D01*
X158707667Y-134333191D01*
X159116642Y-134452462D01*
X159414178Y-134661691D01*
X159590247Y-134933486D01*
X159634818Y-135240455D01*
X159537861Y-135555207D01*
X159289348Y-135850350D01*
X159269257Y-135866951D01*
X159034840Y-135968356D01*
X158692001Y-136007254D01*
X158289521Y-135984068D01*
X157876185Y-135899222D01*
X157734000Y-135853621D01*
X157423787Y-135730712D01*
X157056543Y-135567989D01*
X156788850Y-135438965D01*
X156482371Y-135289270D01*
X156082821Y-135101258D01*
X155652480Y-134903996D01*
X155405515Y-134793340D01*
X154439581Y-134304700D01*
X153620027Y-133761810D01*
X152950671Y-133168740D01*
X152435330Y-132529560D01*
X152077824Y-131848339D01*
X151881969Y-131129147D01*
X151867181Y-131021667D01*
X151825344Y-130157521D01*
X151920295Y-129342900D01*
X152158348Y-128561101D01*
X152545818Y-127795419D01*
X153089021Y-127029152D01*
X153594708Y-126452188D01*
X153917497Y-126121977D01*
X154220197Y-125844499D01*
X154541614Y-125589883D01*
X154920553Y-125328256D01*
X155395821Y-125029749D01*
X155613715Y-124898055D01*
X155921444Y-124707483D01*
X156088255Y-124588092D01*
X156123080Y-124532209D01*
X156040667Y-124531177D01*
X155741007Y-124576214D01*
X155299742Y-124636727D01*
X154743538Y-124709241D01*
X154099057Y-124790286D01*
X153392966Y-124876386D01*
X153357768Y-124880612D01*
X152946911Y-124934889D01*
X152412523Y-125012925D01*
X151797643Y-125108017D01*
X151145311Y-125213464D01*
X150498567Y-125322563D01*
X150315122Y-125354466D01*
X149435577Y-125506492D01*
X148706275Y-125626233D01*
X148111273Y-125713900D01*
X147634628Y-125769706D01*
X147260396Y-125793863D01*
X146972636Y-125786583D01*
X146755404Y-125748077D01*
X146592757Y-125678559D01*
X146468753Y-125578239D01*
X146367448Y-125447330D01*
X146342246Y-125407304D01*
X146199273Y-125064322D01*
X146211407Y-124751329D01*
X146382070Y-124462849D01*
X146714683Y-124193406D01*
X147212666Y-123937524D01*
X147277667Y-123909978D01*
X147588682Y-123770666D01*
X147999876Y-123572608D01*
X148463503Y-123339477D01*
X148931816Y-123094941D01*
X149055667Y-123028523D01*
X149515203Y-122784959D01*
X150076584Y-122494370D01*
X150688863Y-122182725D01*
X151301091Y-121875993D01*
X151765000Y-121647499D01*
X152620327Y-121213397D01*
X153355730Y-120801448D01*
X154013990Y-120386888D01*
X154378090Y-120134918D01*
X154732392Y-119875298D01*
X155022615Y-119650485D01*
X155227642Y-119477850D01*
X155326354Y-119374763D01*
X155327554Y-119353963D01*
X155210703Y-119348464D01*
X154959885Y-119356391D01*
X154609793Y-119376071D01*
X154195121Y-119405835D01*
X154111465Y-119412528D01*
X153693458Y-119443432D01*
X153148557Y-119479092D01*
X152519044Y-119517001D01*
X151847202Y-119554651D01*
X151175316Y-119589535D01*
X150901981Y-119602821D01*
X150246176Y-119633021D01*
X149737896Y-119653403D01*
X149355595Y-119663614D01*
X149077731Y-119663303D01*
X148882758Y-119652117D01*
X148749133Y-119629704D01*
X148655311Y-119595712D01*
X148602371Y-119565225D01*
X148373327Y-119321532D01*
X148264595Y-118997931D01*
X148290323Y-118646434D01*
X148325160Y-118546217D01*
X148408635Y-118376475D01*
X148514494Y-118243157D01*
X148663826Y-118140664D01*
X148877721Y-118063400D01*
X149177267Y-118005765D01*
X149583554Y-117962161D01*
X150117671Y-117926991D01*
X150775623Y-117895734D01*
X151471009Y-117865075D01*
X152059971Y-117836927D01*
X152580407Y-117808651D01*
X153070214Y-117777605D01*
X153567289Y-117741151D01*
X154109531Y-117696647D01*
X154734836Y-117641454D01*
X155481101Y-117572932D01*
X155695126Y-117553026D01*
X156242829Y-117505675D01*
X156749250Y-117468753D01*
X157184358Y-117443909D01*
X157518122Y-117432791D01*
X157720511Y-117437049D01*
X157720511Y-117437049D01*
G37*
X157720511Y-117437049D02*
X157745679Y-117440444D01*
X158007059Y-117540264D01*
X158234016Y-117701774D01*
X158448031Y-118012867D01*
X158501152Y-118359428D01*
X158392780Y-118744158D01*
X158122314Y-119169761D01*
X157836016Y-119493659D01*
X157270362Y-120029983D01*
X156589451Y-120603861D01*
X155833487Y-121185725D01*
X155042675Y-121746008D01*
X154257219Y-122255140D01*
X153517325Y-122683556D01*
X153449245Y-122719839D01*
X153067572Y-122928643D01*
X152803433Y-123088554D01*
X152668477Y-123191849D01*
X152674351Y-123230805D01*
X152678504Y-123230925D01*
X152919836Y-123219261D01*
X153311493Y-123183278D01*
X153836529Y-123124993D01*
X154477997Y-123046420D01*
X155218948Y-122949576D01*
X156042436Y-122836477D01*
X156294667Y-122800868D01*
X157260697Y-122667670D01*
X158072343Y-122564847D01*
X158741621Y-122491399D01*
X159280550Y-122446326D01*
X159701147Y-122428628D01*
X160015427Y-122437305D01*
X160235410Y-122471357D01*
X160239990Y-122472575D01*
X160572683Y-122638005D01*
X160782226Y-122917132D01*
X160862194Y-123300977D01*
X160862818Y-123342852D01*
X160854163Y-123477092D01*
X160819216Y-123602641D01*
X160744506Y-123729520D01*
X160616563Y-123867753D01*
X160421914Y-124027363D01*
X160147090Y-124218371D01*
X159778618Y-124450801D01*
X159303027Y-124734674D01*
X158706847Y-125080015D01*
X157976606Y-125496845D01*
X157938812Y-125518334D01*
X157182473Y-125952132D01*
X156557320Y-126321000D01*
X156044577Y-126638645D01*
X155625463Y-126918776D01*
X155281201Y-127175101D01*
X154993011Y-127421327D01*
X154742116Y-127671163D01*
X154509736Y-127938318D01*
X154353977Y-128135222D01*
X154004340Y-128630927D01*
X153763179Y-129079835D01*
X153603689Y-129536994D01*
X153543467Y-129799627D01*
X153489973Y-130453469D01*
X153597367Y-131059200D01*
X153866804Y-131619640D01*
X154299438Y-132137607D01*
X154612067Y-132409101D01*
X154879006Y-132590644D01*
X155261285Y-132813241D01*
X155728125Y-133062433D01*
X156248744Y-133323759D01*
X156792361Y-133582759D01*
X157328198Y-133824971D01*
X157825472Y-134035935D01*
X158253403Y-134201192D01*
X158581212Y-134306280D01*
X158707667Y-134333191D01*
X159116642Y-134452462D01*
X159414178Y-134661691D01*
X159590247Y-134933486D01*
X159634818Y-135240455D01*
X159537861Y-135555207D01*
X159289348Y-135850350D01*
X159269257Y-135866951D01*
X159034840Y-135968356D01*
X158692001Y-136007254D01*
X158289521Y-135984068D01*
X157876185Y-135899222D01*
X157734000Y-135853621D01*
X157423787Y-135730712D01*
X157056543Y-135567989D01*
X156788850Y-135438965D01*
X156482371Y-135289270D01*
X156082821Y-135101258D01*
X155652480Y-134903996D01*
X155405515Y-134793340D01*
X154439581Y-134304700D01*
X153620027Y-133761810D01*
X152950671Y-133168740D01*
X152435330Y-132529560D01*
X152077824Y-131848339D01*
X151881969Y-131129147D01*
X151867181Y-131021667D01*
X151825344Y-130157521D01*
X151920295Y-129342900D01*
X152158348Y-128561101D01*
X152545818Y-127795419D01*
X153089021Y-127029152D01*
X153594708Y-126452188D01*
X153917497Y-126121977D01*
X154220197Y-125844499D01*
X154541614Y-125589883D01*
X154920553Y-125328256D01*
X155395821Y-125029749D01*
X155613715Y-124898055D01*
X155921444Y-124707483D01*
X156088255Y-124588092D01*
X156123080Y-124532209D01*
X156040667Y-124531177D01*
X155741007Y-124576214D01*
X155299742Y-124636727D01*
X154743538Y-124709241D01*
X154099057Y-124790286D01*
X153392966Y-124876386D01*
X153357768Y-124880612D01*
X152946911Y-124934889D01*
X152412523Y-125012925D01*
X151797643Y-125108017D01*
X151145311Y-125213464D01*
X150498567Y-125322563D01*
X150315122Y-125354466D01*
X149435577Y-125506492D01*
X148706275Y-125626233D01*
X148111273Y-125713900D01*
X147634628Y-125769706D01*
X147260396Y-125793863D01*
X146972636Y-125786583D01*
X146755404Y-125748077D01*
X146592757Y-125678559D01*
X146468753Y-125578239D01*
X146367448Y-125447330D01*
X146342246Y-125407304D01*
X146199273Y-125064322D01*
X146211407Y-124751329D01*
X146382070Y-124462849D01*
X146714683Y-124193406D01*
X147212666Y-123937524D01*
X147277667Y-123909978D01*
X147588682Y-123770666D01*
X147999876Y-123572608D01*
X148463503Y-123339477D01*
X148931816Y-123094941D01*
X149055667Y-123028523D01*
X149515203Y-122784959D01*
X150076584Y-122494370D01*
X150688863Y-122182725D01*
X151301091Y-121875993D01*
X151765000Y-121647499D01*
X152620327Y-121213397D01*
X153355730Y-120801448D01*
X154013990Y-120386888D01*
X154378090Y-120134918D01*
X154732392Y-119875298D01*
X155022615Y-119650485D01*
X155227642Y-119477850D01*
X155326354Y-119374763D01*
X155327554Y-119353963D01*
X155210703Y-119348464D01*
X154959885Y-119356391D01*
X154609793Y-119376071D01*
X154195121Y-119405835D01*
X154111465Y-119412528D01*
X153693458Y-119443432D01*
X153148557Y-119479092D01*
X152519044Y-119517001D01*
X151847202Y-119554651D01*
X151175316Y-119589535D01*
X150901981Y-119602821D01*
X150246176Y-119633021D01*
X149737896Y-119653403D01*
X149355595Y-119663614D01*
X149077731Y-119663303D01*
X148882758Y-119652117D01*
X148749133Y-119629704D01*
X148655311Y-119595712D01*
X148602371Y-119565225D01*
X148373327Y-119321532D01*
X148264595Y-118997931D01*
X148290323Y-118646434D01*
X148325160Y-118546217D01*
X148408635Y-118376475D01*
X148514494Y-118243157D01*
X148663826Y-118140664D01*
X148877721Y-118063400D01*
X149177267Y-118005765D01*
X149583554Y-117962161D01*
X150117671Y-117926991D01*
X150775623Y-117895734D01*
X151471009Y-117865075D01*
X152059971Y-117836927D01*
X152580407Y-117808651D01*
X153070214Y-117777605D01*
X153567289Y-117741151D01*
X154109531Y-117696647D01*
X154734836Y-117641454D01*
X155481101Y-117572932D01*
X155695126Y-117553026D01*
X156242829Y-117505675D01*
X156749250Y-117468753D01*
X157184358Y-117443909D01*
X157518122Y-117432791D01*
X157720511Y-117437049D01*
G36*
X126544731Y-132876059D02*
G01*
X126794432Y-133082250D01*
X126936921Y-133383762D01*
X126957667Y-133567794D01*
X126895649Y-133848936D01*
X126715701Y-134230105D01*
X126426980Y-134699427D01*
X126038645Y-135245025D01*
X125559855Y-135855024D01*
X124999766Y-136517549D01*
X124367539Y-137220724D01*
X123672329Y-137952674D01*
X123236547Y-138392988D01*
X122656103Y-138962723D01*
X122173835Y-139415134D01*
X121775217Y-139759281D01*
X121445724Y-140004220D01*
X121170832Y-140159011D01*
X120936013Y-140232711D01*
X120726745Y-140234379D01*
X120528500Y-140173072D01*
X120447653Y-140132181D01*
X120191533Y-139899916D01*
X120042650Y-139572077D01*
X120018000Y-139374034D01*
X120031823Y-139250028D01*
X120088123Y-139121462D01*
X120204371Y-138969290D01*
X120398038Y-138774468D01*
X120686593Y-138517952D01*
X121087507Y-138180697D01*
X121192230Y-138094016D01*
X121755171Y-137593664D01*
X122376059Y-136980789D01*
X123025907Y-136288181D01*
X123675730Y-135548629D01*
X124296540Y-134794926D01*
X124859352Y-134059860D01*
X125253106Y-133500194D01*
X125492837Y-133165762D01*
X125692779Y-132955715D01*
X125889732Y-132843413D01*
X126120497Y-132802220D01*
X126220889Y-132799667D01*
X126544731Y-132876059D01*
X126544731Y-132876059D01*
G37*
X126544731Y-132876059D02*
X126794432Y-133082250D01*
X126936921Y-133383762D01*
X126957667Y-133567794D01*
X126895649Y-133848936D01*
X126715701Y-134230105D01*
X126426980Y-134699427D01*
X126038645Y-135245025D01*
X125559855Y-135855024D01*
X124999766Y-136517549D01*
X124367539Y-137220724D01*
X123672329Y-137952674D01*
X123236547Y-138392988D01*
X122656103Y-138962723D01*
X122173835Y-139415134D01*
X121775217Y-139759281D01*
X121445724Y-140004220D01*
X121170832Y-140159011D01*
X120936013Y-140232711D01*
X120726745Y-140234379D01*
X120528500Y-140173072D01*
X120447653Y-140132181D01*
X120191533Y-139899916D01*
X120042650Y-139572077D01*
X120018000Y-139374034D01*
X120031823Y-139250028D01*
X120088123Y-139121462D01*
X120204371Y-138969290D01*
X120398038Y-138774468D01*
X120686593Y-138517952D01*
X121087507Y-138180697D01*
X121192230Y-138094016D01*
X121755171Y-137593664D01*
X122376059Y-136980789D01*
X123025907Y-136288181D01*
X123675730Y-135548629D01*
X124296540Y-134794926D01*
X124859352Y-134059860D01*
X125253106Y-133500194D01*
X125492837Y-133165762D01*
X125692779Y-132955715D01*
X125889732Y-132843413D01*
X126120497Y-132802220D01*
X126220889Y-132799667D01*
X126544731Y-132876059D01*
G36*
X135990829Y-124623808D02*
G01*
X136346414Y-124663028D01*
X136355667Y-124664455D01*
X136856222Y-124764447D01*
X137245556Y-124903839D01*
X137538714Y-125103597D01*
X137750736Y-125384685D01*
X137896664Y-125768066D01*
X137991543Y-126274706D01*
X138050412Y-126925568D01*
X138056989Y-127035568D01*
X138089600Y-128156417D01*
X138058284Y-129208006D01*
X137965449Y-130171038D01*
X137813505Y-131026212D01*
X137604859Y-131754229D01*
X137411688Y-132207000D01*
X137187206Y-132556134D01*
X136895349Y-132887394D01*
X136591307Y-133141060D01*
X136494801Y-133199105D01*
X136428007Y-133252493D01*
X136484630Y-133292078D01*
X136685538Y-133329674D01*
X136738624Y-133337141D01*
X137237347Y-133476051D01*
X137628040Y-133737560D01*
X137837334Y-134000319D01*
X137893025Y-134104282D01*
X137934940Y-134222530D01*
X137964946Y-134379263D01*
X137984914Y-134598681D01*
X137996710Y-134904984D01*
X138002204Y-135322371D01*
X138003264Y-135875042D01*
X138002856Y-136144000D01*
X137994181Y-136959414D01*
X137969489Y-137632776D01*
X137925287Y-138190904D01*
X137858081Y-138660618D01*
X137764377Y-139068735D01*
X137640680Y-139442073D01*
X137542225Y-139679502D01*
X137342797Y-140054622D01*
X137129130Y-140285988D01*
X136871002Y-140398421D01*
X136641032Y-140419667D01*
X136408398Y-140403349D01*
X136256613Y-140362441D01*
X136234159Y-140343887D01*
X136135361Y-140296376D01*
X135908994Y-140231588D01*
X135594526Y-140160039D01*
X135403663Y-140122607D01*
X134952189Y-140061395D01*
X134416897Y-140025206D01*
X133825861Y-140012298D01*
X133207156Y-140020925D01*
X132588854Y-140049344D01*
X131999031Y-140095811D01*
X131465759Y-140158583D01*
X131017113Y-140235914D01*
X130681167Y-140326062D01*
X130485994Y-140427282D01*
X130485056Y-140428150D01*
X130225481Y-140565396D01*
X129905880Y-140592219D01*
X129591843Y-140511752D01*
X129392390Y-140375965D01*
X129225987Y-140155491D01*
X129084220Y-139843609D01*
X128963530Y-139424911D01*
X128860357Y-138883985D01*
X128771143Y-138205424D01*
X128692328Y-137373818D01*
X128688709Y-137329334D01*
X128638625Y-136760908D01*
X128582087Y-136203896D01*
X128523659Y-135697865D01*
X128492799Y-135467895D01*
X130191385Y-135467895D01*
X130205253Y-135697825D01*
X130231465Y-136043150D01*
X130267999Y-136477298D01*
X130312836Y-136973699D01*
X130314184Y-136988163D01*
X130461937Y-138571645D01*
X130805302Y-138528300D01*
X130996702Y-138509916D01*
X131324235Y-138484648D01*
X131754950Y-138454777D01*
X132255897Y-138422585D01*
X132794124Y-138390353D01*
X132817489Y-138389007D01*
X133654303Y-138350743D01*
X134352810Y-138342025D01*
X134941648Y-138364056D01*
X135449453Y-138418035D01*
X135904862Y-138505165D01*
X135970824Y-138521268D01*
X136101422Y-138531997D01*
X136175327Y-138452114D01*
X136228550Y-138246007D01*
X136260551Y-138011015D01*
X136291400Y-137658873D01*
X136319476Y-137228450D01*
X136343160Y-136758613D01*
X136360830Y-136288230D01*
X136370867Y-135856170D01*
X136371651Y-135501299D01*
X136361560Y-135262487D01*
X136355002Y-135212667D01*
X136317518Y-135087019D01*
X136244574Y-134999315D01*
X136113515Y-134947149D01*
X135901686Y-134928117D01*
X135586432Y-134939814D01*
X135145100Y-134979836D01*
X134663972Y-135033170D01*
X134188695Y-135082475D01*
X133600045Y-135135220D01*
X132953794Y-135186876D01*
X132305716Y-135232918D01*
X131868334Y-135260104D01*
X131358774Y-135290585D01*
X130910444Y-135319570D01*
X130549484Y-135345189D01*
X130302036Y-135365575D01*
X130194242Y-135378859D01*
X130191882Y-135379933D01*
X130191385Y-135467895D01*
X128492799Y-135467895D01*
X128467904Y-135282381D01*
X128420214Y-135001000D01*
X128325056Y-134529087D01*
X128267517Y-134189968D01*
X128248010Y-133951243D01*
X128266948Y-133780512D01*
X128324744Y-133645374D01*
X128421809Y-133513427D01*
X128439429Y-133492328D01*
X128623305Y-133311999D01*
X128819706Y-133235758D01*
X129030640Y-133223000D01*
X129322032Y-133255376D01*
X129530914Y-133371788D01*
X129594614Y-133433204D01*
X129779407Y-133577255D01*
X129955129Y-133639456D01*
X129963334Y-133639504D01*
X130025977Y-133634891D01*
X130376018Y-133634891D01*
X130499800Y-133642030D01*
X130513667Y-133642200D01*
X130666731Y-133638292D01*
X130955770Y-133625891D01*
X131347725Y-133606601D01*
X131809537Y-133582027D01*
X132164667Y-133562081D01*
X132685397Y-133530689D01*
X133187861Y-133497698D01*
X133630200Y-133466049D01*
X133970558Y-133438683D01*
X134109009Y-133425477D01*
X134614018Y-133371488D01*
X134236009Y-133176756D01*
X133974800Y-133013098D01*
X133668671Y-132779538D01*
X133413500Y-132554081D01*
X133177594Y-132315982D01*
X133043256Y-132139396D01*
X132982916Y-131976308D01*
X132969000Y-131780003D01*
X133009123Y-131414742D01*
X133144510Y-131164267D01*
X133397687Y-130990452D01*
X133448742Y-130967996D01*
X133814664Y-130898466D01*
X134173380Y-130997465D01*
X134522344Y-131264256D01*
X134542535Y-131285183D01*
X134880181Y-131572180D01*
X135209054Y-131727288D01*
X135506964Y-131747670D01*
X135751722Y-131630487D01*
X135883921Y-131456757D01*
X136009873Y-131182350D01*
X136109383Y-130885308D01*
X136186004Y-130540627D01*
X136243288Y-130123308D01*
X136284788Y-129608348D01*
X136314057Y-128970747D01*
X136332224Y-128302033D01*
X136373445Y-126386733D01*
X135898886Y-126327440D01*
X135637599Y-126310376D01*
X135272223Y-126306377D01*
X134849940Y-126313702D01*
X134417930Y-126330607D01*
X134023372Y-126355349D01*
X133713448Y-126386186D01*
X133558850Y-126413880D01*
X133493737Y-126482913D01*
X133422337Y-126665696D01*
X133340175Y-126977886D01*
X133242773Y-127435144D01*
X133191643Y-127698382D01*
X133022573Y-128483862D01*
X132810899Y-129303585D01*
X132569824Y-130115303D01*
X132312549Y-130876773D01*
X132052275Y-131545747D01*
X131853458Y-131980584D01*
X131565748Y-132484201D01*
X131245313Y-132926449D01*
X130918407Y-133276010D01*
X130611281Y-133501566D01*
X130556000Y-133528402D01*
X130392099Y-133604145D01*
X130376018Y-133634891D01*
X130025977Y-133634891D01*
X130077337Y-133631109D01*
X130038910Y-133598897D01*
X129951226Y-133562380D01*
X129706428Y-133381740D01*
X129542115Y-133102891D01*
X129497667Y-132860426D01*
X129546374Y-132662699D01*
X129703939Y-132419619D01*
X129919889Y-132173759D01*
X130177990Y-131865915D01*
X130411559Y-131505643D01*
X130633181Y-131066908D01*
X130855437Y-130523679D01*
X131090910Y-129849923D01*
X131187354Y-129551481D01*
X131309507Y-129141138D01*
X131432901Y-128681877D01*
X131551105Y-128203425D01*
X131657685Y-127735504D01*
X131746211Y-127307840D01*
X131810251Y-126950156D01*
X131843372Y-126692176D01*
X131839142Y-126563625D01*
X131835186Y-126557631D01*
X131741062Y-126551699D01*
X131506381Y-126561773D01*
X131158970Y-126585951D01*
X130726655Y-126622326D01*
X130301325Y-126662594D01*
X128810500Y-126810593D01*
X128561417Y-126571956D01*
X128356387Y-126276542D01*
X128297690Y-125953331D01*
X128374078Y-125636510D01*
X128574302Y-125360264D01*
X128887112Y-125158779D01*
X129043750Y-125106119D01*
X129251375Y-125067319D01*
X129584316Y-125022345D01*
X129998942Y-124976433D01*
X130451619Y-124934817D01*
X130513667Y-124929781D01*
X131069451Y-124885232D01*
X131691250Y-124835064D01*
X132295513Y-124786032D01*
X132715000Y-124751767D01*
X133631588Y-124681488D01*
X134398955Y-124633996D01*
X135035610Y-124608849D01*
X135560065Y-124605601D01*
X135990829Y-124623808D01*
X135990829Y-124623808D01*
G37*
X135990829Y-124623808D02*
X136346414Y-124663028D01*
X136355667Y-124664455D01*
X136856222Y-124764447D01*
X137245556Y-124903839D01*
X137538714Y-125103597D01*
X137750736Y-125384685D01*
X137896664Y-125768066D01*
X137991543Y-126274706D01*
X138050412Y-126925568D01*
X138056989Y-127035568D01*
X138089600Y-128156417D01*
X138058284Y-129208006D01*
X137965449Y-130171038D01*
X137813505Y-131026212D01*
X137604859Y-131754229D01*
X137411688Y-132207000D01*
X137187206Y-132556134D01*
X136895349Y-132887394D01*
X136591307Y-133141060D01*
X136494801Y-133199105D01*
X136428007Y-133252493D01*
X136484630Y-133292078D01*
X136685538Y-133329674D01*
X136738624Y-133337141D01*
X137237347Y-133476051D01*
X137628040Y-133737560D01*
X137837334Y-134000319D01*
X137893025Y-134104282D01*
X137934940Y-134222530D01*
X137964946Y-134379263D01*
X137984914Y-134598681D01*
X137996710Y-134904984D01*
X138002204Y-135322371D01*
X138003264Y-135875042D01*
X138002856Y-136144000D01*
X137994181Y-136959414D01*
X137969489Y-137632776D01*
X137925287Y-138190904D01*
X137858081Y-138660618D01*
X137764377Y-139068735D01*
X137640680Y-139442073D01*
X137542225Y-139679502D01*
X137342797Y-140054622D01*
X137129130Y-140285988D01*
X136871002Y-140398421D01*
X136641032Y-140419667D01*
X136408398Y-140403349D01*
X136256613Y-140362441D01*
X136234159Y-140343887D01*
X136135361Y-140296376D01*
X135908994Y-140231588D01*
X135594526Y-140160039D01*
X135403663Y-140122607D01*
X134952189Y-140061395D01*
X134416897Y-140025206D01*
X133825861Y-140012298D01*
X133207156Y-140020925D01*
X132588854Y-140049344D01*
X131999031Y-140095811D01*
X131465759Y-140158583D01*
X131017113Y-140235914D01*
X130681167Y-140326062D01*
X130485994Y-140427282D01*
X130485056Y-140428150D01*
X130225481Y-140565396D01*
X129905880Y-140592219D01*
X129591843Y-140511752D01*
X129392390Y-140375965D01*
X129225987Y-140155491D01*
X129084220Y-139843609D01*
X128963530Y-139424911D01*
X128860357Y-138883985D01*
X128771143Y-138205424D01*
X128692328Y-137373818D01*
X128688709Y-137329334D01*
X128638625Y-136760908D01*
X128582087Y-136203896D01*
X128523659Y-135697865D01*
X128492799Y-135467895D01*
X130191385Y-135467895D01*
X130205253Y-135697825D01*
X130231465Y-136043150D01*
X130267999Y-136477298D01*
X130312836Y-136973699D01*
X130314184Y-136988163D01*
X130461937Y-138571645D01*
X130805302Y-138528300D01*
X130996702Y-138509916D01*
X131324235Y-138484648D01*
X131754950Y-138454777D01*
X132255897Y-138422585D01*
X132794124Y-138390353D01*
X132817489Y-138389007D01*
X133654303Y-138350743D01*
X134352810Y-138342025D01*
X134941648Y-138364056D01*
X135449453Y-138418035D01*
X135904862Y-138505165D01*
X135970824Y-138521268D01*
X136101422Y-138531997D01*
X136175327Y-138452114D01*
X136228550Y-138246007D01*
X136260551Y-138011015D01*
X136291400Y-137658873D01*
X136319476Y-137228450D01*
X136343160Y-136758613D01*
X136360830Y-136288230D01*
X136370867Y-135856170D01*
X136371651Y-135501299D01*
X136361560Y-135262487D01*
X136355002Y-135212667D01*
X136317518Y-135087019D01*
X136244574Y-134999315D01*
X136113515Y-134947149D01*
X135901686Y-134928117D01*
X135586432Y-134939814D01*
X135145100Y-134979836D01*
X134663972Y-135033170D01*
X134188695Y-135082475D01*
X133600045Y-135135220D01*
X132953794Y-135186876D01*
X132305716Y-135232918D01*
X131868334Y-135260104D01*
X131358774Y-135290585D01*
X130910444Y-135319570D01*
X130549484Y-135345189D01*
X130302036Y-135365575D01*
X130194242Y-135378859D01*
X130191882Y-135379933D01*
X130191385Y-135467895D01*
X128492799Y-135467895D01*
X128467904Y-135282381D01*
X128420214Y-135001000D01*
X128325056Y-134529087D01*
X128267517Y-134189968D01*
X128248010Y-133951243D01*
X128266948Y-133780512D01*
X128324744Y-133645374D01*
X128421809Y-133513427D01*
X128439429Y-133492328D01*
X128623305Y-133311999D01*
X128819706Y-133235758D01*
X129030640Y-133223000D01*
X129322032Y-133255376D01*
X129530914Y-133371788D01*
X129594614Y-133433204D01*
X129779407Y-133577255D01*
X129955129Y-133639456D01*
X129963334Y-133639504D01*
X130025977Y-133634891D01*
X130376018Y-133634891D01*
X130499800Y-133642030D01*
X130513667Y-133642200D01*
X130666731Y-133638292D01*
X130955770Y-133625891D01*
X131347725Y-133606601D01*
X131809537Y-133582027D01*
X132164667Y-133562081D01*
X132685397Y-133530689D01*
X133187861Y-133497698D01*
X133630200Y-133466049D01*
X133970558Y-133438683D01*
X134109009Y-133425477D01*
X134614018Y-133371488D01*
X134236009Y-133176756D01*
X133974800Y-133013098D01*
X133668671Y-132779538D01*
X133413500Y-132554081D01*
X133177594Y-132315982D01*
X133043256Y-132139396D01*
X132982916Y-131976308D01*
X132969000Y-131780003D01*
X133009123Y-131414742D01*
X133144510Y-131164267D01*
X133397687Y-130990452D01*
X133448742Y-130967996D01*
X133814664Y-130898466D01*
X134173380Y-130997465D01*
X134522344Y-131264256D01*
X134542535Y-131285183D01*
X134880181Y-131572180D01*
X135209054Y-131727288D01*
X135506964Y-131747670D01*
X135751722Y-131630487D01*
X135883921Y-131456757D01*
X136009873Y-131182350D01*
X136109383Y-130885308D01*
X136186004Y-130540627D01*
X136243288Y-130123308D01*
X136284788Y-129608348D01*
X136314057Y-128970747D01*
X136332224Y-128302033D01*
X136373445Y-126386733D01*
X135898886Y-126327440D01*
X135637599Y-126310376D01*
X135272223Y-126306377D01*
X134849940Y-126313702D01*
X134417930Y-126330607D01*
X134023372Y-126355349D01*
X133713448Y-126386186D01*
X133558850Y-126413880D01*
X133493737Y-126482913D01*
X133422337Y-126665696D01*
X133340175Y-126977886D01*
X133242773Y-127435144D01*
X133191643Y-127698382D01*
X133022573Y-128483862D01*
X132810899Y-129303585D01*
X132569824Y-130115303D01*
X132312549Y-130876773D01*
X132052275Y-131545747D01*
X131853458Y-131980584D01*
X131565748Y-132484201D01*
X131245313Y-132926449D01*
X130918407Y-133276010D01*
X130611281Y-133501566D01*
X130556000Y-133528402D01*
X130392099Y-133604145D01*
X130376018Y-133634891D01*
X130025977Y-133634891D01*
X130077337Y-133631109D01*
X130038910Y-133598897D01*
X129951226Y-133562380D01*
X129706428Y-133381740D01*
X129542115Y-133102891D01*
X129497667Y-132860426D01*
X129546374Y-132662699D01*
X129703939Y-132419619D01*
X129919889Y-132173759D01*
X130177990Y-131865915D01*
X130411559Y-131505643D01*
X130633181Y-131066908D01*
X130855437Y-130523679D01*
X131090910Y-129849923D01*
X131187354Y-129551481D01*
X131309507Y-129141138D01*
X131432901Y-128681877D01*
X131551105Y-128203425D01*
X131657685Y-127735504D01*
X131746211Y-127307840D01*
X131810251Y-126950156D01*
X131843372Y-126692176D01*
X131839142Y-126563625D01*
X131835186Y-126557631D01*
X131741062Y-126551699D01*
X131506381Y-126561773D01*
X131158970Y-126585951D01*
X130726655Y-126622326D01*
X130301325Y-126662594D01*
X128810500Y-126810593D01*
X128561417Y-126571956D01*
X128356387Y-126276542D01*
X128297690Y-125953331D01*
X128374078Y-125636510D01*
X128574302Y-125360264D01*
X128887112Y-125158779D01*
X129043750Y-125106119D01*
X129251375Y-125067319D01*
X129584316Y-125022345D01*
X129998942Y-124976433D01*
X130451619Y-124934817D01*
X130513667Y-124929781D01*
X131069451Y-124885232D01*
X131691250Y-124835064D01*
X132295513Y-124786032D01*
X132715000Y-124751767D01*
X133631588Y-124681488D01*
X134398955Y-124633996D01*
X135035610Y-124608849D01*
X135560065Y-124605601D01*
X135990829Y-124623808D01*
G36*
X128495154Y-141420095D02*
G01*
X128805511Y-141518793D01*
X129161212Y-141674617D01*
X129370667Y-141776354D01*
X129759116Y-141997927D01*
X130247625Y-142324306D01*
X130816435Y-142740646D01*
X131445785Y-143232099D01*
X132115917Y-143783820D01*
X132630334Y-144225556D01*
X132934119Y-144485086D01*
X133237800Y-144734696D01*
X133483862Y-144927286D01*
X133519334Y-144953532D01*
X133782838Y-145152623D01*
X134088716Y-145393405D01*
X134261234Y-145533584D01*
X134554971Y-145765703D01*
X134903604Y-146026454D01*
X135164381Y-146212320D01*
X135397778Y-146376047D01*
X135734760Y-146615547D01*
X136141984Y-146906970D01*
X136586110Y-147226467D01*
X136962481Y-147498499D01*
X137396975Y-147809234D01*
X137809613Y-148096946D01*
X138171193Y-148341832D01*
X138452512Y-148524086D01*
X138614905Y-148619198D01*
X138969498Y-148854025D01*
X139170937Y-149128398D01*
X139234334Y-149461072D01*
X139181084Y-149815172D01*
X139008071Y-150067292D01*
X138812695Y-150197790D01*
X138569543Y-150295909D01*
X138340131Y-150308014D01*
X138058307Y-150232813D01*
X137922000Y-150180386D01*
X137726474Y-150078504D01*
X137434059Y-149897608D01*
X137082067Y-149661958D01*
X136707809Y-149395808D01*
X136652000Y-149354714D01*
X136270009Y-149073040D01*
X135900029Y-148801936D01*
X135582007Y-148570566D01*
X135355892Y-148408093D01*
X135339667Y-148396612D01*
X134219942Y-147594204D01*
X133231840Y-146861131D01*
X132380382Y-146201219D01*
X131670587Y-145618296D01*
X131487334Y-145460149D01*
X131092186Y-145121527D01*
X130654316Y-144757811D01*
X130202990Y-144392187D01*
X129767472Y-144047837D01*
X129377026Y-143747946D01*
X129060916Y-143515696D01*
X128873198Y-143389197D01*
X128545062Y-143186710D01*
X128386654Y-143390688D01*
X128297271Y-143532964D01*
X128150090Y-143797726D01*
X127961042Y-144155023D01*
X127746055Y-144574900D01*
X127580267Y-144907000D01*
X127157154Y-145753110D01*
X126792463Y-146456306D01*
X126477740Y-147029241D01*
X126204530Y-147484570D01*
X125964379Y-147834945D01*
X125748834Y-148093020D01*
X125549440Y-148271451D01*
X125357744Y-148382889D01*
X125228851Y-148426513D01*
X124872154Y-148439149D01*
X124553234Y-148313563D01*
X124309143Y-148078010D01*
X124176932Y-147760745D01*
X124163667Y-147614180D01*
X124192277Y-147386359D01*
X124299101Y-147181104D01*
X124491300Y-146960482D01*
X124667415Y-146734085D01*
X124906667Y-146352652D01*
X125209332Y-145815707D01*
X125575684Y-145122769D01*
X125799137Y-144685440D01*
X126231388Y-143838294D01*
X126602984Y-143134615D01*
X126925703Y-142564810D01*
X127211323Y-142119284D01*
X127471621Y-141788446D01*
X127718376Y-141562701D01*
X127963364Y-141432456D01*
X128218364Y-141388119D01*
X128495154Y-141420095D01*
X128495154Y-141420095D01*
G37*
X128495154Y-141420095D02*
X128805511Y-141518793D01*
X129161212Y-141674617D01*
X129370667Y-141776354D01*
X129759116Y-141997927D01*
X130247625Y-142324306D01*
X130816435Y-142740646D01*
X131445785Y-143232099D01*
X132115917Y-143783820D01*
X132630334Y-144225556D01*
X132934119Y-144485086D01*
X133237800Y-144734696D01*
X133483862Y-144927286D01*
X133519334Y-144953532D01*
X133782838Y-145152623D01*
X134088716Y-145393405D01*
X134261234Y-145533584D01*
X134554971Y-145765703D01*
X134903604Y-146026454D01*
X135164381Y-146212320D01*
X135397778Y-146376047D01*
X135734760Y-146615547D01*
X136141984Y-146906970D01*
X136586110Y-147226467D01*
X136962481Y-147498499D01*
X137396975Y-147809234D01*
X137809613Y-148096946D01*
X138171193Y-148341832D01*
X138452512Y-148524086D01*
X138614905Y-148619198D01*
X138969498Y-148854025D01*
X139170937Y-149128398D01*
X139234334Y-149461072D01*
X139181084Y-149815172D01*
X139008071Y-150067292D01*
X138812695Y-150197790D01*
X138569543Y-150295909D01*
X138340131Y-150308014D01*
X138058307Y-150232813D01*
X137922000Y-150180386D01*
X137726474Y-150078504D01*
X137434059Y-149897608D01*
X137082067Y-149661958D01*
X136707809Y-149395808D01*
X136652000Y-149354714D01*
X136270009Y-149073040D01*
X135900029Y-148801936D01*
X135582007Y-148570566D01*
X135355892Y-148408093D01*
X135339667Y-148396612D01*
X134219942Y-147594204D01*
X133231840Y-146861131D01*
X132380382Y-146201219D01*
X131670587Y-145618296D01*
X131487334Y-145460149D01*
X131092186Y-145121527D01*
X130654316Y-144757811D01*
X130202990Y-144392187D01*
X129767472Y-144047837D01*
X129377026Y-143747946D01*
X129060916Y-143515696D01*
X128873198Y-143389197D01*
X128545062Y-143186710D01*
X128386654Y-143390688D01*
X128297271Y-143532964D01*
X128150090Y-143797726D01*
X127961042Y-144155023D01*
X127746055Y-144574900D01*
X127580267Y-144907000D01*
X127157154Y-145753110D01*
X126792463Y-146456306D01*
X126477740Y-147029241D01*
X126204530Y-147484570D01*
X125964379Y-147834945D01*
X125748834Y-148093020D01*
X125549440Y-148271451D01*
X125357744Y-148382889D01*
X125228851Y-148426513D01*
X124872154Y-148439149D01*
X124553234Y-148313563D01*
X124309143Y-148078010D01*
X124176932Y-147760745D01*
X124163667Y-147614180D01*
X124192277Y-147386359D01*
X124299101Y-147181104D01*
X124491300Y-146960482D01*
X124667415Y-146734085D01*
X124906667Y-146352652D01*
X125209332Y-145815707D01*
X125575684Y-145122769D01*
X125799137Y-144685440D01*
X126231388Y-143838294D01*
X126602984Y-143134615D01*
X126925703Y-142564810D01*
X127211323Y-142119284D01*
X127471621Y-141788446D01*
X127718376Y-141562701D01*
X127963364Y-141432456D01*
X128218364Y-141388119D01*
X128495154Y-141420095D01*
D13*
%LPC*%
D14*
X166250000Y-133000000D03*
X99750000Y-76000000D03*
X185250000Y-76000000D03*
X199500000Y-114000000D03*
X185250000Y-133000000D03*
X123475000Y-133000000D03*
X84535000Y-133000000D03*
M02*
