M48
; DRILL file {KiCad 5.1.2-f72e74a~84~ubuntu18.04.1} date 2019年06月15日 15時55分09秒
; FORMAT={-:-/ absolute / metric / decimal}
; #@! TF.CreationDate,2019-06-15T15:55:09+09:00
; #@! TF.GenerationSoftware,Kicad,Pcbnew,5.1.2-f72e74a~84~ubuntu18.04.1
; #@! TF.FileFunction,NonPlated,1,2,NPTH
FMAT,2
METRIC
T1C1.500
T2C1.750
T3C2.200
T4C3.000
T5C3.048
T6C3.988
%
G90
G05
T1
X200.4Y-64.125
X207.4Y-64.125
X200.4Y-121.125
X207.4Y-121.125
T2
X80.42Y-130.625
X90.58Y-130.625
X175.42Y-54.625
X185.58Y-54.625
X149.295Y-130.625
X159.455Y-130.625
X89.92Y-73.625
X100.08Y-73.625
X94.67Y-92.625
X104.83Y-92.625
X146.92Y-73.625
X157.08Y-73.625
X187.295Y-111.625
X197.455Y-111.625
X142.17Y-111.625
X152.33Y-111.625
X61.42Y-54.625
X71.58Y-54.625
X137.42Y-54.625
X147.58Y-54.625
X125.545Y-130.625
X135.705Y-130.625
X165.92Y-73.625
X176.08Y-73.625
X66.17Y-111.625
X76.33Y-111.625
X75.67Y-92.625
X85.83Y-92.625
X118.42Y-54.625
X128.58Y-54.625
X101.795Y-130.625
X111.955Y-130.625
X51.92Y-73.625
X62.08Y-73.625
X80.42Y-54.625
X90.58Y-54.625
X108.92Y-73.625
X119.08Y-73.625
X61.42Y-130.625
X71.58Y-130.625
X170.67Y-130.625
X180.83Y-130.625
X156.42Y-54.625
X166.58Y-54.625
X104.17Y-111.625
X114.33Y-111.625
X127.92Y-73.625
X138.08Y-73.625
X85.17Y-111.625
X95.33Y-111.625
X70.92Y-73.625
X81.08Y-73.625
X42.42Y-54.625
X52.58Y-54.625
X192.045Y-130.625
X202.205Y-130.625
X161.17Y-111.625
X171.33Y-111.625
X132.67Y-92.625
X142.83Y-92.625
X194.42Y-54.625
X204.58Y-54.625
X192.045Y-83.125
X202.205Y-83.125
X170.67Y-92.625
X180.83Y-92.625
X123.17Y-111.625
X133.33Y-111.625
X151.67Y-92.625
X161.83Y-92.625
X113.67Y-92.625
X123.83Y-92.625
X56.67Y-92.625
X66.83Y-92.625
X99.42Y-54.625
X109.58Y-54.625
T3
X57.0Y-64.125
X76.0Y-121.125
X118.75Y-121.125
X123.5Y-64.125
X185.25Y-121.125
X190.0Y-64.125
T4
X125.71Y-116.705
X132.06Y-114.165
X152.94Y-90.085
X159.29Y-87.545
X114.94Y-90.085
X121.29Y-87.545
X57.94Y-90.085
X64.29Y-87.545
X100.69Y-52.085
X107.04Y-49.545
X81.69Y-128.085
X88.04Y-125.545
X176.69Y-52.085
X183.04Y-49.545
X150.565Y-128.085
X156.915Y-125.545
X92.46Y-78.705
X98.81Y-76.165
X95.94Y-90.085
X102.29Y-87.545
X149.46Y-78.705
X155.81Y-76.165
X188.565Y-109.085
X194.915Y-106.545
X144.71Y-116.705
X151.06Y-114.165
X62.69Y-52.085
X69.04Y-49.545
X138.69Y-52.085
X145.04Y-49.545
X126.815Y-128.085
X133.165Y-125.545
X168.46Y-78.705
X174.81Y-76.165
X68.71Y-116.705
X75.06Y-114.165
X76.94Y-90.085
X83.29Y-87.545
X119.69Y-52.085
X126.04Y-49.545
X103.065Y-128.085
X109.415Y-125.545
X54.46Y-78.705
X60.81Y-76.165
X81.69Y-52.085
X88.04Y-49.545
X111.46Y-78.705
X117.81Y-76.165
X62.69Y-128.085
X69.04Y-125.545
X171.94Y-128.085
X178.29Y-125.545
X157.69Y-52.085
X164.04Y-49.545
X106.71Y-116.705
X113.06Y-114.165
X130.46Y-78.705
X136.81Y-76.165
X87.71Y-116.705
X94.06Y-114.165
X73.46Y-78.705
X79.81Y-76.165
X43.69Y-52.085
X50.04Y-49.545
X194.585Y-135.705
X200.935Y-133.165
X163.71Y-116.705
X170.06Y-114.165
X133.94Y-90.085
X140.29Y-87.545
X195.69Y-52.085
X202.04Y-49.545
X193.315Y-80.585
X199.665Y-78.045
X171.94Y-90.085
X178.29Y-87.545
T5
X190.14Y-71.187
X190.14Y-95.063
T6
X106.875Y-130.625
X57.0Y-73.625
X85.5Y-54.625
X114.0Y-73.625
X66.5Y-130.625
X175.75Y-130.625
X161.5Y-54.625
X109.25Y-111.625
X133.0Y-73.625
X90.25Y-111.625
X76.0Y-73.625
X47.5Y-54.625
X197.125Y-130.625
X166.25Y-111.625
X137.75Y-92.625
X199.5Y-54.625
X197.125Y-83.125
X205.38Y-71.187
X205.38Y-95.063
X175.75Y-92.625
X128.25Y-111.625
X156.75Y-92.625
X118.75Y-92.625
X61.75Y-92.625
X104.5Y-54.625
X85.5Y-130.625
X180.5Y-54.625
X154.375Y-130.625
X95.0Y-73.625
X99.75Y-92.625
X152.0Y-73.625
X192.375Y-111.625
X147.25Y-111.625
X66.5Y-54.625
X142.5Y-54.625
X130.625Y-130.625
X171.0Y-73.625
X71.25Y-111.625
X80.75Y-92.625
X123.5Y-54.625
T0
M30
