M48
; DRILL file {KiCad 5.1.2-f72e74a~84~ubuntu18.04.1} date 2019年06月15日 15時55分09秒
; FORMAT={-:-/ absolute / metric / decimal}
; #@! TF.CreationDate,2019-06-15T15:55:09+09:00
; #@! TF.GenerationSoftware,Kicad,Pcbnew,5.1.2-f72e74a~84~ubuntu18.04.1
; #@! TF.FileFunction,Plated,1,2,PTH
FMAT,2
METRIC
T1C0.400
T2C0.800
T3C0.900
%
G90
G05
T1
X76.835Y-57.785
X81.915Y-68.58
X95.152Y-68.677
X110.49Y-102.87
X111.125Y-93.345
X112.395Y-100.33
X112.717Y-121.607
X113.655Y-64.125
X113.665Y-104.14
X116.205Y-104.14
X118.11Y-102.87
X119.38Y-99.06
X127.635Y-92.71
X132.715Y-99.695
X146.05Y-91.44
X146.05Y-97.79
X154.94Y-106.68
X162.56Y-66.675
X163.83Y-62.865
X165.1Y-95.25
X166.37Y-65.405
X167.64Y-66.675
X172.085Y-94.615
X172.085Y-104.14
X173.235Y-102.75
X174.308Y-101.282
X177.8Y-108.585
X183.515Y-83.185
X186.055Y-62.865
X186.69Y-90.805
X188.912Y-55.562
X189.23Y-117.475
X192.405Y-59.69
X194.31Y-102.235
X196.85Y-120.65
X201.93Y-114.3
T2
X78.375Y-102.125
X88.535Y-102.125
X85.5Y-64.125
X95.66Y-64.125
T3
X71.12Y-100.33
X71.12Y-102.87
T0
M30
