G04 #@! TF.GenerationSoftware,KiCad,Pcbnew,5.1.2-f72e74a~84~ubuntu18.04.1*
G04 #@! TF.CreationDate,2019-06-15T15:54:53+09:00*
G04 #@! TF.ProjectId,right-PCB,72696768-742d-4504-9342-2e6b69636164,rev?*
G04 #@! TF.SameCoordinates,Original*
G04 #@! TF.FileFunction,Profile,NP*
%FSLAX46Y46*%
G04 Gerber Fmt 4.6, Leading zero omitted, Abs format (unit mm)*
G04 Created by KiCad (PCBNEW 5.1.2-f72e74a~84~ubuntu18.04.1) date 2019-06-15 15:54:53*
%MOMM*%
%LPD*%
G04 APERTURE LIST*
%ADD10C,0.050000*%
G04 APERTURE END LIST*
D10*
X66500000Y-45125000D02*
X40375000Y-45125000D01*
X59375000Y-140125000D02*
G75*
G02X57000000Y-137750000I0J2375000D01*
G01*
X57000000Y-123500000D02*
G75*
G02X59375000Y-121125000I2375000J0D01*
G01*
X54625000Y-102125000D02*
G75*
G02X52250000Y-99750000I0J2375000D01*
G01*
X49875000Y-83125000D02*
G75*
G02X47500000Y-80750000I0J2375000D01*
G01*
X40375000Y-64125000D02*
G75*
G02X38000000Y-61750000I0J2375000D01*
G01*
X38000000Y-47500000D02*
G75*
G02X40375000Y-45125000I2375000J0D01*
G01*
X206625000Y-45125000D02*
G75*
G02X209000000Y-47500000I0J-2375000D01*
G01*
X209000000Y-137750000D02*
G75*
G02X206625000Y-140125000I-2375000J0D01*
G01*
X206625000Y-140125000D02*
X59375000Y-140125000D01*
X47500000Y-64125000D02*
X40375000Y-64125000D01*
X47500000Y-80750000D02*
X47500000Y-64125000D01*
X52250000Y-83125000D02*
X49875000Y-83125000D01*
X52250000Y-99750000D02*
X52250000Y-83125000D01*
X61750000Y-102125000D02*
X54625000Y-102125000D01*
X61750000Y-121125000D02*
X61750000Y-102125000D01*
X61750000Y-121125000D02*
X59375000Y-121125000D01*
X57000000Y-137750000D02*
X57000000Y-123500000D01*
X209000000Y-47500000D02*
X209000000Y-137750000D01*
X66500000Y-45125000D02*
X206625000Y-45125000D01*
X38000000Y-61750000D02*
X38000000Y-47500000D01*
M02*
