G04 #@! TF.GenerationSoftware,KiCad,Pcbnew,5.1.2-f72e74a~84~ubuntu18.04.1*
G04 #@! TF.CreationDate,2019-06-15T15:54:53+09:00*
G04 #@! TF.ProjectId,right-PCB,72696768-742d-4504-9342-2e6b69636164,rev?*
G04 #@! TF.SameCoordinates,Original*
G04 #@! TF.FileFunction,Legend,Top*
G04 #@! TF.FilePolarity,Positive*
%FSLAX46Y46*%
G04 Gerber Fmt 4.6, Leading zero omitted, Abs format (unit mm)*
G04 Created by KiCad (PCBNEW 5.1.2-f72e74a~84~ubuntu18.04.1) date 2019-06-15 15:54:53*
%MOMM*%
%LPD*%
G04 APERTURE LIST*
%ADD10C,0.150000*%
%ADD11C,0.120000*%
%ADD12C,0.300000*%
%ADD13C,1.602000*%
%ADD14C,2.302000*%
%ADD15O,1.702000X1.702000*%
%ADD16C,1.702000*%
%ADD17C,1.852000*%
%ADD18C,3.102000*%
%ADD19C,4.089800*%
%ADD20C,3.150000*%
%ADD21C,1.902000*%
%ADD22R,1.902000X1.902000*%
G04 APERTURE END LIST*
D10*
X82542142Y-105227380D02*
X82065952Y-105227380D01*
X82065952Y-104227380D01*
X82875476Y-104703571D02*
X83208809Y-104703571D01*
X83351666Y-105227380D02*
X82875476Y-105227380D01*
X82875476Y-104227380D01*
X83351666Y-104227380D01*
X83780238Y-105227380D02*
X83780238Y-104227380D01*
X84018333Y-104227380D01*
X84161190Y-104275000D01*
X84256428Y-104370238D01*
X84304047Y-104465476D01*
X84351666Y-104655952D01*
X84351666Y-104798809D01*
X84304047Y-104989285D01*
X84256428Y-105084523D01*
X84161190Y-105179761D01*
X84018333Y-105227380D01*
X83780238Y-105227380D01*
X89947857Y-67127380D02*
X89376428Y-67127380D01*
X89662142Y-67127380D02*
X89662142Y-66127380D01*
X89566904Y-66270238D01*
X89471666Y-66365476D01*
X89376428Y-66413095D01*
X90376428Y-67127380D02*
X90376428Y-66127380D01*
X90709761Y-66841666D01*
X91043095Y-66127380D01*
X91043095Y-67127380D01*
X91471666Y-67127380D02*
X91709761Y-67127380D01*
X91709761Y-66936904D01*
X91614523Y-66889285D01*
X91519285Y-66794047D01*
X91471666Y-66651190D01*
X91471666Y-66413095D01*
X91519285Y-66270238D01*
X91614523Y-66175000D01*
X91757380Y-66127380D01*
X91947857Y-66127380D01*
X92090714Y-66175000D01*
X92185952Y-66270238D01*
X92233571Y-66413095D01*
X92233571Y-66651190D01*
X92185952Y-66794047D01*
X92090714Y-66889285D01*
X91995476Y-66936904D01*
X91995476Y-67127380D01*
X92233571Y-67127380D01*
X151070000Y-138402142D02*
X151212857Y-138473571D01*
X151498571Y-138473571D01*
X151641428Y-138402142D01*
X151712857Y-138259285D01*
X151712857Y-138187857D01*
X151641428Y-138045000D01*
X151498571Y-137973571D01*
X151284285Y-137973571D01*
X151141428Y-137902142D01*
X151070000Y-137759285D01*
X151070000Y-137687857D01*
X151141428Y-137545000D01*
X151284285Y-137473571D01*
X151498571Y-137473571D01*
X151641428Y-137545000D01*
X152998571Y-138473571D02*
X152998571Y-137687857D01*
X152927142Y-137545000D01*
X152784285Y-137473571D01*
X152498571Y-137473571D01*
X152355714Y-137545000D01*
X152998571Y-138402142D02*
X152855714Y-138473571D01*
X152498571Y-138473571D01*
X152355714Y-138402142D01*
X152284285Y-138259285D01*
X152284285Y-138116428D01*
X152355714Y-137973571D01*
X152498571Y-137902142D01*
X152855714Y-137902142D01*
X152998571Y-137830714D01*
X153498571Y-137473571D02*
X154070000Y-137473571D01*
X153712857Y-136973571D02*
X153712857Y-138259285D01*
X153784285Y-138402142D01*
X153927142Y-138473571D01*
X154070000Y-138473571D01*
X154498571Y-138402142D02*
X154641428Y-138473571D01*
X154927142Y-138473571D01*
X155070000Y-138402142D01*
X155141428Y-138259285D01*
X155141428Y-138187857D01*
X155070000Y-138045000D01*
X154927142Y-137973571D01*
X154712857Y-137973571D01*
X154570000Y-137902142D01*
X154498571Y-137759285D01*
X154498571Y-137687857D01*
X154570000Y-137545000D01*
X154712857Y-137473571D01*
X154927142Y-137473571D01*
X155070000Y-137545000D01*
X156427142Y-137473571D02*
X156427142Y-138473571D01*
X155784285Y-137473571D02*
X155784285Y-138259285D01*
X155855714Y-138402142D01*
X155998571Y-138473571D01*
X156212857Y-138473571D01*
X156355714Y-138402142D01*
X156427142Y-138330714D01*
X157141428Y-138473571D02*
X157141428Y-137473571D01*
X157141428Y-137616428D02*
X157212857Y-137545000D01*
X157355714Y-137473571D01*
X157570000Y-137473571D01*
X157712857Y-137545000D01*
X157784285Y-137687857D01*
X157784285Y-138473571D01*
X157784285Y-137687857D02*
X157855714Y-137545000D01*
X157998571Y-137473571D01*
X158212857Y-137473571D01*
X158355714Y-137545000D01*
X158427142Y-137687857D01*
X158427142Y-138473571D01*
X159784285Y-138473571D02*
X159784285Y-137687857D01*
X159712857Y-137545000D01*
X159570000Y-137473571D01*
X159284285Y-137473571D01*
X159141428Y-137545000D01*
X159784285Y-138402142D02*
X159641428Y-138473571D01*
X159284285Y-138473571D01*
X159141428Y-138402142D01*
X159070000Y-138259285D01*
X159070000Y-138116428D01*
X159141428Y-137973571D01*
X159284285Y-137902142D01*
X159641428Y-137902142D01*
X159784285Y-137830714D01*
X162070000Y-136973571D02*
X162070000Y-138045000D01*
X161998571Y-138259285D01*
X161855714Y-138402142D01*
X161641428Y-138473571D01*
X161498571Y-138473571D01*
X162784285Y-138473571D02*
X162784285Y-136973571D01*
X163355714Y-136973571D01*
X163498571Y-137045000D01*
X163570000Y-137116428D01*
X163641428Y-137259285D01*
X163641428Y-137473571D01*
X163570000Y-137616428D01*
X163498571Y-137687857D01*
X163355714Y-137759285D01*
X162784285Y-137759285D01*
X165355714Y-138402142D02*
X165570000Y-138473571D01*
X165927142Y-138473571D01*
X166070000Y-138402142D01*
X166141428Y-138330714D01*
X166212857Y-138187857D01*
X166212857Y-138045000D01*
X166141428Y-137902142D01*
X166070000Y-137830714D01*
X165927142Y-137759285D01*
X165641428Y-137687857D01*
X165498571Y-137616428D01*
X165427142Y-137545000D01*
X165355714Y-137402142D01*
X165355714Y-137259285D01*
X165427142Y-137116428D01*
X165498571Y-137045000D01*
X165641428Y-136973571D01*
X165998571Y-136973571D01*
X166212857Y-137045000D01*
X166855714Y-138473571D02*
X166855714Y-136973571D01*
X167355714Y-138045000D01*
X167855714Y-136973571D01*
X167855714Y-138473571D01*
X168570000Y-138473571D02*
X168570000Y-136973571D01*
X168927142Y-136973571D01*
X169141428Y-137045000D01*
X169284285Y-137187857D01*
X169355714Y-137330714D01*
X169427142Y-137616428D01*
X169427142Y-137830714D01*
X169355714Y-138116428D01*
X169284285Y-138259285D01*
X169141428Y-138402142D01*
X168927142Y-138473571D01*
X168570000Y-138473571D01*
X171212857Y-138473571D02*
X171212857Y-137473571D01*
X171212857Y-137759285D02*
X171284285Y-137616428D01*
X171355714Y-137545000D01*
X171498571Y-137473571D01*
X171641428Y-137473571D01*
X172712857Y-138402142D02*
X172570000Y-138473571D01*
X172284285Y-138473571D01*
X172141428Y-138402142D01*
X172070000Y-138259285D01*
X172070000Y-137687857D01*
X172141428Y-137545000D01*
X172284285Y-137473571D01*
X172570000Y-137473571D01*
X172712857Y-137545000D01*
X172784285Y-137687857D01*
X172784285Y-137830714D01*
X172070000Y-137973571D01*
X173284285Y-137473571D02*
X173641428Y-138473571D01*
X173998571Y-137473571D01*
X174570000Y-138330714D02*
X174641428Y-138402142D01*
X174570000Y-138473571D01*
X174498571Y-138402142D01*
X174570000Y-138330714D01*
X174570000Y-138473571D01*
X176069999Y-138473571D02*
X175212857Y-138473571D01*
X175641428Y-138473571D02*
X175641428Y-136973571D01*
X175498571Y-137187857D01*
X175355714Y-137330714D01*
X175212857Y-137402142D01*
X181284285Y-138473571D02*
X181284285Y-136973571D01*
X181641428Y-136973571D01*
X181855714Y-137045000D01*
X181998571Y-137187857D01*
X182069999Y-137330714D01*
X182141428Y-137616428D01*
X182141428Y-137830714D01*
X182069999Y-138116428D01*
X181998571Y-138259285D01*
X181855714Y-138402142D01*
X181641428Y-138473571D01*
X181284285Y-138473571D01*
X183355714Y-138402142D02*
X183212857Y-138473571D01*
X182927142Y-138473571D01*
X182784285Y-138402142D01*
X182712857Y-138259285D01*
X182712857Y-137687857D01*
X182784285Y-137545000D01*
X182927142Y-137473571D01*
X183212857Y-137473571D01*
X183355714Y-137545000D01*
X183427142Y-137687857D01*
X183427142Y-137830714D01*
X182712857Y-137973571D01*
X183998571Y-138402142D02*
X184141428Y-138473571D01*
X184427142Y-138473571D01*
X184569999Y-138402142D01*
X184641428Y-138259285D01*
X184641428Y-138187857D01*
X184569999Y-138045000D01*
X184427142Y-137973571D01*
X184212857Y-137973571D01*
X184069999Y-137902142D01*
X183998571Y-137759285D01*
X183998571Y-137687857D01*
X184069999Y-137545000D01*
X184212857Y-137473571D01*
X184427142Y-137473571D01*
X184569999Y-137545000D01*
X185284285Y-138473571D02*
X185284285Y-137473571D01*
X185284285Y-136973571D02*
X185212857Y-137045000D01*
X185284285Y-137116428D01*
X185355714Y-137045000D01*
X185284285Y-136973571D01*
X185284285Y-137116428D01*
X186641428Y-137473571D02*
X186641428Y-138687857D01*
X186569999Y-138830714D01*
X186498571Y-138902142D01*
X186355714Y-138973571D01*
X186141428Y-138973571D01*
X185998571Y-138902142D01*
X186641428Y-138402142D02*
X186498571Y-138473571D01*
X186212857Y-138473571D01*
X186069999Y-138402142D01*
X185998571Y-138330714D01*
X185927142Y-138187857D01*
X185927142Y-137759285D01*
X185998571Y-137616428D01*
X186069999Y-137545000D01*
X186212857Y-137473571D01*
X186498571Y-137473571D01*
X186641428Y-137545000D01*
X187355714Y-137473571D02*
X187355714Y-138473571D01*
X187355714Y-137616428D02*
X187427142Y-137545000D01*
X187570000Y-137473571D01*
X187784285Y-137473571D01*
X187927142Y-137545000D01*
X187998571Y-137687857D01*
X187998571Y-138473571D01*
X189284285Y-138402142D02*
X189141428Y-138473571D01*
X188855714Y-138473571D01*
X188712857Y-138402142D01*
X188641428Y-138259285D01*
X188641428Y-137687857D01*
X188712857Y-137545000D01*
X188855714Y-137473571D01*
X189141428Y-137473571D01*
X189284285Y-137545000D01*
X189355714Y-137687857D01*
X189355714Y-137830714D01*
X188641428Y-137973571D01*
X190641428Y-138473571D02*
X190641428Y-136973571D01*
X190641428Y-138402142D02*
X190498571Y-138473571D01*
X190212857Y-138473571D01*
X190069999Y-138402142D01*
X189998571Y-138330714D01*
X189927142Y-138187857D01*
X189927142Y-137759285D01*
X189998571Y-137616428D01*
X190069999Y-137545000D01*
X190212857Y-137473571D01*
X190498571Y-137473571D01*
X190641428Y-137545000D01*
X192498571Y-138473571D02*
X192498571Y-136973571D01*
X192498571Y-137545000D02*
X192641428Y-137473571D01*
X192927142Y-137473571D01*
X193069999Y-137545000D01*
X193141428Y-137616428D01*
X193212857Y-137759285D01*
X193212857Y-138187857D01*
X193141428Y-138330714D01*
X193069999Y-138402142D01*
X192927142Y-138473571D01*
X192641428Y-138473571D01*
X192498571Y-138402142D01*
X193712857Y-137473571D02*
X194070000Y-138473571D01*
X194427142Y-137473571D02*
X194070000Y-138473571D01*
X193927142Y-138830714D01*
X193855714Y-138902142D01*
X193712857Y-138973571D01*
X197069999Y-137759285D02*
X196998571Y-137687857D01*
X196855714Y-137616428D01*
X196712857Y-137616428D01*
X196569999Y-137687857D01*
X196498571Y-137759285D01*
X196427142Y-137902142D01*
X196427142Y-138045000D01*
X196498571Y-138187857D01*
X196569999Y-138259285D01*
X196712857Y-138330714D01*
X196855714Y-138330714D01*
X196998571Y-138259285D01*
X197069999Y-138187857D01*
X197069999Y-137616428D02*
X197069999Y-138187857D01*
X197141428Y-138259285D01*
X197212857Y-138259285D01*
X197355714Y-138187857D01*
X197427142Y-138045000D01*
X197427142Y-137687857D01*
X197284285Y-137473571D01*
X197069999Y-137330714D01*
X196784285Y-137259285D01*
X196498571Y-137330714D01*
X196284285Y-137473571D01*
X196141428Y-137687857D01*
X196069999Y-137973571D01*
X196141428Y-138259285D01*
X196284285Y-138473571D01*
X196498571Y-138616428D01*
X196784285Y-138687857D01*
X197069999Y-138616428D01*
X197284285Y-138473571D01*
X197927142Y-137473571D02*
X198284285Y-138473571D01*
X198641428Y-137473571D02*
X198284285Y-138473571D01*
X198141428Y-138830714D01*
X198069999Y-138902142D01*
X197927142Y-138973571D01*
X199141428Y-138402142D02*
X199284285Y-138473571D01*
X199569999Y-138473571D01*
X199712857Y-138402142D01*
X199784285Y-138259285D01*
X199784285Y-138187857D01*
X199712857Y-138045000D01*
X199569999Y-137973571D01*
X199355714Y-137973571D01*
X199212857Y-137902142D01*
X199141428Y-137759285D01*
X199141428Y-137687857D01*
X199212857Y-137545000D01*
X199355714Y-137473571D01*
X199569999Y-137473571D01*
X199712857Y-137545000D01*
X200427142Y-137473571D02*
X200427142Y-138473571D01*
X200427142Y-137616428D02*
X200498571Y-137545000D01*
X200641428Y-137473571D01*
X200855714Y-137473571D01*
X200998571Y-137545000D01*
X201069999Y-137687857D01*
X201069999Y-138473571D01*
X201784285Y-138473571D02*
X201784285Y-137473571D01*
X201784285Y-136973571D02*
X201712857Y-137045000D01*
X201784285Y-137116428D01*
X201855714Y-137045000D01*
X201784285Y-136973571D01*
X201784285Y-137116428D01*
X202141428Y-138616428D02*
X203284285Y-138616428D01*
X203641428Y-137473571D02*
X203641428Y-138973571D01*
X203641428Y-137545000D02*
X203784285Y-137473571D01*
X204069999Y-137473571D01*
X204212857Y-137545000D01*
X204284285Y-137616428D01*
X204355714Y-137759285D01*
X204355714Y-138187857D01*
X204284285Y-138330714D01*
X204212857Y-138402142D01*
X204069999Y-138473571D01*
X203784285Y-138473571D01*
X203641428Y-138402142D01*
X205641428Y-137473571D02*
X205641428Y-138473571D01*
X204998571Y-137473571D02*
X204998571Y-138259285D01*
X205069999Y-138402142D01*
X205212857Y-138473571D01*
X205427142Y-138473571D01*
X205569999Y-138402142D01*
X205641428Y-138330714D01*
X206355714Y-138473571D02*
X206355714Y-136973571D01*
X206355714Y-137545000D02*
X206498571Y-137473571D01*
X206784285Y-137473571D01*
X206927142Y-137545000D01*
X206998571Y-137616428D01*
X207070000Y-137759285D01*
X207070000Y-138187857D01*
X206998571Y-138330714D01*
X206927142Y-138402142D01*
X206784285Y-138473571D01*
X206498571Y-138473571D01*
X206355714Y-138402142D01*
D11*
X94620000Y-64125000D02*
X93850000Y-64125000D01*
X86540000Y-64125000D02*
X87310000Y-64125000D01*
X93850000Y-62755000D02*
X87310000Y-62755000D01*
X93850000Y-65495000D02*
X93850000Y-62755000D01*
X87310000Y-65495000D02*
X93850000Y-65495000D01*
X87310000Y-62755000D02*
X87310000Y-65495000D01*
X87495000Y-102125000D02*
X86725000Y-102125000D01*
X79415000Y-102125000D02*
X80185000Y-102125000D01*
X86725000Y-100755000D02*
X80185000Y-100755000D01*
X86725000Y-103495000D02*
X86725000Y-100755000D01*
X80185000Y-103495000D02*
X86725000Y-103495000D01*
X80185000Y-100755000D02*
X80185000Y-103495000D01*
D10*
X90413333Y-62207380D02*
X90080000Y-61731190D01*
X89841904Y-62207380D02*
X89841904Y-61207380D01*
X90222857Y-61207380D01*
X90318095Y-61255000D01*
X90365714Y-61302619D01*
X90413333Y-61397857D01*
X90413333Y-61540714D01*
X90365714Y-61635952D01*
X90318095Y-61683571D01*
X90222857Y-61731190D01*
X89841904Y-61731190D01*
X90794285Y-61302619D02*
X90841904Y-61255000D01*
X90937142Y-61207380D01*
X91175238Y-61207380D01*
X91270476Y-61255000D01*
X91318095Y-61302619D01*
X91365714Y-61397857D01*
X91365714Y-61493095D01*
X91318095Y-61635952D01*
X90746666Y-62207380D01*
X91365714Y-62207380D01*
D12*
X62880952Y-135934523D02*
X63166666Y-136029761D01*
X63642857Y-136029761D01*
X63833333Y-135934523D01*
X63928571Y-135839285D01*
X64023809Y-135648809D01*
X64023809Y-135458333D01*
X63928571Y-135267857D01*
X63833333Y-135172619D01*
X63642857Y-135077380D01*
X63261904Y-134982142D01*
X63071428Y-134886904D01*
X62976190Y-134791666D01*
X62880952Y-134601190D01*
X62880952Y-134410714D01*
X62976190Y-134220238D01*
X63071428Y-134125000D01*
X63261904Y-134029761D01*
X63738095Y-134029761D01*
X64023809Y-134125000D01*
X64690476Y-134029761D02*
X65166666Y-136029761D01*
X65547619Y-134601190D01*
X65928571Y-136029761D01*
X66404761Y-134029761D01*
X66976190Y-134029761D02*
X68214285Y-134029761D01*
X67547619Y-134791666D01*
X67833333Y-134791666D01*
X68023809Y-134886904D01*
X68119047Y-134982142D01*
X68214285Y-135172619D01*
X68214285Y-135648809D01*
X68119047Y-135839285D01*
X68023809Y-135934523D01*
X67833333Y-136029761D01*
X67261904Y-136029761D01*
X67071428Y-135934523D01*
X66976190Y-135839285D01*
X68976190Y-134220238D02*
X69071428Y-134125000D01*
X69261904Y-134029761D01*
X69738095Y-134029761D01*
X69928571Y-134125000D01*
X70023809Y-134220238D01*
X70119047Y-134410714D01*
X70119047Y-134601190D01*
X70023809Y-134886904D01*
X68880952Y-136029761D01*
X70119047Y-136029761D01*
X193505952Y-127434523D02*
X193791666Y-127529761D01*
X194267857Y-127529761D01*
X194458333Y-127434523D01*
X194553571Y-127339285D01*
X194648809Y-127148809D01*
X194648809Y-126958333D01*
X194553571Y-126767857D01*
X194458333Y-126672619D01*
X194267857Y-126577380D01*
X193886904Y-126482142D01*
X193696428Y-126386904D01*
X193601190Y-126291666D01*
X193505952Y-126101190D01*
X193505952Y-125910714D01*
X193601190Y-125720238D01*
X193696428Y-125625000D01*
X193886904Y-125529761D01*
X194363095Y-125529761D01*
X194648809Y-125625000D01*
X195315476Y-125529761D02*
X195791666Y-127529761D01*
X196172619Y-126101190D01*
X196553571Y-127529761D01*
X197029761Y-125529761D01*
X197601190Y-125529761D02*
X198839285Y-125529761D01*
X198172619Y-126291666D01*
X198458333Y-126291666D01*
X198648809Y-126386904D01*
X198744047Y-126482142D01*
X198839285Y-126672619D01*
X198839285Y-127148809D01*
X198744047Y-127339285D01*
X198648809Y-127434523D01*
X198458333Y-127529761D01*
X197886904Y-127529761D01*
X197696428Y-127434523D01*
X197601190Y-127339285D01*
X199982142Y-126386904D02*
X199791666Y-126291666D01*
X199696428Y-126196428D01*
X199601190Y-126005952D01*
X199601190Y-125910714D01*
X199696428Y-125720238D01*
X199791666Y-125625000D01*
X199982142Y-125529761D01*
X200363095Y-125529761D01*
X200553571Y-125625000D01*
X200648809Y-125720238D01*
X200744047Y-125910714D01*
X200744047Y-126005952D01*
X200648809Y-126196428D01*
X200553571Y-126291666D01*
X200363095Y-126386904D01*
X199982142Y-126386904D01*
X199791666Y-126482142D01*
X199696428Y-126577380D01*
X199601190Y-126767857D01*
X199601190Y-127148809D01*
X199696428Y-127339285D01*
X199791666Y-127434523D01*
X199982142Y-127529761D01*
X200363095Y-127529761D01*
X200553571Y-127434523D01*
X200648809Y-127339285D01*
X200744047Y-127148809D01*
X200744047Y-126767857D01*
X200648809Y-126577380D01*
X200553571Y-126482142D01*
X200363095Y-126386904D01*
X172130952Y-135934523D02*
X172416666Y-136029761D01*
X172892857Y-136029761D01*
X173083333Y-135934523D01*
X173178571Y-135839285D01*
X173273809Y-135648809D01*
X173273809Y-135458333D01*
X173178571Y-135267857D01*
X173083333Y-135172619D01*
X172892857Y-135077380D01*
X172511904Y-134982142D01*
X172321428Y-134886904D01*
X172226190Y-134791666D01*
X172130952Y-134601190D01*
X172130952Y-134410714D01*
X172226190Y-134220238D01*
X172321428Y-134125000D01*
X172511904Y-134029761D01*
X172988095Y-134029761D01*
X173273809Y-134125000D01*
X173940476Y-134029761D02*
X174416666Y-136029761D01*
X174797619Y-134601190D01*
X175178571Y-136029761D01*
X175654761Y-134029761D01*
X176226190Y-134029761D02*
X177464285Y-134029761D01*
X176797619Y-134791666D01*
X177083333Y-134791666D01*
X177273809Y-134886904D01*
X177369047Y-134982142D01*
X177464285Y-135172619D01*
X177464285Y-135648809D01*
X177369047Y-135839285D01*
X177273809Y-135934523D01*
X177083333Y-136029761D01*
X176511904Y-136029761D01*
X176321428Y-135934523D01*
X176226190Y-135839285D01*
X178130952Y-134029761D02*
X179464285Y-134029761D01*
X178607142Y-136029761D01*
X188755952Y-116434523D02*
X189041666Y-116529761D01*
X189517857Y-116529761D01*
X189708333Y-116434523D01*
X189803571Y-116339285D01*
X189898809Y-116148809D01*
X189898809Y-115958333D01*
X189803571Y-115767857D01*
X189708333Y-115672619D01*
X189517857Y-115577380D01*
X189136904Y-115482142D01*
X188946428Y-115386904D01*
X188851190Y-115291666D01*
X188755952Y-115101190D01*
X188755952Y-114910714D01*
X188851190Y-114720238D01*
X188946428Y-114625000D01*
X189136904Y-114529761D01*
X189613095Y-114529761D01*
X189898809Y-114625000D01*
X190565476Y-114529761D02*
X191041666Y-116529761D01*
X191422619Y-115101190D01*
X191803571Y-116529761D01*
X192279761Y-114529761D01*
X192851190Y-114529761D02*
X194089285Y-114529761D01*
X193422619Y-115291666D01*
X193708333Y-115291666D01*
X193898809Y-115386904D01*
X193994047Y-115482142D01*
X194089285Y-115672619D01*
X194089285Y-116148809D01*
X193994047Y-116339285D01*
X193898809Y-116434523D01*
X193708333Y-116529761D01*
X193136904Y-116529761D01*
X192946428Y-116434523D01*
X192851190Y-116339285D01*
X195994047Y-116529761D02*
X194851190Y-116529761D01*
X195422619Y-116529761D02*
X195422619Y-114529761D01*
X195232142Y-114815476D01*
X195041666Y-115005952D01*
X194851190Y-115101190D01*
X162630952Y-107934523D02*
X162916666Y-108029761D01*
X163392857Y-108029761D01*
X163583333Y-107934523D01*
X163678571Y-107839285D01*
X163773809Y-107648809D01*
X163773809Y-107458333D01*
X163678571Y-107267857D01*
X163583333Y-107172619D01*
X163392857Y-107077380D01*
X163011904Y-106982142D01*
X162821428Y-106886904D01*
X162726190Y-106791666D01*
X162630952Y-106601190D01*
X162630952Y-106410714D01*
X162726190Y-106220238D01*
X162821428Y-106125000D01*
X163011904Y-106029761D01*
X163488095Y-106029761D01*
X163773809Y-106125000D01*
X164440476Y-106029761D02*
X164916666Y-108029761D01*
X165297619Y-106601190D01*
X165678571Y-108029761D01*
X166154761Y-106029761D01*
X166726190Y-106029761D02*
X167964285Y-106029761D01*
X167297619Y-106791666D01*
X167583333Y-106791666D01*
X167773809Y-106886904D01*
X167869047Y-106982142D01*
X167964285Y-107172619D01*
X167964285Y-107648809D01*
X167869047Y-107839285D01*
X167773809Y-107934523D01*
X167583333Y-108029761D01*
X167011904Y-108029761D01*
X166821428Y-107934523D01*
X166726190Y-107839285D01*
X169202380Y-106029761D02*
X169392857Y-106029761D01*
X169583333Y-106125000D01*
X169678571Y-106220238D01*
X169773809Y-106410714D01*
X169869047Y-106791666D01*
X169869047Y-107267857D01*
X169773809Y-107648809D01*
X169678571Y-107839285D01*
X169583333Y-107934523D01*
X169392857Y-108029761D01*
X169202380Y-108029761D01*
X169011904Y-107934523D01*
X168916666Y-107839285D01*
X168821428Y-107648809D01*
X168726190Y-107267857D01*
X168726190Y-106791666D01*
X168821428Y-106410714D01*
X168916666Y-106220238D01*
X169011904Y-106125000D01*
X169202380Y-106029761D01*
X172130952Y-97934523D02*
X172416666Y-98029761D01*
X172892857Y-98029761D01*
X173083333Y-97934523D01*
X173178571Y-97839285D01*
X173273809Y-97648809D01*
X173273809Y-97458333D01*
X173178571Y-97267857D01*
X173083333Y-97172619D01*
X172892857Y-97077380D01*
X172511904Y-96982142D01*
X172321428Y-96886904D01*
X172226190Y-96791666D01*
X172130952Y-96601190D01*
X172130952Y-96410714D01*
X172226190Y-96220238D01*
X172321428Y-96125000D01*
X172511904Y-96029761D01*
X172988095Y-96029761D01*
X173273809Y-96125000D01*
X173940476Y-96029761D02*
X174416666Y-98029761D01*
X174797619Y-96601190D01*
X175178571Y-98029761D01*
X175654761Y-96029761D01*
X176321428Y-96220238D02*
X176416666Y-96125000D01*
X176607142Y-96029761D01*
X177083333Y-96029761D01*
X177273809Y-96125000D01*
X177369047Y-96220238D01*
X177464285Y-96410714D01*
X177464285Y-96601190D01*
X177369047Y-96886904D01*
X176226190Y-98029761D01*
X177464285Y-98029761D01*
X179178571Y-96696428D02*
X179178571Y-98029761D01*
X178702380Y-95934523D02*
X178226190Y-97363095D01*
X179464285Y-97363095D01*
X193505952Y-87934523D02*
X193791666Y-88029761D01*
X194267857Y-88029761D01*
X194458333Y-87934523D01*
X194553571Y-87839285D01*
X194648809Y-87648809D01*
X194648809Y-87458333D01*
X194553571Y-87267857D01*
X194458333Y-87172619D01*
X194267857Y-87077380D01*
X193886904Y-86982142D01*
X193696428Y-86886904D01*
X193601190Y-86791666D01*
X193505952Y-86601190D01*
X193505952Y-86410714D01*
X193601190Y-86220238D01*
X193696428Y-86125000D01*
X193886904Y-86029761D01*
X194363095Y-86029761D01*
X194648809Y-86125000D01*
X195315476Y-86029761D02*
X195791666Y-88029761D01*
X196172619Y-86601190D01*
X196553571Y-88029761D01*
X197029761Y-86029761D01*
X198839285Y-88029761D02*
X197696428Y-88029761D01*
X198267857Y-88029761D02*
X198267857Y-86029761D01*
X198077380Y-86315476D01*
X197886904Y-86505952D01*
X197696428Y-86601190D01*
X199505952Y-86029761D02*
X200839285Y-86029761D01*
X199982142Y-88029761D01*
X167380952Y-69934523D02*
X167666666Y-70029761D01*
X168142857Y-70029761D01*
X168333333Y-69934523D01*
X168428571Y-69839285D01*
X168523809Y-69648809D01*
X168523809Y-69458333D01*
X168428571Y-69267857D01*
X168333333Y-69172619D01*
X168142857Y-69077380D01*
X167761904Y-68982142D01*
X167571428Y-68886904D01*
X167476190Y-68791666D01*
X167380952Y-68601190D01*
X167380952Y-68410714D01*
X167476190Y-68220238D01*
X167571428Y-68125000D01*
X167761904Y-68029761D01*
X168238095Y-68029761D01*
X168523809Y-68125000D01*
X169190476Y-68029761D02*
X169666666Y-70029761D01*
X170047619Y-68601190D01*
X170428571Y-70029761D01*
X170904761Y-68029761D01*
X172714285Y-70029761D02*
X171571428Y-70029761D01*
X172142857Y-70029761D02*
X172142857Y-68029761D01*
X171952380Y-68315476D01*
X171761904Y-68505952D01*
X171571428Y-68601190D01*
X174428571Y-68029761D02*
X174047619Y-68029761D01*
X173857142Y-68125000D01*
X173761904Y-68220238D01*
X173571428Y-68505952D01*
X173476190Y-68886904D01*
X173476190Y-69648809D01*
X173571428Y-69839285D01*
X173666666Y-69934523D01*
X173857142Y-70029761D01*
X174238095Y-70029761D01*
X174428571Y-69934523D01*
X174523809Y-69839285D01*
X174619047Y-69648809D01*
X174619047Y-69172619D01*
X174523809Y-68982142D01*
X174428571Y-68886904D01*
X174238095Y-68791666D01*
X173857142Y-68791666D01*
X173666666Y-68886904D01*
X173571428Y-68982142D01*
X173476190Y-69172619D01*
X196833333Y-59934523D02*
X197119047Y-60029761D01*
X197595238Y-60029761D01*
X197785714Y-59934523D01*
X197880952Y-59839285D01*
X197976190Y-59648809D01*
X197976190Y-59458333D01*
X197880952Y-59267857D01*
X197785714Y-59172619D01*
X197595238Y-59077380D01*
X197214285Y-58982142D01*
X197023809Y-58886904D01*
X196928571Y-58791666D01*
X196833333Y-58601190D01*
X196833333Y-58410714D01*
X196928571Y-58220238D01*
X197023809Y-58125000D01*
X197214285Y-58029761D01*
X197690476Y-58029761D01*
X197976190Y-58125000D01*
X198642857Y-58029761D02*
X199119047Y-60029761D01*
X199500000Y-58601190D01*
X199880952Y-60029761D01*
X200357142Y-58029761D01*
X201214285Y-60029761D02*
X201595238Y-60029761D01*
X201785714Y-59934523D01*
X201880952Y-59839285D01*
X202071428Y-59553571D01*
X202166666Y-59172619D01*
X202166666Y-58410714D01*
X202071428Y-58220238D01*
X201976190Y-58125000D01*
X201785714Y-58029761D01*
X201404761Y-58029761D01*
X201214285Y-58125000D01*
X201119047Y-58220238D01*
X201023809Y-58410714D01*
X201023809Y-58886904D01*
X201119047Y-59077380D01*
X201214285Y-59172619D01*
X201404761Y-59267857D01*
X201785714Y-59267857D01*
X201976190Y-59172619D01*
X202071428Y-59077380D01*
X202166666Y-58886904D01*
X177833333Y-59934523D02*
X178119047Y-60029761D01*
X178595238Y-60029761D01*
X178785714Y-59934523D01*
X178880952Y-59839285D01*
X178976190Y-59648809D01*
X178976190Y-59458333D01*
X178880952Y-59267857D01*
X178785714Y-59172619D01*
X178595238Y-59077380D01*
X178214285Y-58982142D01*
X178023809Y-58886904D01*
X177928571Y-58791666D01*
X177833333Y-58601190D01*
X177833333Y-58410714D01*
X177928571Y-58220238D01*
X178023809Y-58125000D01*
X178214285Y-58029761D01*
X178690476Y-58029761D01*
X178976190Y-58125000D01*
X179642857Y-58029761D02*
X180119047Y-60029761D01*
X180500000Y-58601190D01*
X180880952Y-60029761D01*
X181357142Y-58029761D01*
X182404761Y-58886904D02*
X182214285Y-58791666D01*
X182119047Y-58696428D01*
X182023809Y-58505952D01*
X182023809Y-58410714D01*
X182119047Y-58220238D01*
X182214285Y-58125000D01*
X182404761Y-58029761D01*
X182785714Y-58029761D01*
X182976190Y-58125000D01*
X183071428Y-58220238D01*
X183166666Y-58410714D01*
X183166666Y-58505952D01*
X183071428Y-58696428D01*
X182976190Y-58791666D01*
X182785714Y-58886904D01*
X182404761Y-58886904D01*
X182214285Y-58982142D01*
X182119047Y-59077380D01*
X182023809Y-59267857D01*
X182023809Y-59648809D01*
X182119047Y-59839285D01*
X182214285Y-59934523D01*
X182404761Y-60029761D01*
X182785714Y-60029761D01*
X182976190Y-59934523D01*
X183071428Y-59839285D01*
X183166666Y-59648809D01*
X183166666Y-59267857D01*
X183071428Y-59077380D01*
X182976190Y-58982142D01*
X182785714Y-58886904D01*
X103255952Y-135434523D02*
X103541666Y-135529761D01*
X104017857Y-135529761D01*
X104208333Y-135434523D01*
X104303571Y-135339285D01*
X104398809Y-135148809D01*
X104398809Y-134958333D01*
X104303571Y-134767857D01*
X104208333Y-134672619D01*
X104017857Y-134577380D01*
X103636904Y-134482142D01*
X103446428Y-134386904D01*
X103351190Y-134291666D01*
X103255952Y-134101190D01*
X103255952Y-133910714D01*
X103351190Y-133720238D01*
X103446428Y-133625000D01*
X103636904Y-133529761D01*
X104113095Y-133529761D01*
X104398809Y-133625000D01*
X105065476Y-133529761D02*
X105541666Y-135529761D01*
X105922619Y-134101190D01*
X106303571Y-135529761D01*
X106779761Y-133529761D01*
X107351190Y-133529761D02*
X108589285Y-133529761D01*
X107922619Y-134291666D01*
X108208333Y-134291666D01*
X108398809Y-134386904D01*
X108494047Y-134482142D01*
X108589285Y-134672619D01*
X108589285Y-135148809D01*
X108494047Y-135339285D01*
X108398809Y-135434523D01*
X108208333Y-135529761D01*
X107636904Y-135529761D01*
X107446428Y-135434523D01*
X107351190Y-135339285D01*
X110303571Y-134196428D02*
X110303571Y-135529761D01*
X109827380Y-133434523D02*
X109351190Y-134863095D01*
X110589285Y-134863095D01*
X101833333Y-59934523D02*
X102119047Y-60029761D01*
X102595238Y-60029761D01*
X102785714Y-59934523D01*
X102880952Y-59839285D01*
X102976190Y-59648809D01*
X102976190Y-59458333D01*
X102880952Y-59267857D01*
X102785714Y-59172619D01*
X102595238Y-59077380D01*
X102214285Y-58982142D01*
X102023809Y-58886904D01*
X101928571Y-58791666D01*
X101833333Y-58601190D01*
X101833333Y-58410714D01*
X101928571Y-58220238D01*
X102023809Y-58125000D01*
X102214285Y-58029761D01*
X102690476Y-58029761D01*
X102976190Y-58125000D01*
X103642857Y-58029761D02*
X104119047Y-60029761D01*
X104500000Y-58601190D01*
X104880952Y-60029761D01*
X105357142Y-58029761D01*
X106976190Y-58696428D02*
X106976190Y-60029761D01*
X106500000Y-57934523D02*
X106023809Y-59363095D01*
X107261904Y-59363095D01*
X120833333Y-59934523D02*
X121119047Y-60029761D01*
X121595238Y-60029761D01*
X121785714Y-59934523D01*
X121880952Y-59839285D01*
X121976190Y-59648809D01*
X121976190Y-59458333D01*
X121880952Y-59267857D01*
X121785714Y-59172619D01*
X121595238Y-59077380D01*
X121214285Y-58982142D01*
X121023809Y-58886904D01*
X120928571Y-58791666D01*
X120833333Y-58601190D01*
X120833333Y-58410714D01*
X120928571Y-58220238D01*
X121023809Y-58125000D01*
X121214285Y-58029761D01*
X121690476Y-58029761D01*
X121976190Y-58125000D01*
X122642857Y-58029761D02*
X123119047Y-60029761D01*
X123500000Y-58601190D01*
X123880952Y-60029761D01*
X124357142Y-58029761D01*
X126071428Y-58029761D02*
X125119047Y-58029761D01*
X125023809Y-58982142D01*
X125119047Y-58886904D01*
X125309523Y-58791666D01*
X125785714Y-58791666D01*
X125976190Y-58886904D01*
X126071428Y-58982142D01*
X126166666Y-59172619D01*
X126166666Y-59648809D01*
X126071428Y-59839285D01*
X125976190Y-59934523D01*
X125785714Y-60029761D01*
X125309523Y-60029761D01*
X125119047Y-59934523D01*
X125023809Y-59839285D01*
X139833333Y-59934523D02*
X140119047Y-60029761D01*
X140595238Y-60029761D01*
X140785714Y-59934523D01*
X140880952Y-59839285D01*
X140976190Y-59648809D01*
X140976190Y-59458333D01*
X140880952Y-59267857D01*
X140785714Y-59172619D01*
X140595238Y-59077380D01*
X140214285Y-58982142D01*
X140023809Y-58886904D01*
X139928571Y-58791666D01*
X139833333Y-58601190D01*
X139833333Y-58410714D01*
X139928571Y-58220238D01*
X140023809Y-58125000D01*
X140214285Y-58029761D01*
X140690476Y-58029761D01*
X140976190Y-58125000D01*
X141642857Y-58029761D02*
X142119047Y-60029761D01*
X142500000Y-58601190D01*
X142880952Y-60029761D01*
X143357142Y-58029761D01*
X144976190Y-58029761D02*
X144595238Y-58029761D01*
X144404761Y-58125000D01*
X144309523Y-58220238D01*
X144119047Y-58505952D01*
X144023809Y-58886904D01*
X144023809Y-59648809D01*
X144119047Y-59839285D01*
X144214285Y-59934523D01*
X144404761Y-60029761D01*
X144785714Y-60029761D01*
X144976190Y-59934523D01*
X145071428Y-59839285D01*
X145166666Y-59648809D01*
X145166666Y-59172619D01*
X145071428Y-58982142D01*
X144976190Y-58886904D01*
X144785714Y-58791666D01*
X144404761Y-58791666D01*
X144214285Y-58886904D01*
X144119047Y-58982142D01*
X144023809Y-59172619D01*
X143630952Y-107934523D02*
X143916666Y-108029761D01*
X144392857Y-108029761D01*
X144583333Y-107934523D01*
X144678571Y-107839285D01*
X144773809Y-107648809D01*
X144773809Y-107458333D01*
X144678571Y-107267857D01*
X144583333Y-107172619D01*
X144392857Y-107077380D01*
X144011904Y-106982142D01*
X143821428Y-106886904D01*
X143726190Y-106791666D01*
X143630952Y-106601190D01*
X143630952Y-106410714D01*
X143726190Y-106220238D01*
X143821428Y-106125000D01*
X144011904Y-106029761D01*
X144488095Y-106029761D01*
X144773809Y-106125000D01*
X145440476Y-106029761D02*
X145916666Y-108029761D01*
X146297619Y-106601190D01*
X146678571Y-108029761D01*
X147154761Y-106029761D01*
X147821428Y-106220238D02*
X147916666Y-106125000D01*
X148107142Y-106029761D01*
X148583333Y-106029761D01*
X148773809Y-106125000D01*
X148869047Y-106220238D01*
X148964285Y-106410714D01*
X148964285Y-106601190D01*
X148869047Y-106886904D01*
X147726190Y-108029761D01*
X148964285Y-108029761D01*
X149916666Y-108029761D02*
X150297619Y-108029761D01*
X150488095Y-107934523D01*
X150583333Y-107839285D01*
X150773809Y-107553571D01*
X150869047Y-107172619D01*
X150869047Y-106410714D01*
X150773809Y-106220238D01*
X150678571Y-106125000D01*
X150488095Y-106029761D01*
X150107142Y-106029761D01*
X149916666Y-106125000D01*
X149821428Y-106220238D01*
X149726190Y-106410714D01*
X149726190Y-106886904D01*
X149821428Y-107077380D01*
X149916666Y-107172619D01*
X150107142Y-107267857D01*
X150488095Y-107267857D01*
X150678571Y-107172619D01*
X150773809Y-107077380D01*
X150869047Y-106886904D01*
X81880952Y-135934523D02*
X82166666Y-136029761D01*
X82642857Y-136029761D01*
X82833333Y-135934523D01*
X82928571Y-135839285D01*
X83023809Y-135648809D01*
X83023809Y-135458333D01*
X82928571Y-135267857D01*
X82833333Y-135172619D01*
X82642857Y-135077380D01*
X82261904Y-134982142D01*
X82071428Y-134886904D01*
X81976190Y-134791666D01*
X81880952Y-134601190D01*
X81880952Y-134410714D01*
X81976190Y-134220238D01*
X82071428Y-134125000D01*
X82261904Y-134029761D01*
X82738095Y-134029761D01*
X83023809Y-134125000D01*
X83690476Y-134029761D02*
X84166666Y-136029761D01*
X84547619Y-134601190D01*
X84928571Y-136029761D01*
X85404761Y-134029761D01*
X85976190Y-134029761D02*
X87214285Y-134029761D01*
X86547619Y-134791666D01*
X86833333Y-134791666D01*
X87023809Y-134886904D01*
X87119047Y-134982142D01*
X87214285Y-135172619D01*
X87214285Y-135648809D01*
X87119047Y-135839285D01*
X87023809Y-135934523D01*
X86833333Y-136029761D01*
X86261904Y-136029761D01*
X86071428Y-135934523D01*
X85976190Y-135839285D01*
X87880952Y-134029761D02*
X89119047Y-134029761D01*
X88452380Y-134791666D01*
X88738095Y-134791666D01*
X88928571Y-134886904D01*
X89023809Y-134982142D01*
X89119047Y-135172619D01*
X89119047Y-135648809D01*
X89023809Y-135839285D01*
X88928571Y-135934523D01*
X88738095Y-136029761D01*
X88166666Y-136029761D01*
X87976190Y-135934523D01*
X87880952Y-135839285D01*
X124630952Y-107934523D02*
X124916666Y-108029761D01*
X125392857Y-108029761D01*
X125583333Y-107934523D01*
X125678571Y-107839285D01*
X125773809Y-107648809D01*
X125773809Y-107458333D01*
X125678571Y-107267857D01*
X125583333Y-107172619D01*
X125392857Y-107077380D01*
X125011904Y-106982142D01*
X124821428Y-106886904D01*
X124726190Y-106791666D01*
X124630952Y-106601190D01*
X124630952Y-106410714D01*
X124726190Y-106220238D01*
X124821428Y-106125000D01*
X125011904Y-106029761D01*
X125488095Y-106029761D01*
X125773809Y-106125000D01*
X126440476Y-106029761D02*
X126916666Y-108029761D01*
X127297619Y-106601190D01*
X127678571Y-108029761D01*
X128154761Y-106029761D01*
X128821428Y-106220238D02*
X128916666Y-106125000D01*
X129107142Y-106029761D01*
X129583333Y-106029761D01*
X129773809Y-106125000D01*
X129869047Y-106220238D01*
X129964285Y-106410714D01*
X129964285Y-106601190D01*
X129869047Y-106886904D01*
X128726190Y-108029761D01*
X129964285Y-108029761D01*
X131107142Y-106886904D02*
X130916666Y-106791666D01*
X130821428Y-106696428D01*
X130726190Y-106505952D01*
X130726190Y-106410714D01*
X130821428Y-106220238D01*
X130916666Y-106125000D01*
X131107142Y-106029761D01*
X131488095Y-106029761D01*
X131678571Y-106125000D01*
X131773809Y-106220238D01*
X131869047Y-106410714D01*
X131869047Y-106505952D01*
X131773809Y-106696428D01*
X131678571Y-106791666D01*
X131488095Y-106886904D01*
X131107142Y-106886904D01*
X130916666Y-106982142D01*
X130821428Y-107077380D01*
X130726190Y-107267857D01*
X130726190Y-107648809D01*
X130821428Y-107839285D01*
X130916666Y-107934523D01*
X131107142Y-108029761D01*
X131488095Y-108029761D01*
X131678571Y-107934523D01*
X131773809Y-107839285D01*
X131869047Y-107648809D01*
X131869047Y-107267857D01*
X131773809Y-107077380D01*
X131678571Y-106982142D01*
X131488095Y-106886904D01*
X105630952Y-107934523D02*
X105916666Y-108029761D01*
X106392857Y-108029761D01*
X106583333Y-107934523D01*
X106678571Y-107839285D01*
X106773809Y-107648809D01*
X106773809Y-107458333D01*
X106678571Y-107267857D01*
X106583333Y-107172619D01*
X106392857Y-107077380D01*
X106011904Y-106982142D01*
X105821428Y-106886904D01*
X105726190Y-106791666D01*
X105630952Y-106601190D01*
X105630952Y-106410714D01*
X105726190Y-106220238D01*
X105821428Y-106125000D01*
X106011904Y-106029761D01*
X106488095Y-106029761D01*
X106773809Y-106125000D01*
X107440476Y-106029761D02*
X107916666Y-108029761D01*
X108297619Y-106601190D01*
X108678571Y-108029761D01*
X109154761Y-106029761D01*
X109821428Y-106220238D02*
X109916666Y-106125000D01*
X110107142Y-106029761D01*
X110583333Y-106029761D01*
X110773809Y-106125000D01*
X110869047Y-106220238D01*
X110964285Y-106410714D01*
X110964285Y-106601190D01*
X110869047Y-106886904D01*
X109726190Y-108029761D01*
X110964285Y-108029761D01*
X111630952Y-106029761D02*
X112964285Y-106029761D01*
X112107142Y-108029761D01*
X86630952Y-107934523D02*
X86916666Y-108029761D01*
X87392857Y-108029761D01*
X87583333Y-107934523D01*
X87678571Y-107839285D01*
X87773809Y-107648809D01*
X87773809Y-107458333D01*
X87678571Y-107267857D01*
X87583333Y-107172619D01*
X87392857Y-107077380D01*
X87011904Y-106982142D01*
X86821428Y-106886904D01*
X86726190Y-106791666D01*
X86630952Y-106601190D01*
X86630952Y-106410714D01*
X86726190Y-106220238D01*
X86821428Y-106125000D01*
X87011904Y-106029761D01*
X87488095Y-106029761D01*
X87773809Y-106125000D01*
X88440476Y-106029761D02*
X88916666Y-108029761D01*
X89297619Y-106601190D01*
X89678571Y-108029761D01*
X90154761Y-106029761D01*
X90821428Y-106220238D02*
X90916666Y-106125000D01*
X91107142Y-106029761D01*
X91583333Y-106029761D01*
X91773809Y-106125000D01*
X91869047Y-106220238D01*
X91964285Y-106410714D01*
X91964285Y-106601190D01*
X91869047Y-106886904D01*
X90726190Y-108029761D01*
X91964285Y-108029761D01*
X93678571Y-106029761D02*
X93297619Y-106029761D01*
X93107142Y-106125000D01*
X93011904Y-106220238D01*
X92821428Y-106505952D01*
X92726190Y-106886904D01*
X92726190Y-107648809D01*
X92821428Y-107839285D01*
X92916666Y-107934523D01*
X93107142Y-108029761D01*
X93488095Y-108029761D01*
X93678571Y-107934523D01*
X93773809Y-107839285D01*
X93869047Y-107648809D01*
X93869047Y-107172619D01*
X93773809Y-106982142D01*
X93678571Y-106886904D01*
X93488095Y-106791666D01*
X93107142Y-106791666D01*
X92916666Y-106886904D01*
X92821428Y-106982142D01*
X92726190Y-107172619D01*
X67630952Y-107934523D02*
X67916666Y-108029761D01*
X68392857Y-108029761D01*
X68583333Y-107934523D01*
X68678571Y-107839285D01*
X68773809Y-107648809D01*
X68773809Y-107458333D01*
X68678571Y-107267857D01*
X68583333Y-107172619D01*
X68392857Y-107077380D01*
X68011904Y-106982142D01*
X67821428Y-106886904D01*
X67726190Y-106791666D01*
X67630952Y-106601190D01*
X67630952Y-106410714D01*
X67726190Y-106220238D01*
X67821428Y-106125000D01*
X68011904Y-106029761D01*
X68488095Y-106029761D01*
X68773809Y-106125000D01*
X69440476Y-106029761D02*
X69916666Y-108029761D01*
X70297619Y-106601190D01*
X70678571Y-108029761D01*
X71154761Y-106029761D01*
X71821428Y-106220238D02*
X71916666Y-106125000D01*
X72107142Y-106029761D01*
X72583333Y-106029761D01*
X72773809Y-106125000D01*
X72869047Y-106220238D01*
X72964285Y-106410714D01*
X72964285Y-106601190D01*
X72869047Y-106886904D01*
X71726190Y-108029761D01*
X72964285Y-108029761D01*
X74773809Y-106029761D02*
X73821428Y-106029761D01*
X73726190Y-106982142D01*
X73821428Y-106886904D01*
X74011904Y-106791666D01*
X74488095Y-106791666D01*
X74678571Y-106886904D01*
X74773809Y-106982142D01*
X74869047Y-107172619D01*
X74869047Y-107648809D01*
X74773809Y-107839285D01*
X74678571Y-107934523D01*
X74488095Y-108029761D01*
X74011904Y-108029761D01*
X73821428Y-107934523D01*
X73726190Y-107839285D01*
X153130952Y-97934523D02*
X153416666Y-98029761D01*
X153892857Y-98029761D01*
X154083333Y-97934523D01*
X154178571Y-97839285D01*
X154273809Y-97648809D01*
X154273809Y-97458333D01*
X154178571Y-97267857D01*
X154083333Y-97172619D01*
X153892857Y-97077380D01*
X153511904Y-96982142D01*
X153321428Y-96886904D01*
X153226190Y-96791666D01*
X153130952Y-96601190D01*
X153130952Y-96410714D01*
X153226190Y-96220238D01*
X153321428Y-96125000D01*
X153511904Y-96029761D01*
X153988095Y-96029761D01*
X154273809Y-96125000D01*
X154940476Y-96029761D02*
X155416666Y-98029761D01*
X155797619Y-96601190D01*
X156178571Y-98029761D01*
X156654761Y-96029761D01*
X157321428Y-96220238D02*
X157416666Y-96125000D01*
X157607142Y-96029761D01*
X158083333Y-96029761D01*
X158273809Y-96125000D01*
X158369047Y-96220238D01*
X158464285Y-96410714D01*
X158464285Y-96601190D01*
X158369047Y-96886904D01*
X157226190Y-98029761D01*
X158464285Y-98029761D01*
X159130952Y-96029761D02*
X160369047Y-96029761D01*
X159702380Y-96791666D01*
X159988095Y-96791666D01*
X160178571Y-96886904D01*
X160273809Y-96982142D01*
X160369047Y-97172619D01*
X160369047Y-97648809D01*
X160273809Y-97839285D01*
X160178571Y-97934523D01*
X159988095Y-98029761D01*
X159416666Y-98029761D01*
X159226190Y-97934523D01*
X159130952Y-97839285D01*
X134130952Y-97934523D02*
X134416666Y-98029761D01*
X134892857Y-98029761D01*
X135083333Y-97934523D01*
X135178571Y-97839285D01*
X135273809Y-97648809D01*
X135273809Y-97458333D01*
X135178571Y-97267857D01*
X135083333Y-97172619D01*
X134892857Y-97077380D01*
X134511904Y-96982142D01*
X134321428Y-96886904D01*
X134226190Y-96791666D01*
X134130952Y-96601190D01*
X134130952Y-96410714D01*
X134226190Y-96220238D01*
X134321428Y-96125000D01*
X134511904Y-96029761D01*
X134988095Y-96029761D01*
X135273809Y-96125000D01*
X135940476Y-96029761D02*
X136416666Y-98029761D01*
X136797619Y-96601190D01*
X137178571Y-98029761D01*
X137654761Y-96029761D01*
X138321428Y-96220238D02*
X138416666Y-96125000D01*
X138607142Y-96029761D01*
X139083333Y-96029761D01*
X139273809Y-96125000D01*
X139369047Y-96220238D01*
X139464285Y-96410714D01*
X139464285Y-96601190D01*
X139369047Y-96886904D01*
X138226190Y-98029761D01*
X139464285Y-98029761D01*
X140226190Y-96220238D02*
X140321428Y-96125000D01*
X140511904Y-96029761D01*
X140988095Y-96029761D01*
X141178571Y-96125000D01*
X141273809Y-96220238D01*
X141369047Y-96410714D01*
X141369047Y-96601190D01*
X141273809Y-96886904D01*
X140130952Y-98029761D01*
X141369047Y-98029761D01*
X115130952Y-97934523D02*
X115416666Y-98029761D01*
X115892857Y-98029761D01*
X116083333Y-97934523D01*
X116178571Y-97839285D01*
X116273809Y-97648809D01*
X116273809Y-97458333D01*
X116178571Y-97267857D01*
X116083333Y-97172619D01*
X115892857Y-97077380D01*
X115511904Y-96982142D01*
X115321428Y-96886904D01*
X115226190Y-96791666D01*
X115130952Y-96601190D01*
X115130952Y-96410714D01*
X115226190Y-96220238D01*
X115321428Y-96125000D01*
X115511904Y-96029761D01*
X115988095Y-96029761D01*
X116273809Y-96125000D01*
X116940476Y-96029761D02*
X117416666Y-98029761D01*
X117797619Y-96601190D01*
X118178571Y-98029761D01*
X118654761Y-96029761D01*
X119321428Y-96220238D02*
X119416666Y-96125000D01*
X119607142Y-96029761D01*
X120083333Y-96029761D01*
X120273809Y-96125000D01*
X120369047Y-96220238D01*
X120464285Y-96410714D01*
X120464285Y-96601190D01*
X120369047Y-96886904D01*
X119226190Y-98029761D01*
X120464285Y-98029761D01*
X122369047Y-98029761D02*
X121226190Y-98029761D01*
X121797619Y-98029761D02*
X121797619Y-96029761D01*
X121607142Y-96315476D01*
X121416666Y-96505952D01*
X121226190Y-96601190D01*
X96130952Y-97934523D02*
X96416666Y-98029761D01*
X96892857Y-98029761D01*
X97083333Y-97934523D01*
X97178571Y-97839285D01*
X97273809Y-97648809D01*
X97273809Y-97458333D01*
X97178571Y-97267857D01*
X97083333Y-97172619D01*
X96892857Y-97077380D01*
X96511904Y-96982142D01*
X96321428Y-96886904D01*
X96226190Y-96791666D01*
X96130952Y-96601190D01*
X96130952Y-96410714D01*
X96226190Y-96220238D01*
X96321428Y-96125000D01*
X96511904Y-96029761D01*
X96988095Y-96029761D01*
X97273809Y-96125000D01*
X97940476Y-96029761D02*
X98416666Y-98029761D01*
X98797619Y-96601190D01*
X99178571Y-98029761D01*
X99654761Y-96029761D01*
X100321428Y-96220238D02*
X100416666Y-96125000D01*
X100607142Y-96029761D01*
X101083333Y-96029761D01*
X101273809Y-96125000D01*
X101369047Y-96220238D01*
X101464285Y-96410714D01*
X101464285Y-96601190D01*
X101369047Y-96886904D01*
X100226190Y-98029761D01*
X101464285Y-98029761D01*
X102702380Y-96029761D02*
X102892857Y-96029761D01*
X103083333Y-96125000D01*
X103178571Y-96220238D01*
X103273809Y-96410714D01*
X103369047Y-96791666D01*
X103369047Y-97267857D01*
X103273809Y-97648809D01*
X103178571Y-97839285D01*
X103083333Y-97934523D01*
X102892857Y-98029761D01*
X102702380Y-98029761D01*
X102511904Y-97934523D01*
X102416666Y-97839285D01*
X102321428Y-97648809D01*
X102226190Y-97267857D01*
X102226190Y-96791666D01*
X102321428Y-96410714D01*
X102416666Y-96220238D01*
X102511904Y-96125000D01*
X102702380Y-96029761D01*
X77130952Y-97934523D02*
X77416666Y-98029761D01*
X77892857Y-98029761D01*
X78083333Y-97934523D01*
X78178571Y-97839285D01*
X78273809Y-97648809D01*
X78273809Y-97458333D01*
X78178571Y-97267857D01*
X78083333Y-97172619D01*
X77892857Y-97077380D01*
X77511904Y-96982142D01*
X77321428Y-96886904D01*
X77226190Y-96791666D01*
X77130952Y-96601190D01*
X77130952Y-96410714D01*
X77226190Y-96220238D01*
X77321428Y-96125000D01*
X77511904Y-96029761D01*
X77988095Y-96029761D01*
X78273809Y-96125000D01*
X78940476Y-96029761D02*
X79416666Y-98029761D01*
X79797619Y-96601190D01*
X80178571Y-98029761D01*
X80654761Y-96029761D01*
X82464285Y-98029761D02*
X81321428Y-98029761D01*
X81892857Y-98029761D02*
X81892857Y-96029761D01*
X81702380Y-96315476D01*
X81511904Y-96505952D01*
X81321428Y-96601190D01*
X83416666Y-98029761D02*
X83797619Y-98029761D01*
X83988095Y-97934523D01*
X84083333Y-97839285D01*
X84273809Y-97553571D01*
X84369047Y-97172619D01*
X84369047Y-96410714D01*
X84273809Y-96220238D01*
X84178571Y-96125000D01*
X83988095Y-96029761D01*
X83607142Y-96029761D01*
X83416666Y-96125000D01*
X83321428Y-96220238D01*
X83226190Y-96410714D01*
X83226190Y-96886904D01*
X83321428Y-97077380D01*
X83416666Y-97172619D01*
X83607142Y-97267857D01*
X83988095Y-97267857D01*
X84178571Y-97172619D01*
X84273809Y-97077380D01*
X84369047Y-96886904D01*
X58130952Y-97934523D02*
X58416666Y-98029761D01*
X58892857Y-98029761D01*
X59083333Y-97934523D01*
X59178571Y-97839285D01*
X59273809Y-97648809D01*
X59273809Y-97458333D01*
X59178571Y-97267857D01*
X59083333Y-97172619D01*
X58892857Y-97077380D01*
X58511904Y-96982142D01*
X58321428Y-96886904D01*
X58226190Y-96791666D01*
X58130952Y-96601190D01*
X58130952Y-96410714D01*
X58226190Y-96220238D01*
X58321428Y-96125000D01*
X58511904Y-96029761D01*
X58988095Y-96029761D01*
X59273809Y-96125000D01*
X59940476Y-96029761D02*
X60416666Y-98029761D01*
X60797619Y-96601190D01*
X61178571Y-98029761D01*
X61654761Y-96029761D01*
X63464285Y-98029761D02*
X62321428Y-98029761D01*
X62892857Y-98029761D02*
X62892857Y-96029761D01*
X62702380Y-96315476D01*
X62511904Y-96505952D01*
X62321428Y-96601190D01*
X64607142Y-96886904D02*
X64416666Y-96791666D01*
X64321428Y-96696428D01*
X64226190Y-96505952D01*
X64226190Y-96410714D01*
X64321428Y-96220238D01*
X64416666Y-96125000D01*
X64607142Y-96029761D01*
X64988095Y-96029761D01*
X65178571Y-96125000D01*
X65273809Y-96220238D01*
X65369047Y-96410714D01*
X65369047Y-96505952D01*
X65273809Y-96696428D01*
X65178571Y-96791666D01*
X64988095Y-96886904D01*
X64607142Y-96886904D01*
X64416666Y-96982142D01*
X64321428Y-97077380D01*
X64226190Y-97267857D01*
X64226190Y-97648809D01*
X64321428Y-97839285D01*
X64416666Y-97934523D01*
X64607142Y-98029761D01*
X64988095Y-98029761D01*
X65178571Y-97934523D01*
X65273809Y-97839285D01*
X65369047Y-97648809D01*
X65369047Y-97267857D01*
X65273809Y-97077380D01*
X65178571Y-96982142D01*
X64988095Y-96886904D01*
X148380952Y-69934523D02*
X148666666Y-70029761D01*
X149142857Y-70029761D01*
X149333333Y-69934523D01*
X149428571Y-69839285D01*
X149523809Y-69648809D01*
X149523809Y-69458333D01*
X149428571Y-69267857D01*
X149333333Y-69172619D01*
X149142857Y-69077380D01*
X148761904Y-68982142D01*
X148571428Y-68886904D01*
X148476190Y-68791666D01*
X148380952Y-68601190D01*
X148380952Y-68410714D01*
X148476190Y-68220238D01*
X148571428Y-68125000D01*
X148761904Y-68029761D01*
X149238095Y-68029761D01*
X149523809Y-68125000D01*
X150190476Y-68029761D02*
X150666666Y-70029761D01*
X151047619Y-68601190D01*
X151428571Y-70029761D01*
X151904761Y-68029761D01*
X153714285Y-70029761D02*
X152571428Y-70029761D01*
X153142857Y-70029761D02*
X153142857Y-68029761D01*
X152952380Y-68315476D01*
X152761904Y-68505952D01*
X152571428Y-68601190D01*
X155523809Y-68029761D02*
X154571428Y-68029761D01*
X154476190Y-68982142D01*
X154571428Y-68886904D01*
X154761904Y-68791666D01*
X155238095Y-68791666D01*
X155428571Y-68886904D01*
X155523809Y-68982142D01*
X155619047Y-69172619D01*
X155619047Y-69648809D01*
X155523809Y-69839285D01*
X155428571Y-69934523D01*
X155238095Y-70029761D01*
X154761904Y-70029761D01*
X154571428Y-69934523D01*
X154476190Y-69839285D01*
X129380952Y-69934523D02*
X129666666Y-70029761D01*
X130142857Y-70029761D01*
X130333333Y-69934523D01*
X130428571Y-69839285D01*
X130523809Y-69648809D01*
X130523809Y-69458333D01*
X130428571Y-69267857D01*
X130333333Y-69172619D01*
X130142857Y-69077380D01*
X129761904Y-68982142D01*
X129571428Y-68886904D01*
X129476190Y-68791666D01*
X129380952Y-68601190D01*
X129380952Y-68410714D01*
X129476190Y-68220238D01*
X129571428Y-68125000D01*
X129761904Y-68029761D01*
X130238095Y-68029761D01*
X130523809Y-68125000D01*
X131190476Y-68029761D02*
X131666666Y-70029761D01*
X132047619Y-68601190D01*
X132428571Y-70029761D01*
X132904761Y-68029761D01*
X134714285Y-70029761D02*
X133571428Y-70029761D01*
X134142857Y-70029761D02*
X134142857Y-68029761D01*
X133952380Y-68315476D01*
X133761904Y-68505952D01*
X133571428Y-68601190D01*
X136428571Y-68696428D02*
X136428571Y-70029761D01*
X135952380Y-67934523D02*
X135476190Y-69363095D01*
X136714285Y-69363095D01*
X110380952Y-69934523D02*
X110666666Y-70029761D01*
X111142857Y-70029761D01*
X111333333Y-69934523D01*
X111428571Y-69839285D01*
X111523809Y-69648809D01*
X111523809Y-69458333D01*
X111428571Y-69267857D01*
X111333333Y-69172619D01*
X111142857Y-69077380D01*
X110761904Y-68982142D01*
X110571428Y-68886904D01*
X110476190Y-68791666D01*
X110380952Y-68601190D01*
X110380952Y-68410714D01*
X110476190Y-68220238D01*
X110571428Y-68125000D01*
X110761904Y-68029761D01*
X111238095Y-68029761D01*
X111523809Y-68125000D01*
X112190476Y-68029761D02*
X112666666Y-70029761D01*
X113047619Y-68601190D01*
X113428571Y-70029761D01*
X113904761Y-68029761D01*
X115714285Y-70029761D02*
X114571428Y-70029761D01*
X115142857Y-70029761D02*
X115142857Y-68029761D01*
X114952380Y-68315476D01*
X114761904Y-68505952D01*
X114571428Y-68601190D01*
X116380952Y-68029761D02*
X117619047Y-68029761D01*
X116952380Y-68791666D01*
X117238095Y-68791666D01*
X117428571Y-68886904D01*
X117523809Y-68982142D01*
X117619047Y-69172619D01*
X117619047Y-69648809D01*
X117523809Y-69839285D01*
X117428571Y-69934523D01*
X117238095Y-70029761D01*
X116666666Y-70029761D01*
X116476190Y-69934523D01*
X116380952Y-69839285D01*
X91380952Y-69934523D02*
X91666666Y-70029761D01*
X92142857Y-70029761D01*
X92333333Y-69934523D01*
X92428571Y-69839285D01*
X92523809Y-69648809D01*
X92523809Y-69458333D01*
X92428571Y-69267857D01*
X92333333Y-69172619D01*
X92142857Y-69077380D01*
X91761904Y-68982142D01*
X91571428Y-68886904D01*
X91476190Y-68791666D01*
X91380952Y-68601190D01*
X91380952Y-68410714D01*
X91476190Y-68220238D01*
X91571428Y-68125000D01*
X91761904Y-68029761D01*
X92238095Y-68029761D01*
X92523809Y-68125000D01*
X93190476Y-68029761D02*
X93666666Y-70029761D01*
X94047619Y-68601190D01*
X94428571Y-70029761D01*
X94904761Y-68029761D01*
X96714285Y-70029761D02*
X95571428Y-70029761D01*
X96142857Y-70029761D02*
X96142857Y-68029761D01*
X95952380Y-68315476D01*
X95761904Y-68505952D01*
X95571428Y-68601190D01*
X97476190Y-68220238D02*
X97571428Y-68125000D01*
X97761904Y-68029761D01*
X98238095Y-68029761D01*
X98428571Y-68125000D01*
X98523809Y-68220238D01*
X98619047Y-68410714D01*
X98619047Y-68601190D01*
X98523809Y-68886904D01*
X97380952Y-70029761D01*
X98619047Y-70029761D01*
X72380952Y-69934523D02*
X72666666Y-70029761D01*
X73142857Y-70029761D01*
X73333333Y-69934523D01*
X73428571Y-69839285D01*
X73523809Y-69648809D01*
X73523809Y-69458333D01*
X73428571Y-69267857D01*
X73333333Y-69172619D01*
X73142857Y-69077380D01*
X72761904Y-68982142D01*
X72571428Y-68886904D01*
X72476190Y-68791666D01*
X72380952Y-68601190D01*
X72380952Y-68410714D01*
X72476190Y-68220238D01*
X72571428Y-68125000D01*
X72761904Y-68029761D01*
X73238095Y-68029761D01*
X73523809Y-68125000D01*
X74190476Y-68029761D02*
X74666666Y-70029761D01*
X75047619Y-68601190D01*
X75428571Y-70029761D01*
X75904761Y-68029761D01*
X77714285Y-70029761D02*
X76571428Y-70029761D01*
X77142857Y-70029761D02*
X77142857Y-68029761D01*
X76952380Y-68315476D01*
X76761904Y-68505952D01*
X76571428Y-68601190D01*
X79619047Y-70029761D02*
X78476190Y-70029761D01*
X79047619Y-70029761D02*
X79047619Y-68029761D01*
X78857142Y-68315476D01*
X78666666Y-68505952D01*
X78476190Y-68601190D01*
X53380952Y-69934523D02*
X53666666Y-70029761D01*
X54142857Y-70029761D01*
X54333333Y-69934523D01*
X54428571Y-69839285D01*
X54523809Y-69648809D01*
X54523809Y-69458333D01*
X54428571Y-69267857D01*
X54333333Y-69172619D01*
X54142857Y-69077380D01*
X53761904Y-68982142D01*
X53571428Y-68886904D01*
X53476190Y-68791666D01*
X53380952Y-68601190D01*
X53380952Y-68410714D01*
X53476190Y-68220238D01*
X53571428Y-68125000D01*
X53761904Y-68029761D01*
X54238095Y-68029761D01*
X54523809Y-68125000D01*
X55190476Y-68029761D02*
X55666666Y-70029761D01*
X56047619Y-68601190D01*
X56428571Y-70029761D01*
X56904761Y-68029761D01*
X58714285Y-70029761D02*
X57571428Y-70029761D01*
X58142857Y-70029761D02*
X58142857Y-68029761D01*
X57952380Y-68315476D01*
X57761904Y-68505952D01*
X57571428Y-68601190D01*
X59952380Y-68029761D02*
X60142857Y-68029761D01*
X60333333Y-68125000D01*
X60428571Y-68220238D01*
X60523809Y-68410714D01*
X60619047Y-68791666D01*
X60619047Y-69267857D01*
X60523809Y-69648809D01*
X60428571Y-69839285D01*
X60333333Y-69934523D01*
X60142857Y-70029761D01*
X59952380Y-70029761D01*
X59761904Y-69934523D01*
X59666666Y-69839285D01*
X59571428Y-69648809D01*
X59476190Y-69267857D01*
X59476190Y-68791666D01*
X59571428Y-68410714D01*
X59666666Y-68220238D01*
X59761904Y-68125000D01*
X59952380Y-68029761D01*
X158833333Y-59934523D02*
X159119047Y-60029761D01*
X159595238Y-60029761D01*
X159785714Y-59934523D01*
X159880952Y-59839285D01*
X159976190Y-59648809D01*
X159976190Y-59458333D01*
X159880952Y-59267857D01*
X159785714Y-59172619D01*
X159595238Y-59077380D01*
X159214285Y-58982142D01*
X159023809Y-58886904D01*
X158928571Y-58791666D01*
X158833333Y-58601190D01*
X158833333Y-58410714D01*
X158928571Y-58220238D01*
X159023809Y-58125000D01*
X159214285Y-58029761D01*
X159690476Y-58029761D01*
X159976190Y-58125000D01*
X160642857Y-58029761D02*
X161119047Y-60029761D01*
X161500000Y-58601190D01*
X161880952Y-60029761D01*
X162357142Y-58029761D01*
X162928571Y-58029761D02*
X164261904Y-58029761D01*
X163404761Y-60029761D01*
X82833333Y-59934523D02*
X83119047Y-60029761D01*
X83595238Y-60029761D01*
X83785714Y-59934523D01*
X83880952Y-59839285D01*
X83976190Y-59648809D01*
X83976190Y-59458333D01*
X83880952Y-59267857D01*
X83785714Y-59172619D01*
X83595238Y-59077380D01*
X83214285Y-58982142D01*
X83023809Y-58886904D01*
X82928571Y-58791666D01*
X82833333Y-58601190D01*
X82833333Y-58410714D01*
X82928571Y-58220238D01*
X83023809Y-58125000D01*
X83214285Y-58029761D01*
X83690476Y-58029761D01*
X83976190Y-58125000D01*
X84642857Y-58029761D02*
X85119047Y-60029761D01*
X85500000Y-58601190D01*
X85880952Y-60029761D01*
X86357142Y-58029761D01*
X86928571Y-58029761D02*
X88166666Y-58029761D01*
X87500000Y-58791666D01*
X87785714Y-58791666D01*
X87976190Y-58886904D01*
X88071428Y-58982142D01*
X88166666Y-59172619D01*
X88166666Y-59648809D01*
X88071428Y-59839285D01*
X87976190Y-59934523D01*
X87785714Y-60029761D01*
X87214285Y-60029761D01*
X87023809Y-59934523D01*
X86928571Y-59839285D01*
X63833333Y-59934523D02*
X64119047Y-60029761D01*
X64595238Y-60029761D01*
X64785714Y-59934523D01*
X64880952Y-59839285D01*
X64976190Y-59648809D01*
X64976190Y-59458333D01*
X64880952Y-59267857D01*
X64785714Y-59172619D01*
X64595238Y-59077380D01*
X64214285Y-58982142D01*
X64023809Y-58886904D01*
X63928571Y-58791666D01*
X63833333Y-58601190D01*
X63833333Y-58410714D01*
X63928571Y-58220238D01*
X64023809Y-58125000D01*
X64214285Y-58029761D01*
X64690476Y-58029761D01*
X64976190Y-58125000D01*
X65642857Y-58029761D02*
X66119047Y-60029761D01*
X66500000Y-58601190D01*
X66880952Y-60029761D01*
X67357142Y-58029761D01*
X68023809Y-58220238D02*
X68119047Y-58125000D01*
X68309523Y-58029761D01*
X68785714Y-58029761D01*
X68976190Y-58125000D01*
X69071428Y-58220238D01*
X69166666Y-58410714D01*
X69166666Y-58601190D01*
X69071428Y-58886904D01*
X67928571Y-60029761D01*
X69166666Y-60029761D01*
X44833333Y-59934523D02*
X45119047Y-60029761D01*
X45595238Y-60029761D01*
X45785714Y-59934523D01*
X45880952Y-59839285D01*
X45976190Y-59648809D01*
X45976190Y-59458333D01*
X45880952Y-59267857D01*
X45785714Y-59172619D01*
X45595238Y-59077380D01*
X45214285Y-58982142D01*
X45023809Y-58886904D01*
X44928571Y-58791666D01*
X44833333Y-58601190D01*
X44833333Y-58410714D01*
X44928571Y-58220238D01*
X45023809Y-58125000D01*
X45214285Y-58029761D01*
X45690476Y-58029761D01*
X45976190Y-58125000D01*
X46642857Y-58029761D02*
X47119047Y-60029761D01*
X47500000Y-58601190D01*
X47880952Y-60029761D01*
X48357142Y-58029761D01*
X50166666Y-60029761D02*
X49023809Y-60029761D01*
X49595238Y-60029761D02*
X49595238Y-58029761D01*
X49404761Y-58315476D01*
X49214285Y-58505952D01*
X49023809Y-58601190D01*
D10*
X83288333Y-100207380D02*
X82955000Y-99731190D01*
X82716904Y-100207380D02*
X82716904Y-99207380D01*
X83097857Y-99207380D01*
X83193095Y-99255000D01*
X83240714Y-99302619D01*
X83288333Y-99397857D01*
X83288333Y-99540714D01*
X83240714Y-99635952D01*
X83193095Y-99683571D01*
X83097857Y-99731190D01*
X82716904Y-99731190D01*
X84240714Y-100207380D02*
X83669285Y-100207380D01*
X83955000Y-100207380D02*
X83955000Y-99207380D01*
X83859761Y-99350238D01*
X83764523Y-99445476D01*
X83669285Y-99493095D01*
D12*
X150755952Y-135434523D02*
X151041666Y-135529761D01*
X151517857Y-135529761D01*
X151708333Y-135434523D01*
X151803571Y-135339285D01*
X151898809Y-135148809D01*
X151898809Y-134958333D01*
X151803571Y-134767857D01*
X151708333Y-134672619D01*
X151517857Y-134577380D01*
X151136904Y-134482142D01*
X150946428Y-134386904D01*
X150851190Y-134291666D01*
X150755952Y-134101190D01*
X150755952Y-133910714D01*
X150851190Y-133720238D01*
X150946428Y-133625000D01*
X151136904Y-133529761D01*
X151613095Y-133529761D01*
X151898809Y-133625000D01*
X152565476Y-133529761D02*
X153041666Y-135529761D01*
X153422619Y-134101190D01*
X153803571Y-135529761D01*
X154279761Y-133529761D01*
X154851190Y-133529761D02*
X156089285Y-133529761D01*
X155422619Y-134291666D01*
X155708333Y-134291666D01*
X155898809Y-134386904D01*
X155994047Y-134482142D01*
X156089285Y-134672619D01*
X156089285Y-135148809D01*
X155994047Y-135339285D01*
X155898809Y-135434523D01*
X155708333Y-135529761D01*
X155136904Y-135529761D01*
X154946428Y-135434523D01*
X154851190Y-135339285D01*
X157803571Y-133529761D02*
X157422619Y-133529761D01*
X157232142Y-133625000D01*
X157136904Y-133720238D01*
X156946428Y-134005952D01*
X156851190Y-134386904D01*
X156851190Y-135148809D01*
X156946428Y-135339285D01*
X157041666Y-135434523D01*
X157232142Y-135529761D01*
X157613095Y-135529761D01*
X157803571Y-135434523D01*
X157898809Y-135339285D01*
X157994047Y-135148809D01*
X157994047Y-134672619D01*
X157898809Y-134482142D01*
X157803571Y-134386904D01*
X157613095Y-134291666D01*
X157232142Y-134291666D01*
X157041666Y-134386904D01*
X156946428Y-134482142D01*
X156851190Y-134672619D01*
X127005952Y-135434523D02*
X127291666Y-135529761D01*
X127767857Y-135529761D01*
X127958333Y-135434523D01*
X128053571Y-135339285D01*
X128148809Y-135148809D01*
X128148809Y-134958333D01*
X128053571Y-134767857D01*
X127958333Y-134672619D01*
X127767857Y-134577380D01*
X127386904Y-134482142D01*
X127196428Y-134386904D01*
X127101190Y-134291666D01*
X127005952Y-134101190D01*
X127005952Y-133910714D01*
X127101190Y-133720238D01*
X127196428Y-133625000D01*
X127386904Y-133529761D01*
X127863095Y-133529761D01*
X128148809Y-133625000D01*
X128815476Y-133529761D02*
X129291666Y-135529761D01*
X129672619Y-134101190D01*
X130053571Y-135529761D01*
X130529761Y-133529761D01*
X131101190Y-133529761D02*
X132339285Y-133529761D01*
X131672619Y-134291666D01*
X131958333Y-134291666D01*
X132148809Y-134386904D01*
X132244047Y-134482142D01*
X132339285Y-134672619D01*
X132339285Y-135148809D01*
X132244047Y-135339285D01*
X132148809Y-135434523D01*
X131958333Y-135529761D01*
X131386904Y-135529761D01*
X131196428Y-135434523D01*
X131101190Y-135339285D01*
X134148809Y-133529761D02*
X133196428Y-133529761D01*
X133101190Y-134482142D01*
X133196428Y-134386904D01*
X133386904Y-134291666D01*
X133863095Y-134291666D01*
X134053571Y-134386904D01*
X134148809Y-134482142D01*
X134244047Y-134672619D01*
X134244047Y-135148809D01*
X134148809Y-135339285D01*
X134053571Y-135434523D01*
X133863095Y-135529761D01*
X133386904Y-135529761D01*
X133196428Y-135434523D01*
X133101190Y-135339285D01*
%LPC*%
D13*
X200400000Y-64125000D03*
X207400000Y-64125000D03*
X200400000Y-121125000D03*
X207400000Y-121125000D03*
D14*
X118750000Y-121125000D03*
D15*
X95660000Y-64125000D03*
D16*
X85500000Y-64125000D03*
D17*
X71580000Y-130625000D03*
X61420000Y-130625000D03*
D18*
X62690000Y-128085000D03*
D19*
X66500000Y-130625000D03*
D18*
X69040000Y-125545000D03*
D17*
X192045000Y-130625000D03*
X202205000Y-130625000D03*
D18*
X200935000Y-133165000D03*
D19*
X197125000Y-130625000D03*
D18*
X194585000Y-135705000D03*
D17*
X180830000Y-130625000D03*
X170670000Y-130625000D03*
D18*
X171940000Y-128085000D03*
D19*
X175750000Y-130625000D03*
D18*
X178290000Y-125545000D03*
D17*
X197455000Y-111625000D03*
X187295000Y-111625000D03*
D18*
X188565000Y-109085000D03*
D19*
X192375000Y-111625000D03*
D18*
X194915000Y-106545000D03*
D17*
X161170000Y-111625000D03*
X171330000Y-111625000D03*
D18*
X170060000Y-114165000D03*
D19*
X166250000Y-111625000D03*
D18*
X163710000Y-116705000D03*
D17*
X180830000Y-92625000D03*
X170670000Y-92625000D03*
D18*
X171940000Y-90085000D03*
D19*
X175750000Y-92625000D03*
D18*
X178290000Y-87545000D03*
D19*
X205380000Y-71187000D03*
X205380000Y-95063000D03*
D20*
X190140000Y-71187000D03*
X190140000Y-95063000D03*
D17*
X202205000Y-83125000D03*
X192045000Y-83125000D03*
D18*
X193315000Y-80585000D03*
D19*
X197125000Y-83125000D03*
D18*
X199665000Y-78045000D03*
D17*
X165920000Y-73625000D03*
X176080000Y-73625000D03*
D18*
X174810000Y-76165000D03*
D19*
X171000000Y-73625000D03*
D18*
X168460000Y-78705000D03*
D17*
X204580000Y-54625000D03*
X194420000Y-54625000D03*
D18*
X195690000Y-52085000D03*
D19*
X199500000Y-54625000D03*
D18*
X202040000Y-49545000D03*
D17*
X185580000Y-54625000D03*
X175420000Y-54625000D03*
D18*
X176690000Y-52085000D03*
D19*
X180500000Y-54625000D03*
D18*
X183040000Y-49545000D03*
D17*
X111955000Y-130625000D03*
X101795000Y-130625000D03*
D18*
X103065000Y-128085000D03*
D19*
X106875000Y-130625000D03*
D18*
X109415000Y-125545000D03*
D17*
X109580000Y-54625000D03*
X99420000Y-54625000D03*
D18*
X100690000Y-52085000D03*
D19*
X104500000Y-54625000D03*
D18*
X107040000Y-49545000D03*
D17*
X128580000Y-54625000D03*
X118420000Y-54625000D03*
D18*
X119690000Y-52085000D03*
D19*
X123500000Y-54625000D03*
D18*
X126040000Y-49545000D03*
D17*
X147580000Y-54625000D03*
X137420000Y-54625000D03*
D18*
X138690000Y-52085000D03*
D19*
X142500000Y-54625000D03*
D18*
X145040000Y-49545000D03*
D17*
X142170000Y-111625000D03*
X152330000Y-111625000D03*
D18*
X151060000Y-114165000D03*
D19*
X147250000Y-111625000D03*
D18*
X144710000Y-116705000D03*
D17*
X90580000Y-130625000D03*
X80420000Y-130625000D03*
D18*
X81690000Y-128085000D03*
D19*
X85500000Y-130625000D03*
D18*
X88040000Y-125545000D03*
D17*
X123170000Y-111625000D03*
X133330000Y-111625000D03*
D18*
X132060000Y-114165000D03*
D19*
X128250000Y-111625000D03*
D18*
X125710000Y-116705000D03*
D17*
X104170000Y-111625000D03*
X114330000Y-111625000D03*
D18*
X113060000Y-114165000D03*
D19*
X109250000Y-111625000D03*
D18*
X106710000Y-116705000D03*
D17*
X85170000Y-111625000D03*
X95330000Y-111625000D03*
D18*
X94060000Y-114165000D03*
D19*
X90250000Y-111625000D03*
D18*
X87710000Y-116705000D03*
D17*
X66170000Y-111625000D03*
X76330000Y-111625000D03*
D18*
X75060000Y-114165000D03*
D19*
X71250000Y-111625000D03*
D18*
X68710000Y-116705000D03*
D17*
X161830000Y-92625000D03*
X151670000Y-92625000D03*
D18*
X152940000Y-90085000D03*
D19*
X156750000Y-92625000D03*
D18*
X159290000Y-87545000D03*
D17*
X142830000Y-92625000D03*
X132670000Y-92625000D03*
D18*
X133940000Y-90085000D03*
D19*
X137750000Y-92625000D03*
D18*
X140290000Y-87545000D03*
D17*
X123830000Y-92625000D03*
X113670000Y-92625000D03*
D18*
X114940000Y-90085000D03*
D19*
X118750000Y-92625000D03*
D18*
X121290000Y-87545000D03*
D17*
X104830000Y-92625000D03*
X94670000Y-92625000D03*
D18*
X95940000Y-90085000D03*
D19*
X99750000Y-92625000D03*
D18*
X102290000Y-87545000D03*
D17*
X85830000Y-92625000D03*
X75670000Y-92625000D03*
D18*
X76940000Y-90085000D03*
D19*
X80750000Y-92625000D03*
D18*
X83290000Y-87545000D03*
D17*
X66830000Y-92625000D03*
X56670000Y-92625000D03*
D18*
X57940000Y-90085000D03*
D19*
X61750000Y-92625000D03*
D18*
X64290000Y-87545000D03*
D17*
X146920000Y-73625000D03*
X157080000Y-73625000D03*
D18*
X155810000Y-76165000D03*
D19*
X152000000Y-73625000D03*
D18*
X149460000Y-78705000D03*
D17*
X127920000Y-73625000D03*
X138080000Y-73625000D03*
D18*
X136810000Y-76165000D03*
D19*
X133000000Y-73625000D03*
D18*
X130460000Y-78705000D03*
D17*
X108920000Y-73625000D03*
X119080000Y-73625000D03*
D18*
X117810000Y-76165000D03*
D19*
X114000000Y-73625000D03*
D18*
X111460000Y-78705000D03*
D17*
X89920000Y-73625000D03*
X100080000Y-73625000D03*
D18*
X98810000Y-76165000D03*
D19*
X95000000Y-73625000D03*
D18*
X92460000Y-78705000D03*
D17*
X70920000Y-73625000D03*
X81080000Y-73625000D03*
D18*
X79810000Y-76165000D03*
D19*
X76000000Y-73625000D03*
D18*
X73460000Y-78705000D03*
D17*
X51920000Y-73625000D03*
X62080000Y-73625000D03*
D18*
X60810000Y-76165000D03*
D19*
X57000000Y-73625000D03*
D18*
X54460000Y-78705000D03*
D17*
X166580000Y-54625000D03*
X156420000Y-54625000D03*
D18*
X157690000Y-52085000D03*
D19*
X161500000Y-54625000D03*
D18*
X164040000Y-49545000D03*
D17*
X90580000Y-54625000D03*
X80420000Y-54625000D03*
D18*
X81690000Y-52085000D03*
D19*
X85500000Y-54625000D03*
D18*
X88040000Y-49545000D03*
D17*
X71580000Y-54625000D03*
X61420000Y-54625000D03*
D18*
X62690000Y-52085000D03*
D19*
X66500000Y-54625000D03*
D18*
X69040000Y-49545000D03*
D17*
X52580000Y-54625000D03*
X42420000Y-54625000D03*
D18*
X43690000Y-52085000D03*
D19*
X47500000Y-54625000D03*
D18*
X50040000Y-49545000D03*
D15*
X88535000Y-102125000D03*
D16*
X78375000Y-102125000D03*
D21*
X71120000Y-102870000D03*
D22*
X71120000Y-100330000D03*
D14*
X190000000Y-64125000D03*
X123500000Y-64125000D03*
X185250000Y-121125000D03*
X76000000Y-121125000D03*
X57000000Y-64125000D03*
D17*
X159455000Y-130625000D03*
X149295000Y-130625000D03*
D18*
X150565000Y-128085000D03*
D19*
X154375000Y-130625000D03*
D18*
X156915000Y-125545000D03*
D17*
X135705000Y-130625000D03*
X125545000Y-130625000D03*
D18*
X126815000Y-128085000D03*
D19*
X130625000Y-130625000D03*
D18*
X133165000Y-125545000D03*
M02*
