G04 #@! TF.GenerationSoftware,KiCad,Pcbnew,5.1.2-f72e74a~84~ubuntu18.04.1*
G04 #@! TF.CreationDate,2019-06-15T15:54:53+09:00*
G04 #@! TF.ProjectId,right-PCB,72696768-742d-4504-9342-2e6b69636164,rev?*
G04 #@! TF.SameCoordinates,Original*
G04 #@! TF.FileFunction,Copper,L1,Top*
G04 #@! TF.FilePolarity,Positive*
%FSLAX46Y46*%
G04 Gerber Fmt 4.6, Leading zero omitted, Abs format (unit mm)*
G04 Created by KiCad (PCBNEW 5.1.2-f72e74a~84~ubuntu18.04.1) date 2019-06-15 15:54:53*
%MOMM*%
%LPD*%
G04 APERTURE LIST*
%ADD10O,1.600000X1.600000*%
%ADD11C,1.600000*%
%ADD12C,1.800000*%
%ADD13R,1.800000X1.800000*%
%ADD14C,0.800000*%
%ADD15C,0.500000*%
%ADD16C,0.250000*%
G04 APERTURE END LIST*
D10*
X95660000Y-64125000D03*
D11*
X85500000Y-64125000D03*
D10*
X88535000Y-102125000D03*
D11*
X78375000Y-102125000D03*
D12*
X71120000Y-102870000D03*
D13*
X71120000Y-100330000D03*
D14*
X116205000Y-104140000D03*
X174307500Y-101282500D03*
X194310000Y-102235000D03*
X196850000Y-120650000D03*
X112717000Y-121607000D03*
X95152500Y-68677500D03*
X183515000Y-83185000D03*
X186690000Y-90805000D03*
X119380000Y-99060000D03*
X172085000Y-94615000D03*
X162560000Y-66675000D03*
X188912500Y-55562500D03*
X110490000Y-102870000D03*
X118110000Y-102870000D03*
X154940000Y-106680000D03*
X177800000Y-108585000D03*
X167640000Y-66675000D03*
X81915000Y-68580000D03*
X172085000Y-104140000D03*
X146050000Y-91440000D03*
X146050000Y-97790000D03*
X112395000Y-100330000D03*
X163830000Y-62865000D03*
X166370000Y-65405000D03*
X192405000Y-59690000D03*
X113665000Y-104140000D03*
X173235000Y-102750000D03*
X189230000Y-117475000D03*
X111125000Y-93345000D03*
X127635000Y-92710000D03*
X113655000Y-64125000D03*
X76835000Y-57785000D03*
X132715000Y-99695000D03*
X165100000Y-95250000D03*
X201930000Y-114300000D03*
X186055000Y-62865000D03*
D15*
X88535000Y-102125000D02*
X92455000Y-106045000D01*
X114300000Y-106045000D02*
X116205000Y-104140000D01*
X174307500Y-101282500D02*
X193357500Y-101282500D01*
X193357500Y-101282500D02*
X194310000Y-102235000D01*
X194310000Y-102235000D02*
X200025000Y-107950000D01*
X200025000Y-107950000D02*
X200025000Y-117475000D01*
X200025000Y-117475000D02*
X196850000Y-120650000D01*
X92455000Y-106045000D02*
X100330000Y-106045000D01*
X100330000Y-106045000D02*
X114300000Y-106045000D01*
X100330000Y-116205000D02*
X100330000Y-106045000D01*
X105732000Y-121607000D02*
X100330000Y-116205000D01*
X112717000Y-121607000D02*
X105732000Y-121607000D01*
X95660000Y-64125000D02*
X95660000Y-68170000D01*
X95660000Y-68170000D02*
X95152500Y-68677500D01*
X183515000Y-87630000D02*
X186690000Y-90805000D01*
X183515000Y-83185000D02*
X183515000Y-87630000D01*
D16*
X167640000Y-94615000D02*
X172085000Y-94615000D01*
X120211998Y-99060000D02*
X123386998Y-95885000D01*
X119380000Y-99060000D02*
X120211998Y-99060000D01*
X163830000Y-93980000D02*
X167005000Y-93980000D01*
X123386998Y-95885000D02*
X161925000Y-95885000D01*
X161925000Y-95885000D02*
X163830000Y-93980000D01*
X167005000Y-93980000D02*
X167640000Y-94615000D01*
X162560000Y-66675000D02*
X165100000Y-64135000D01*
X165100000Y-64135000D02*
X180340000Y-64135000D01*
X180340000Y-64135000D02*
X188912500Y-55562500D01*
X110490000Y-102870000D02*
X118110000Y-102870000D01*
X154940000Y-106680000D02*
X175895000Y-106680000D01*
X175895000Y-106680000D02*
X177800000Y-108585000D01*
X112395000Y-100330000D02*
X112395000Y-97155000D01*
X172085000Y-104140000D02*
X121920000Y-104140000D01*
X121920000Y-104140000D02*
X114935000Y-97155000D01*
X105410000Y-90170000D02*
X105410000Y-73660000D01*
X112395000Y-97155000D02*
X105410000Y-90170000D01*
X114935000Y-97155000D02*
X112395000Y-97155000D01*
X167640000Y-66675000D02*
X159385000Y-74930000D01*
X159385000Y-74930000D02*
X159385000Y-78105000D01*
X159385000Y-78105000D02*
X146050000Y-91440000D01*
X128270000Y-97790000D02*
X121920000Y-104140000D01*
X146050000Y-97790000D02*
X128270000Y-97790000D01*
X81915000Y-68580000D02*
X83820000Y-66675000D01*
X83820000Y-65805000D02*
X85500000Y-64125000D01*
X83820000Y-66675000D02*
X83820000Y-65805000D01*
X83820000Y-70485000D02*
X81915000Y-68580000D01*
X102235000Y-70485000D02*
X83820000Y-70485000D01*
X105410000Y-73660000D02*
X102235000Y-70485000D01*
D15*
X166370000Y-65405000D02*
X180975000Y-65405000D01*
X180975000Y-65405000D02*
X186690000Y-59690000D01*
X186690000Y-59690000D02*
X192405000Y-59690000D01*
X90170000Y-99695000D02*
X94615000Y-104140000D01*
X94615000Y-104140000D02*
X113665000Y-104140000D01*
X77470000Y-99695000D02*
X90170000Y-99695000D01*
X74295000Y-102870000D02*
X77470000Y-99695000D01*
X71120000Y-102870000D02*
X74295000Y-102870000D01*
X173235000Y-102750000D02*
X174505000Y-102750000D01*
X174505000Y-102750000D02*
X189230000Y-117475000D01*
X111125000Y-93345000D02*
X107315000Y-89535000D01*
X121920000Y-83185000D02*
X107315000Y-83185000D01*
X127635000Y-92710000D02*
X127635000Y-88900000D01*
X127635000Y-88900000D02*
X121920000Y-83185000D01*
X107315000Y-89535000D02*
X107315000Y-83185000D01*
X107315000Y-70465000D02*
X113655000Y-64125000D01*
X113655000Y-64125000D02*
X118755000Y-64125000D01*
X118755000Y-64125000D02*
X121920000Y-60960000D01*
X127000000Y-62865000D02*
X163830000Y-62865000D01*
X107315000Y-83185000D02*
X107315000Y-70465000D01*
X125095000Y-60960000D02*
X127000000Y-62865000D01*
X121920000Y-60960000D02*
X125095000Y-60960000D01*
X113655000Y-64125000D02*
X100955000Y-64125000D01*
X100955000Y-64125000D02*
X94615000Y-57785000D01*
X94615000Y-57785000D02*
X76835000Y-57785000D01*
D16*
X160655000Y-99695000D02*
X165100000Y-95250000D01*
X160655000Y-99695000D02*
X194310000Y-99695000D01*
X194310000Y-99695000D02*
X201930000Y-107315000D01*
X201930000Y-107315000D02*
X201930000Y-114300000D01*
X194310000Y-99695000D02*
X194310000Y-93980000D01*
X194310000Y-93980000D02*
X186055000Y-85725000D01*
X186055000Y-85725000D02*
X186055000Y-62865000D01*
X132715000Y-99695000D02*
X160655000Y-99695000D01*
M02*
